<svg xmlns="http://www.w3.org/2000/svg" width="11.041" height="15" viewBox="0 0 11.041 15">
  <g id="trash" transform="translate(-186.5 -56.9)">
    <path id="Path_1352" data-name="Path 1352" d="M195.521,146.725h-7.087a.7.7,0,0,1-.7-.657l-.608-9.041a.7.7,0,0,1,.7-.751h8.3a.7.7,0,0,1,.7.751l-.608,9.041A.7.7,0,0,1,195.521,146.725Zm2-11.767H186.517a.016.016,0,0,1-.017-.017v-1.925a.016.016,0,0,1,.017-.017h11.008a.016.016,0,0,1,.017.017v1.923A.017.017,0,0,1,197.524,134.959Z" transform="translate(0 -74.825)" fill="#010757"/>
    <path id="Path_1353" data-name="Path 1353" d="M344.7,59.122h-5.882a.016.016,0,0,1-.017-.017V56.917a.016.016,0,0,1,.017-.017H344.7a.016.016,0,0,1,.017.017V59.1A.017.017,0,0,1,344.7,59.122Z" transform="translate(-149.748)" fill="#010757"/>
  </g>
</svg>
