<svg id="_27-approved_-check_-square_-success_-tick" data-name="27-approved,-check,-square,-success,-tick" xmlns="http://www.w3.org/2000/svg" width="18" height="18" viewBox="0 0 18 18">
  <path id="Shape" d="M21.5,6A2.5,2.5,0,0,1,24,8.5v13A2.5,2.5,0,0,1,21.5,24H8.5A2.5,2.5,0,0,1,6,21.5V8.5A2.5,2.5,0,0,1,8.5,6ZM8.5,7A1.5,1.5,0,0,0,7,8.5v13A1.5,1.5,0,0,0,8.5,23h13A1.509,1.509,0,0,0,23,21.5V8.5A1.511,1.511,0,0,0,21.5,7Zm11.182,4.818a.5.5,0,0,1,0,.707l-5.657,5.657a.49.49,0,0,1-.719-.013l-2.172-2.328a.5.5,0,0,1,.025-.707.493.493,0,0,1,.707.025l1.818,1.95,5.291-5.29A.5.5,0,0,1,19.682,11.818Z" transform="translate(-6 -6)" fill="#00ed09"/>
</svg>
