<svg xmlns="http://www.w3.org/2000/svg" width="14.57" height="14.57" viewBox="0 0 14.57 14.57">
  <g id="upload" transform="translate(-1 -1)">
    <path id="Path_1362" data-name="Path 1362" d="M14.908,13a.662.662,0,0,0-.662.662v2.79A1.848,1.848,0,0,1,12.4,18.3H4.17a1.848,1.848,0,0,1-1.846-1.846v-2.79a.662.662,0,1,0-1.325,0v2.79a3.174,3.174,0,0,0,3.17,3.17H12.4a3.174,3.174,0,0,0,3.17-3.17v-2.79A.662.662,0,0,0,14.908,13Z" transform="translate(0 -4.052)" fill="#1266fc"/>
    <path id="Path_1363" data-name="Path 1363" d="M6.131,6.1,8.974,3.261V11.6a.662.662,0,1,0,1.325,0V3.261L13.141,6.1a.662.662,0,1,0,.937-.937L10.1,1.194a.662.662,0,0,0-.936,0L5.194,5.168a.662.662,0,1,0,.937.937Z" transform="translate(-1.351)" fill="#1266fc"/>
  </g>
</svg>
