<svg id="upload" xmlns="http://www.w3.org/2000/svg" width="14.4" height="14.4" viewBox="0 0 14.4 14.4">
  <path id="Path_1362" data-name="Path 1362" d="M14.745,13a.655.655,0,0,0-.655.655v2.758a1.826,1.826,0,0,1-1.824,1.824H4.133a1.826,1.826,0,0,1-1.824-1.824V13.655a.655.655,0,1,0-1.309,0v2.758a3.137,3.137,0,0,0,3.133,3.133h8.133A3.137,3.137,0,0,0,15.4,16.412V13.655A.655.655,0,0,0,14.745,13Z" transform="translate(-1 -5.146)" fill="#fff"/>
  <path id="Path_1363" data-name="Path 1363" d="M6.117,6.045l2.81-2.81v8.238a.655.655,0,0,0,1.309,0V3.235l2.81,2.81a.654.654,0,1,0,.926-.926L10.045,1.192a.655.655,0,0,0-.926,0L5.192,5.119a.654.654,0,1,0,.926.926Z" transform="translate(-2.382 -1)" fill="#fff"/>
</svg>
