<svg xmlns="http://www.w3.org/2000/svg" width="8.911" height="16.52" viewBox="0 0 8.911 16.52">
  <g id="_x30_1._Facebook" transform="translate(-28.4 -10.1)">
    <path id="Icon_11_" d="M30.881,19.425H28.834c-.331,0-.434-.124-.434-.434v-2.5c0-.331.124-.434.434-.434h2.047V14.235a4.593,4.593,0,0,1,.558-2.336,3.431,3.431,0,0,1,1.84-1.53,4.6,4.6,0,0,1,1.592-.269H36.9c.289,0,.414.124.414.414v2.357c0,.289-.124.414-.414.414-.558,0-1.116,0-1.675.021a.747.747,0,0,0-.848.848c-.021.62,0,1.22,0,1.861h2.4c.331,0,.455.124.455.455v2.5c0,.331-.1.434-.455.434h-2.4v6.74c0,.351-.1.476-.476.476H31.315c-.31,0-.434-.124-.434-.434V19.425Z" fill="#fff"/>
  </g>
</svg>
