<svg id="instagram" xmlns="http://www.w3.org/2000/svg" width="17.052" height="17.052" viewBox="0 0 17.052 17.052">
  <path id="Path_90" data-name="Path 90" d="M12.789,0H4.263A4.221,4.221,0,0,0,0,4.263v8.526a4.221,4.221,0,0,0,4.263,4.263h8.526a4.221,4.221,0,0,0,4.263-4.263V4.263A4.221,4.221,0,0,0,12.789,0Zm2.558,12.789a2.512,2.512,0,0,1-2.558,2.558H4.263a2.512,2.512,0,0,1-2.558-2.558V4.263A2.512,2.512,0,0,1,4.263,1.705h8.526a2.512,2.512,0,0,1,2.558,2.558Z" fill="#fff"/>
  <path id="Path_91" data-name="Path 91" d="M9.263,5a4.263,4.263,0,1,0,4.263,4.263A4.221,4.221,0,0,0,9.263,5Zm0,6.821a2.558,2.558,0,1,1,2.558-2.558A2.512,2.512,0,0,1,9.263,11.821Z" transform="translate(-0.737 -0.737)" fill="#fff"/>
  <circle id="Ellipse_19" data-name="Ellipse 19" cx="1" cy="1" r="1" transform="translate(12 3.052)" fill="#fff"/>
</svg>
