<svg xmlns="http://www.w3.org/2000/svg" width="48.663" height="48.663" viewBox="0 0 48.663 48.663"><path d="M23.831,47.663A23.832,23.832,0,0,1,6.98,6.98a23.832,23.832,0,0,1,33.7,33.7A23.676,23.676,0,0,1,23.831,47.663Zm3.66-26.14c2.126,0,2.126,2.017,2.126,3.49v6.4h4.088V24.194c0-3.256-.594-6.268-4.906-6.268a4.323,4.323,0,0,0-3.874,2.126h-.053v-1.8H20.948V31.413h4.089V24.9C25.036,23.231,25.328,21.524,27.491,21.524ZM14.283,18.25V31.413h4.1V18.25Zm2.049-6.539a2.372,2.372,0,1,0,2.372,2.37A2.375,2.375,0,0,0,16.332,11.711Z" transform="translate(0.5 0.5)" fill="#fff" stroke="rgba(0,0,0,0)" stroke-miterlimit="10" stroke-width="1"/></svg>