<svg xmlns="http://www.w3.org/2000/svg" width="48.663" height="48.663" viewBox="0 0 48.663 48.663"><path d="M23.831,47.663A23.832,23.832,0,0,1,6.98,6.98a23.832,23.832,0,0,1,33.7,33.7A23.676,23.676,0,0,1,23.831,47.663Zm-1.32-30.4a2.909,2.909,0,0,0-2.624,2.227,5.654,5.654,0,0,0,.149,3.74.549.549,0,0,1,.043.334c-.321,1.35-.593,2.487-.824,3.451-1.125,4.7-1.27,5.307-1.311,6.535a19.919,19.919,0,0,0,.2,3.382l0,.016c.015.111.031.226.167.256a.191.191,0,0,0,.038,0c.091,0,.143-.07.195-.139l.023-.031a19.249,19.249,0,0,0,1.558-2.327,15.566,15.566,0,0,0,1.626-4.68c.114-.455.242-.968.391-1.551.014-.054.03-.107.049-.167l.009-.031c.046.057.09.114.133.17l0,.005a3.608,3.608,0,0,0,.284.341,4.672,4.672,0,0,0,3.385,1.285,7.072,7.072,0,0,0,5.463-2.759,12.052,12.052,0,0,0,2.215-8.473c-.6-3.91-3.762-6.752-8.063-7.241a12.016,12.016,0,0,0-1.349-.076,10.5,10.5,0,0,0-9,4.64c-2.083,3.267-1.584,7.04-.057,8.932a4.152,4.152,0,0,0,1.688,1.265.7.7,0,0,0,.263.056.466.466,0,0,0,.459-.38c.078-.282.149-.571.217-.85.043-.176.086-.352.131-.527.068-.266-.073-.44-.268-.682l-.066-.082a5.236,5.236,0,0,1-.714-4.43,6.944,6.944,0,0,1,3.851-4.742,7.89,7.89,0,0,1,3.294-.7c2.667,0,5.862,1.371,6.091,5.235.162,2.7-.717,6.181-2.711,7.627a3.3,3.3,0,0,1-1.93.667,2.518,2.518,0,0,1-1.989-.923,2.193,2.193,0,0,1-.374-1.926c.2-.815.431-1.56.631-2.218a7.777,7.777,0,0,0,.595-3.692A1.885,1.885,0,0,0,22.511,17.262Z" transform="translate(0.5 0.5)" fill="#fff" stroke="rgba(0,0,0,0)" stroke-miterlimit="10" stroke-width="1"/></svg>