<svg xmlns="http://www.w3.org/2000/svg" width="48.663" height="48.663" viewBox="0 0 48.663 48.663"><path d="M23.831,47.663A23.832,23.832,0,0,1,6.98,6.98a23.832,23.832,0,0,1,33.7,33.7A23.676,23.676,0,0,1,23.831,47.663ZM18.88,11.429a7.459,7.459,0,0,0-7.451,7.45v9.9a7.459,7.459,0,0,0,7.451,7.45h9.9a7.459,7.459,0,0,0,7.451-7.45v-9.9a7.459,7.459,0,0,0-7.451-7.45Zm9.9,22.47h-9.9a5.123,5.123,0,0,1-5.117-5.117v-9.9a5.123,5.123,0,0,1,5.117-5.117h9.9A5.123,5.123,0,0,1,33.9,18.879v9.9A5.123,5.123,0,0,1,28.782,33.9ZM23.933,17.723a6.108,6.108,0,1,0,6.108,6.107A6.114,6.114,0,0,0,23.933,17.723ZM30.4,15.857a1.455,1.455,0,1,0,1.453,1.454A1.456,1.456,0,0,0,30.4,15.857ZM23.933,27.743a3.912,3.912,0,1,1,3.913-3.913A3.917,3.917,0,0,1,23.933,27.743Z" transform="translate(0.5 0.5)" fill="#fff" stroke="rgba(0,0,0,0)" stroke-miterlimit="10" stroke-width="1"/></svg>