<svg xmlns="http://www.w3.org/2000/svg" width="48.663" height="48.663" viewBox="0 0 48.663 48.663"><path d="M23.831,47.663A23.832,23.832,0,0,1,6.98,6.98a23.832,23.832,0,0,1,33.7,33.7A23.676,23.676,0,0,1,23.831,47.663ZM15.7,20.236v5.494h4.825V39.011h5.94V25.729H30.9l.843-5.494H26.467V16.671c0-1.109.4-2.968,3.1-2.968h2.4V9.024a29.72,29.72,0,0,0-4.255-.371c-4.5,0-7.179,2.764-7.179,7.394v4.188Z" transform="translate(0.5 0.5)" fill="#fff" stroke="rgba(0,0,0,0)" stroke-miterlimit="10" stroke-width="1"/></svg>