<svg xmlns="http://www.w3.org/2000/svg" width="48.663" height="48.663" viewBox="0 0 48.663 48.663"><path d="M23.831,47.663A23.832,23.832,0,0,1,6.98,6.98a23.832,23.832,0,0,1,33.7,33.7A23.676,23.676,0,0,1,23.831,47.663Zm7.617-16.729h0c.176.146.376.3.629.49A16.168,16.168,0,0,1,29.5,32.657,18.448,18.448,0,0,0,31.135,35.3a24.733,24.733,0,0,0,7.618-3.845,25.182,25.182,0,0,0-4.478-17.17,24.76,24.76,0,0,0-6.208-1.918A15.607,15.607,0,0,0,27.272,14a23.259,23.259,0,0,0-6.881,0,17.445,17.445,0,0,0-.816-1.634,24.572,24.572,0,0,0-6.214,1.926A25.429,25.429,0,0,0,8.91,31.451,24.916,24.916,0,0,0,16.529,35.3a18.843,18.843,0,0,0,1.632-2.647,16.275,16.275,0,0,1-2.568-1.227c.221-.168.424-.327.62-.488a17.812,17.812,0,0,0,15.235,0ZM28.828,28a2.885,2.885,0,0,1-2.7-3.031,2.891,2.891,0,0,1,2.7-3.042,2.557,2.557,0,0,1,1.823.78,3.166,3.166,0,0,1,.882,2.254A2.877,2.877,0,0,1,28.828,28Zm-10,0a2.885,2.885,0,0,1-2.7-3.031,2.891,2.891,0,0,1,2.7-3.042,2.558,2.558,0,0,1,1.821.778,3.174,3.174,0,0,1,.886,2.256A2.875,2.875,0,0,1,18.83,28Z" transform="translate(0.5 0.5)" fill="#fff" stroke="rgba(0,0,0,0)" stroke-miterlimit="10" stroke-width="1"/></svg>