<svg xmlns="http://www.w3.org/2000/svg" width="48.663" height="48.663" viewBox="0 0 48.663 48.663"><path d="M23.831,47.663A23.832,23.832,0,0,1,6.98,6.98a23.832,23.832,0,0,1,33.7,33.7A23.676,23.676,0,0,1,23.831,47.663ZM17.337,15.729a5.085,5.085,0,0,0-5.08,5.08v6.045a5.086,5.086,0,0,0,5.08,5.08H30.326a5.086,5.086,0,0,0,5.081-5.08V20.809a5.086,5.086,0,0,0-5.081-5.08Zm4.375,11.479h0c-.312,0-.774-.144-.774-.343V20.949c0-.207.463-.344.769-.344a.509.509,0,0,1,.242.046l5.576,3.034a.648.648,0,0,1,.338.448.167.167,0,0,1-.1.151l-5.825,2.882A.5.5,0,0,1,21.712,27.208Z" transform="translate(0.5 0.5)" fill="#fff" stroke="rgba(0,0,0,0)" stroke-miterlimit="10" stroke-width="1"/></svg>