<svg xmlns="http://www.w3.org/2000/svg" width="48.663" height="48.663" viewBox="0 0 48.663 48.663"><path d="M23.831,47.663A23.832,23.832,0,0,1,6.98,6.98a23.832,23.832,0,0,1,33.7,33.7A23.676,23.676,0,0,1,23.831,47.663ZM22.336,26.244h0l5.788,8.424h6.323l-8.6-12.511,7.906-9.188H31.882L25.02,20.948,19.538,12.97H13.216L21.5,25.034l-8.289,9.634h1.873l7.247-8.424Zm9.546,7.079H29.006l-5.72-8.182-.84-1.2L15.764,14.38h2.877l5.393,7.714.84,1.2,7.008,10.025Z" transform="translate(0.5 0.5)" fill="#fff" stroke="rgba(0,0,0,0)" stroke-miterlimit="10" stroke-width="1"/></svg>