<svg xmlns="http://www.w3.org/2000/svg" width="48.663" height="48.663" viewBox="0 0 48.663 48.663"><path d="M23.831,47.663A23.832,23.832,0,0,1,6.98,6.98a23.832,23.832,0,0,1,33.7,33.7A23.676,23.676,0,0,1,23.831,47.663ZM19.322,20.95A8.145,8.145,0,1,0,27.468,29.1V18.075a7.138,7.138,0,0,0,5.99,3.236c.215,0,.437-.012.659-.034l0-4.46a7.146,7.146,0,0,1-6.592-6.386h-3.84l-.041,18.718a3.96,3.96,0,0,1-1.3,2.914,4.484,4.484,0,0,1-3.024,1.192,4.158,4.158,0,0,1,0-8.315,2.772,2.772,0,0,1,.373.033l.131.017V20.975l-.13-.008C19.574,20.959,19.448,20.95,19.322,20.95Z" transform="translate(0.5 0.5)" fill="#fff" stroke="rgba(0,0,0,0)" stroke-miterlimit="10" stroke-width="1"/></svg>