<svg xmlns="http://www.w3.org/2000/svg" width="18.136" height="14.735" viewBox="0 0 18.136 14.735">
  <g id="twitter" transform="translate(0 -48)">
    <g id="Group_72" data-name="Group 72" transform="translate(0 48)">
      <path id="Path_92" data-name="Path 92" d="M18.136,49.744a7.752,7.752,0,0,1-2.142.587,3.7,3.7,0,0,0,1.636-2.055,7.43,7.43,0,0,1-2.358.9A3.718,3.718,0,0,0,8.84,51.719a3.828,3.828,0,0,0,.086.848,10.524,10.524,0,0,1-7.664-3.889,3.719,3.719,0,0,0,1.143,4.969,3.672,3.672,0,0,1-1.68-.458v.041A3.735,3.735,0,0,0,3.7,56.883a3.711,3.711,0,0,1-.975.122,3.287,3.287,0,0,1-.7-.063A3.753,3.753,0,0,0,5.5,59.532,7.471,7.471,0,0,1,.89,61.118,6.964,6.964,0,0,1,0,61.067a10.467,10.467,0,0,0,5.7,1.669,10.509,10.509,0,0,0,10.582-10.58c0-.164-.006-.323-.014-.481A7.417,7.417,0,0,0,18.136,49.744Z" transform="translate(0 -48)" fill="#fff"/>
    </g>
  </g>
</svg>
