<svg xmlns="http://www.w3.org/2000/svg" width="252.199" height="241.296" viewBox="0 0 252.199 241.296">
  <g id="Group_1000" data-name="Group 1000" transform="translate(-838.582 -245.369)">
    <g id="Group_999" data-name="Group 999" transform="translate(838.582 245.369)" opacity="0.834">
      <g id="Group_968" data-name="Group 968" transform="translate(132.938 34.524)">
        <path id="Path_1168" data-name="Path 1168" d="M1017.065,344.862h-40.5l-5.706-5.223-.022-.272A85.149,85.149,0,0,0,897.8,262.132l.2-1.383a86.544,86.544,0,0,1,74.2,78.227l4.9,4.49h39.961Z" transform="translate(-897.804 -260.749)" fill="#80e8ff"/>
      </g>
      <g id="Group_969" data-name="Group 969" transform="translate(37.534 38.298)">
        <path id="Path_1169" data-name="Path 1169" d="M902.84,326.439H860.83l-5.526-7.551.108-.337a87.359,87.359,0,0,1,54.8-56.121l.451,1.32a85.959,85.959,0,0,0-53.811,54.884l4.689,6.409h41.3Z" transform="translate(-855.303 -262.43)" fill="#80e8ff"/>
      </g>
      <g id="Group_970" data-name="Group 970">
        <path id="Path_1170" data-name="Path 1170" d="M959.23,486.665a120.648,120.648,0,1,1,113.99-160.171l.321.927H1067l-.168-.46a114.477,114.477,0,1,0-.631,79.756l.171-.449H1073l-.341.936A121.029,121.029,0,0,1,959.23,486.665Zm0-239.9A119.252,119.252,0,1,0,1071,407.664h-3.666a115.816,115.816,0,1,1,.644-81.639h3.6A119.332,119.332,0,0,0,959.23,246.765Z" transform="translate(-838.582 -245.369)" fill="#80e8ff"/>
      </g>
      <g id="Group_971" data-name="Group 971" transform="translate(44.823 38.421)">
        <path id="Path_1171" data-name="Path 1171" d="M1016.582,342.7H1007.4l-10.326-10.326V312.936h1.4V331.8l9.509,9.509h7.158a80.847,80.847,0,0,0-155.008-28.6l4.507,6.826,34.167-.007v1.4l-34.917.007-5.336-8.079.148-.346a82.241,82.241,0,0,1,157.859,29.482Z" transform="translate(-858.55 -262.485)" fill="#80e8ff"/>
      </g>
      <g id="Group_972" data-name="Group 972" transform="translate(44.825 122.659)">
        <path id="Path_1172" data-name="Path 1172" d="M934.374,380.228A82.143,82.143,0,0,1,858.7,330.22l-.146-.346,5.336-8.079H898.8v1.4H864.637l-4.507,6.824a80.847,80.847,0,0,0,155.006-28.607H995.384v-1.4h21.2l-.025.721A81.858,81.858,0,0,1,934.374,380.228Z" transform="translate(-858.551 -300.012)" fill="#80e8ff"/>
      </g>
      <g id="Group_973" data-name="Group 973" transform="translate(53.12 128.424)">
        <path id="Path_1173" data-name="Path 1173" d="M929.775,372.23a77.653,77.653,0,0,1-67.331-39.171l-.2-.348,5.033-8.671H894.2v1.4H868.085l-4.229,7.28a76.044,76.044,0,0,0,141.556-30.136l1.388.141A77.157,77.157,0,0,1,929.775,372.23Z" transform="translate(-862.246 -302.58)" fill="#80e8ff"/>
      </g>
      <g id="Group_974" data-name="Group 974" transform="translate(53.12 43.225)">
        <path id="Path_1174" data-name="Path 1174" d="M1005.411,334.275a76.041,76.041,0,0,0-141.556-30.131l4.236,7.273H894.2v1.4H867.29l-5.044-8.662.2-.35A77.438,77.438,0,0,1,1006.8,334.131Z" transform="translate(-862.246 -264.625)" fill="#80e8ff"/>
      </g>
      <g id="Group_975" data-name="Group 975" transform="translate(245.805 144.436)">
        <rect id="Rectangle_397" data-name="Rectangle 397" width="4.159" height="1.396" fill="#80e8ff"/>
      </g>
      <g id="Group_976" data-name="Group 976" transform="translate(14.407 14.416)">
        <path id="Path_1175" data-name="Path 1175" d="M951.235,464.256a106.232,106.232,0,1,1,102.293-135.039l4.763,3.623h22.266v1.4H1057.82l-5.511-4.193-.063-.227a104.836,104.836,0,1,0,0,56.415l.061-.216,2.068-1.672.878,1.084-1.722,1.392A106.539,106.539,0,0,1,951.235,464.256Z" transform="translate(-845 -251.791)" fill="#80e8ff"/>
      </g>
      <g id="Group_977" data-name="Group 977" transform="translate(37.534 138.99)">
        <path id="Path_1176" data-name="Path 1176" d="M910.209,371.3a87.354,87.354,0,0,1-54.8-56.121l-.108-.337,5.526-7.551h42.01v1.4h-41.3l-4.689,6.409a85.963,85.963,0,0,0,53.811,54.886Z" transform="translate(-855.303 -307.287)" fill="#80e8ff"/>
      </g>
      <g id="Group_978" data-name="Group 978" transform="translate(132.938 122.659)">
        <path id="Path_1177" data-name="Path 1177" d="M898,384.125l-.2-1.381a85.144,85.144,0,0,0,73.028-77.21l.022-.269,5.706-5.226,40.5-.027v1.4l-39.961.027-4.9,4.492A86.532,86.532,0,0,1,898,384.125Z" transform="translate(-897.804 -300.012)" fill="#80e8ff"/>
      </g>
      <g id="Group_979" data-name="Group 979" transform="translate(9.605 9.605)">
        <path id="Path_1178" data-name="Path 1178" d="M953.9,471.734a111.043,111.043,0,1,1,105.718-145.111l4.712,3.441h17.742v1.4h-18.2l-5.448-3.98-.07-.215a109.646,109.646,0,1,0,0,66.855l.07-.218,5.448-3.978h18.2v1.4h-17.742l-4.712,3.441A110.682,110.682,0,0,1,953.9,471.734Z" transform="translate(-842.861 -249.648)" fill="#80e8ff"/>
      </g>
      <g id="Group_980" data-name="Group 980" transform="translate(30.993 32.935)">
        <path id="Path_1179" data-name="Path 1179" d="M906.472,334.845H858.03l-5.641-7.06.074-.328a92.143,92.143,0,0,1,61.378-67.122l.913-.294,0,23.074h-1.4l0-21.152A90.755,90.755,0,0,0,853.9,327.439l4.8,6.011h47.77Z" transform="translate(-852.389 -260.041)" fill="#80e8ff"/>
      </g>
      <g id="Group_981" data-name="Group 981" transform="translate(104.339 20.414)">
        <path id="Path_1180" data-name="Path 1180" d="M886.459,290.058h-1.4V254.463h9.011v1.4h-7.615Z" transform="translate(-885.063 -254.463)" fill="#80e8ff"/>
      </g>
      <g id="Group_982" data-name="Group 982" transform="translate(19.545 20.993)">
        <path id="Path_1181" data-name="Path 1181" d="M912.82,352.354H853.036l-5.746-6.258.025-.305a101.747,101.747,0,0,1,81.2-90.9l.835-.166v35.016h-1.4V256.425A100.358,100.358,0,0,0,848.73,345.6l4.918,5.356H912.82Z" transform="translate(-847.289 -254.721)" fill="#80e8ff"/>
      </g>
      <g id="Group_983" data-name="Group 983" transform="translate(25.036 26.804)">
        <path id="Path_1182" data-name="Path 1182" d="M909.775,343.688H855.446l-5.711-6.638.047-.314a96.317,96.317,0,0,1,71.529-79.2l.871-.222v29.2h-1.4v-27.4a94.919,94.919,0,0,0-69.576,77.513l4.876,5.666h53.69Z" transform="translate(-849.735 -257.31)" fill="#80e8ff"/>
      </g>
      <g id="Group_984" data-name="Group 984" transform="translate(119.95 19.908)">
        <rect id="Rectangle_398" data-name="Rectangle 398" width="1.396" height="36.1" fill="#80e8ff"/>
      </g>
      <g id="Group_985" data-name="Group 985" transform="translate(132.33 29.55)">
        <path id="Path_1183" data-name="Path 1183" d="M1017.2,342.177l-36.091,0-5.668-4.938-.036-.258a90.624,90.624,0,0,0-76.481-76.84v24.856h-1.4V258.533l.792.108a92.016,92.016,0,0,1,78.429,77.881l4.882,4.254,35.568,0Z" transform="translate(-897.533 -258.533)" fill="#80e8ff"/>
      </g>
      <g id="Group_986" data-name="Group 986" transform="translate(128.204 24.126)">
        <path id="Path_1184" data-name="Path 1184" d="M987.386,339.745l-5.623-4.667-.047-.247a95.512,95.512,0,0,0-84.624-77.19V288h-1.4V256.117l.756.065a96.907,96.907,0,0,1,86.591,78.144l4.849,4.023,31.157,0v1.4Z" transform="translate(-895.695 -256.117)" fill="#80e8ff"/>
      </g>
      <g id="Group_987" data-name="Group 987" transform="translate(124.062 19.264)">
        <path id="Path_1185" data-name="Path 1185" d="M1020.674,336.993l-27.24,0-5.569-4.415-.054-.238a100.242,100.242,0,0,0-92.564-76.93l.013,35.287h-1.4l-.014-36.744.725.029a101.635,101.635,0,0,1,94.537,77.8l4.806,3.812,26.755,0Z" transform="translate(-893.85 -253.951)" fill="#80e8ff"/>
      </g>
      <g id="Group_988" data-name="Group 988" transform="translate(132.341 128.103)">
        <path id="Path_1186" data-name="Path 1186" d="M897.538,386.072V359.115h1.394v25.357a90.628,90.628,0,0,0,76.481-76.826l.034-.258,5.67-4.95h7.913v1.4h-7.39l-4.882,4.263a92.018,92.018,0,0,1-78.429,77.868Z" transform="translate(-897.538 -302.437)" fill="#80e8ff"/>
      </g>
      <g id="Group_989" data-name="Group 989" transform="translate(245.805 128.103)">
        <rect id="Rectangle_399" data-name="Rectangle 399" width="6.198" height="1.396" fill="#80e8ff"/>
      </g>
      <g id="Group_990" data-name="Group 990" transform="translate(119.95 184.787)">
        <rect id="Rectangle_400" data-name="Rectangle 400" width="1.396" height="36.602" fill="#80e8ff"/>
      </g>
      <g id="Group_991" data-name="Group 991" transform="translate(245.805 138.991)">
        <rect id="Rectangle_401" data-name="Rectangle 401" width="5.081" height="1.396" fill="#80e8ff"/>
      </g>
      <g id="Group_992" data-name="Group 992" transform="translate(124.076 139.199)">
        <path id="Path_1187" data-name="Path 1187" d="M893.856,390.26v-37.3h1.4v35.844a100.3,100.3,0,0,0,92.571-76.99l.056-.238,5.3-4.2.866,1.093-4.921,3.9a101.692,101.692,0,0,1-94.542,77.861Z" transform="translate(-893.856 -307.38)" fill="#80e8ff"/>
      </g>
      <g id="Group_993" data-name="Group 993" transform="translate(245.805 133.547)">
        <rect id="Rectangle_402" data-name="Rectangle 402" width="5.752" height="1.396" fill="#80e8ff"/>
      </g>
      <g id="Group_994" data-name="Group 994" transform="translate(128.209 133.546)">
        <path id="Path_1188" data-name="Path 1188" d="M895.7,388.322V356.1h1.4v30.7a95.431,95.431,0,0,0,84.607-77.01l.047-.247,5.637-4.678h3.937v1.4h-3.432l-4.865,4.036a96.824,96.824,0,0,1-86.571,77.962Z" transform="translate(-895.697 -304.862)" fill="#80e8ff"/>
      </g>
      <g id="Group_995" data-name="Group 995" transform="translate(104.339 184.787)">
        <path id="Path_1189" data-name="Path 1189" d="M894.075,363.784h-9.011V327.689h1.4v34.7h7.615Z" transform="translate(-885.063 -327.689)" fill="#80e8ff"/>
      </g>
      <g id="Group_996" data-name="Group 996" transform="translate(30.991 133.558)">
        <path id="Path_1190" data-name="Path 1190" d="M914.752,379.669l-.911-.294a92.139,92.139,0,0,1-61.376-67.12l-.076-.328,5.641-7.06h48.444v1.4H858.7l-4.8,6.009a90.761,90.761,0,0,0,59.456,65.475V356.1h1.4Z" transform="translate(-852.388 -304.867)" fill="#80e8ff"/>
      </g>
      <g id="Group_997" data-name="Group 997" transform="translate(25.033 128.114)">
        <path id="Path_1191" data-name="Path 1191" d="M922.183,388.82l-.871-.224a96.311,96.311,0,0,1-71.529-79.2l-.049-.317,5.711-6.638h54.332v1.4h-53.69l-4.876,5.666a94.921,94.921,0,0,0,69.576,77.513v-27.9h1.4Z" transform="translate(-849.734 -302.442)" fill="#80e8ff"/>
      </g>
      <g id="Group_998" data-name="Group 998" transform="translate(19.545 122.671)">
        <path id="Path_1192" data-name="Path 1192" d="M929.352,397.65l-.835-.166a101.78,101.78,0,0,1-81.2-90.887l-.027-.305,5.746-6.258,59.784-.016v1.4l-59.171.016-4.916,5.354a100.388,100.388,0,0,0,79.224,89.161v-33.81h1.4Z" transform="translate(-847.289 -300.017)" fill="#80e8ff"/>
      </g>
    </g>
    <path id="Path_1193" data-name="Path 1193" d="M907.547,262.109v10.369a21.044,21.044,0,0,1,14.615,32.331A21.058,21.058,0,0,1,910.646,343.5h-3.1v10.148H896.832V343.5h-4.725v10.148H881.391V343.5H865.737V330.489H876.67V285.27H865.737V272.257h15.654V262.109h10.715v10.148h4.725V262.109h10.715m-17.866,39.265H904.52a8.052,8.052,0,1,0,0-16.1H889.681v16.1m0,29.115h20.965a8.052,8.052,0,1,0,0-16.1H889.681v16.1m19.393-69.907H895.306V270.73h-1.674V260.582H879.864V270.73H864.21V286.8h10.933v42.166H864.21v16.065h15.654v10.148h13.768V345.027h1.674v10.148h13.768V345.027h1.572a22.615,22.615,0,0,0,22.59-22.59,22.875,22.875,0,0,0-9.03-18.053,22.454,22.454,0,0,0,2.9-11.063A22.7,22.7,0,0,0,909.074,271.2V260.582ZM891.208,286.8H904.52a6.525,6.525,0,0,1,0,13.051H891.208V286.8Zm0,29.116h19.438a6.525,6.525,0,1,1,0,13.05H891.208v-13.05Z" transform="translate(64.412 52.787)" fill="#fff"/>
  </g>
</svg>
