<svg xmlns="http://www.w3.org/2000/svg" width="44.16" height="35" viewBox="0 0 44.16 35">
  <g id="credit-card" transform="translate(0 -53.099)" style="mix-blend-mode: normal;isolation: isolate">
    <path id="Path_93" data-name="Path 93" d="M43.375,56.871a3.3,3.3,0,0,0-2.256-1.163l-31.1-2.6a3.317,3.317,0,0,0-3.58,3.019L5.815,62h-2.5A3.32,3.32,0,0,0,0,65.316V84.783A3.32,3.32,0,0,0,3.317,88.1H34.523a3.32,3.32,0,0,0,3.317-3.317V81.625l1.107.092q.14.012.278.012a3.321,3.321,0,0,0,3.3-3.041l1.62-19.4a3.3,3.3,0,0,0-.773-2.418ZM3.317,63.725H34.523a1.594,1.594,0,0,1,1.592,1.592V67.09H1.725V65.316a1.594,1.594,0,0,1,1.592-1.592ZM1.725,68.815h34.39v3.578H1.725Zm32.8,17.56H3.317a1.594,1.594,0,0,1-1.592-1.592V74.118h34.39V84.783A1.594,1.594,0,0,1,34.523,86.375Zm7.906-27.229-1.62,19.4A1.594,1.594,0,0,1,39.09,80l-1.251-.1V65.316A3.321,3.321,0,0,0,34.523,62H7.55l.607-5.7c0-.007,0-.013,0-.02A1.593,1.593,0,0,1,9.877,54.83l31.1,2.6a1.592,1.592,0,0,1,1.454,1.719Z" fill="#00d1ff"/>
    <path id="Path_94" data-name="Path 94" d="M277.04,326.532h-5.806a.6.6,0,0,0-.6.6v3.788a.6.6,0,0,0,.6.6h5.806a.6.6,0,0,0,.6-.6v-3.788A.6.6,0,0,0,277.04,326.532Z" transform="translate(-245.783 -248.776)" fill="#1266fc"/>
  </g>
</svg>
