<svg id="wallet" xmlns="http://www.w3.org/2000/svg" width="35.077" height="33.527" viewBox="0 0 35.077 33.527">
  <path id="Path_101" data-name="Path 101" d="M18.474,2.17A1.224,1.224,0,0,1,19.7,3.394V16.445a1.224,1.224,0,1,1-2.447,0V3.394A1.224,1.224,0,0,1,18.474,2.17Z" transform="translate(8.854 -2.17)" fill="#1266fc" fill-rule="evenodd"/>
  <path id="Path_102" data-name="Path 102" d="M14.409,7.328a1.223,1.223,0,0,1,1.73,0L20.5,11.684l4.356-4.355a1.224,1.224,0,0,1,1.73,1.73L21.36,14.28a1.223,1.223,0,0,1-1.73,0L14.409,9.059a1.224,1.224,0,0,1,0-1.73Z" transform="translate(6.833 0.861)" fill="#1266fc" fill-rule="evenodd"/>
  <path id="Path_103" data-name="Path 103" d="M3.52,5.49A7.749,7.749,0,0,1,9,3.22h7.472a1.224,1.224,0,0,1,0,2.447H9a5.3,5.3,0,0,0-5.3,5.3V27.284a5.3,5.3,0,0,0,5.3,5.3H28.577a5.3,5.3,0,0,0,5.3-5.3v-6.64a1.224,1.224,0,0,1,2.447,0v6.64a7.75,7.75,0,0,1-7.75,7.75H9a7.75,7.75,0,0,1-7.75-7.75V10.969A7.749,7.749,0,0,1,3.52,5.49Z" transform="translate(-1.25 -1.507)" fill="#00d1ff" fill-rule="evenodd"/>
  <path id="Path_104" data-name="Path 104" d="M1.25,10.444A1.224,1.224,0,0,1,2.474,9.22h5.5a6.118,6.118,0,0,1,0,12.236h-5.5a1.224,1.224,0,1,1,0-2.447h5.5a3.671,3.671,0,0,0,0-7.342h-5.5A1.224,1.224,0,0,1,1.25,10.444Z" transform="translate(-1.25 2.282)" fill="#00d1ff" fill-rule="evenodd"/>
</svg>
