<svg xmlns="http://www.w3.org/2000/svg" width="26.088" height="32" viewBox="0 0 26.088 32"><g transform="translate(-2.104)"><g transform="translate(2.104)"><path d="M17.564,0h.228a6.852,6.852,0,0,1-1.726,5.164,5.349,5.349,0,0,1-4.709,2.21,6.647,6.647,0,0,1,1.756-5A7.587,7.587,0,0,1,17.564,0Z" transform="translate(1.638)" fill="#fff"/><path d="M28.192,21.264v.063a18.618,18.618,0,0,1-2.664,5.136c-1.016,1.4-2.261,3.28-4.484,3.28-1.921,0-3.2-1.235-5.165-1.269-2.082-.034-3.228,1.033-5.132,1.3H10.1A5.8,5.8,0,0,1,6.75,27.468,20.215,20.215,0,0,1,2.1,15.838V14.407A9.378,9.378,0,0,1,6.2,6.709a6.915,6.915,0,0,1,4.643-1.075,11.679,11.679,0,0,1,2.275.652,6.282,6.282,0,0,0,2.274.682,5.458,5.458,0,0,0,1.595-.488,9.813,9.813,0,0,1,5.132-.911,7.12,7.12,0,0,1,5.231,3.119,6.713,6.713,0,0,0-3.41,6.661A6.876,6.876,0,0,0,28.192,21.264Z" transform="translate(-2.104 2.225)" fill="#fff"/></g></g></svg>