<svg xmlns="http://www.w3.org/2000/svg" width="31.363" height="32" viewBox="0 0 31.363 32"><g transform="translate(-30.025 -29.098)"><path d="M91.272,70.042a20.011,20.011,0,0,0-.279-3.242H75.9v6.17h8.645a7.273,7.273,0,0,1-3.207,4.845L86.5,81.824a15.734,15.734,0,0,0,4.776-11.782Z" transform="translate(-29.884 -24.56)" fill="#4280ef"/><path d="M49.192,96.8a15.306,15.306,0,0,0,10.6-3.869l-5.159-3.974A9.705,9.705,0,0,1,40.2,83.9l-5.3,4.078A15.984,15.984,0,0,0,49.192,96.8Z" transform="translate(-3.176 -35.699)" fill="#34a353"/><path d="M37.023,64.648a9.72,9.72,0,0,1,0-6.135l-5.3-4.113a16.021,16.021,0,0,0,0,14.361Z" transform="translate(0 -16.482)" fill="#f6b704"/><path d="M49.192,35.443a8.729,8.729,0,0,1,6.135,2.405l4.566-4.6a15.4,15.4,0,0,0-10.7-4.148A15.984,15.984,0,0,0,34.9,37.918l5.3,4.113A9.571,9.571,0,0,1,49.192,35.443Z" transform="translate(-3.176)" fill="#e54335"/></g></svg>