<svg xmlns="http://www.w3.org/2000/svg" width="19" height="19" viewBox="0 0 19 19"><defs><style>.a{fill:#fff;}</style></defs><g transform="translate(-6699.508 -2683)"><path class="a" d="M10.495,3a7.5,7.5,0,1,0,4.739,13.293l4.475,4.475a.75.75,0,1,0,1.06-1.06l-4.475-4.475A7.487,7.487,0,0,0,10.495,3Zm0,1.5a6,6,0,1,1-6,6A5.985,5.985,0,0,1,10.495,4.5Z" transform="translate(6697.008 2680.5)"/><path class="a" d="M10.5,2.5a7.987,7.987,0,0,1,6.463,12.691l4.161,4.161a1.25,1.25,0,1,1-1.767,1.767l-4.161-4.161A7.992,7.992,0,1,1,10.5,2.5Zm9.755,18a.25.25,0,0,0,.172-.43l-.008-.008-4.8-4.8.287-.35a7.011,7.011,0,1,0-.99.99l.35-.287,4.8,4.8A.251.251,0,0,0,20.25,20.5ZM10.5,4A6.485,6.485,0,1,1,5.9,5.9,6.456,6.456,0,0,1,10.5,4Zm0,11.992A5.5,5.5,0,1,0,5,10.5,5.5,5.5,0,0,0,10.5,15.991Z" transform="translate(6697.008 2680.5)"/></g></svg>