<?xml version="1.0" standalone="no"?>
<!DOCTYPE svg PUBLIC "-//W3C//DTD SVG 1.0//EN" "http://www.w3.org/TR/2001/REC-SVG-20010904/DTD/svg10.dtd">
<svg xmlns="http://www.w3.org/2000/svg" xmlns:xlink="http://www.w3.org/1999/xlink" id="body_1" width="1024" height="768">

<defs>
    <linearGradient transform="matrix(1 0 0 1 0 0)"  id="1" x1="26.88" y1="195.92" x2="124.34" y2="26.79">
        <stop stop-color="#80E8FF" offset="0%"/>
        <stop stop-color="#0049E4" offset="100%"/>
    </linearGradient>
    <linearGradient transform="matrix(1 0 0 1 0 0)"  id="234" x1="99.34" y1="-61.41" x2="6.65" y2="165.53">
        <stop stop-color="#80E8FF" offset="0%"/>
        <stop stop-color="#0049E4" offset="100%"/>
    </linearGradient>
</defs>

<g transform="matrix(3.7823195 0 0 3.7823195 318.9315 -0)">
	<g>
		<g>
            <path d="M0.11 149.4C 0 150.52 0 151.64 0 152.75C 0 170.72046 9.587124 187.32585 25.150002 196.31108C 40.712875 205.29631 59.88713 205.29631 75.450005 196.31108C 91.01288 187.32584 100.6 170.72046 100.6 152.75C 100.6 124.97 77.29 110.380005 50.3 102.45C 49.79 102.299995 49.3 102.189995 48.8 102.07C 6.54 120 0.85 142.68 0.11 149.4z" stroke="none" fill="url(#1)" />
            <path d="M51 0L0 31.2L0 150.92C 0 150.59 0 150.08 0.11 149.4C 0.85 142.68 6.54 120 48.8 102.07L48.8 102.07L102.07 82.42L102.07 30.419998L51 0z" stroke="none" fill="url(#234)" />
		</g>
	</g>
</g>
</svg>
