<svg xmlns="http://www.w3.org/2000/svg" xmlns:xlink="http://www.w3.org/1999/xlink" viewBox="0 0 102.09 203.05"><defs><style>.cls-1{fill:url(#linear-gradient);}.cls-2{fill:url(#linear-gradient-2);}</style><linearGradient id="linear-gradient" x1="26.88" y1="195.92" x2="124.34" y2="26.79" gradientUnits="userSpaceOnUse"><stop offset="0" stop-color="#80e8ff"/><stop offset="0.63" stop-color="#0049e4"/></linearGradient><linearGradient id="linear-gradient-2" x1="99.34" y1="-61.41" x2="6.65" y2="165.53" xlink:href="#linear-gradient"/></defs><g id="Layer_2" data-name="Layer 2"><g id="Layer_1-2" data-name="Layer 1"><path class="cls-1" d="M.11,149.4C0,150.52,0,151.64,0,152.75a50.3,50.3,0,1,0,100.6,0c0-27.78-23.31-42.37-50.3-50.3-.51-.15-1-.26-1.5-.38C6.54,120,.85,142.68.11,149.4Z"/><path class="cls-2" d="M51,0,0,31.2,0,150.92c0-.33,0-.84.11-1.52C.85,142.68,6.54,120,48.8,102.07h0l53.27-19.65v-52Z"/></g></g></svg>