<svg xmlns="http://www.w3.org/2000/svg" xmlns:xlink="http://www.w3.org/1999/xlink" width="175.646" height="50.519" viewBox="0 0 175.646 50.519"><defs><linearGradient id="a" x1="0.267" y1="0.929" x2="1.236" y2="-0.746" gradientUnits="objectBoundingBox"><stop offset="0" stop-color="#80e8ff"/><stop offset="0.63" stop-color="#0049e4"/></linearGradient><filter id="b" x="0.004" y="24.892" width="25.035" height="25.626" filterUnits="userSpaceOnUse"><feOffset dx="0.5" dy="1" input="SourceAlpha"/><feGaussianBlur result="c"/><feFlood flood-opacity="0.161"/><feComposite operator="in" in2="c"/><feComposite in="SourceGraphic"/></filter><linearGradient id="d" x1="0.975" y1="-0.407" x2="0.066" y2="1.097" xlink:href="#a"/><filter id="e" x="0" y="0" width="24.865" height="38.802" filterUnits="userSpaceOnUse"><feOffset dy="2" input="SourceAlpha"/><feGaussianBlur result="f"/><feFlood flood-opacity="0.161"/><feComposite operator="in" in2="f"/><feComposite in="SourceGraphic"/></filter><filter id="g" x="28.209" y="4.307" width="42.255" height="44.924" filterUnits="userSpaceOnUse"><feOffset dy="2" input="SourceAlpha"/><feGaussianBlur stdDeviation="4" result="h"/><feFlood flood-opacity="0.149"/><feComposite operator="in" in2="h"/><feComposite in="SourceGraphic"/></filter><filter id="i" x="49.482" y="3.986" width="27.178" height="45.241" filterUnits="userSpaceOnUse"><feOffset dy="2" input="SourceAlpha"/><feGaussianBlur stdDeviation="4" result="j"/><feFlood flood-opacity="0.149"/><feComposite operator="in" in2="j"/><feComposite in="SourceGraphic"/></filter><filter id="k" x="55.962" y="4.312" width="39.428" height="45.223" filterUnits="userSpaceOnUse"><feOffset dy="2" input="SourceAlpha"/><feGaussianBlur stdDeviation="4" result="l"/><feFlood flood-opacity="0.149"/><feComposite operator="in" in2="l"/><feComposite in="SourceGraphic"/></filter><filter id="m" x="75.918" y="4.312" width="39.428" height="45.226" filterUnits="userSpaceOnUse"><feOffset dy="2" input="SourceAlpha"/><feGaussianBlur stdDeviation="4" result="n"/><feFlood flood-opacity="0.149"/><feComposite operator="in" in2="n"/><feComposite in="SourceGraphic"/></filter><filter id="o" x="95.044" y="4.312" width="26.412" height="44.911" filterUnits="userSpaceOnUse"><feOffset dy="2" input="SourceAlpha"/><feGaussianBlur stdDeviation="4" result="p"/><feFlood flood-opacity="0.149"/><feComposite operator="in" in2="p"/><feComposite in="SourceGraphic"/></filter><filter id="q" x="101.167" y="9.448" width="40.223" height="40.083" filterUnits="userSpaceOnUse"><feOffset dy="2" input="SourceAlpha"/><feGaussianBlur stdDeviation="4" result="r"/><feFlood flood-opacity="0.149"/><feComposite operator="in" in2="r"/><feComposite in="SourceGraphic"/></filter><filter id="s" x="120.344" y="9.425" width="38.03" height="40.099" filterUnits="userSpaceOnUse"><feOffset dy="2" input="SourceAlpha"/><feGaussianBlur stdDeviation="4" result="t"/><feFlood flood-opacity="0.149"/><feComposite operator="in" in2="t"/><feComposite in="SourceGraphic"/></filter><filter id="u" x="137.55" y="4.312" width="38.096" height="44.96" filterUnits="userSpaceOnUse"><feOffset dy="2" input="SourceAlpha"/><feGaussianBlur stdDeviation="4" result="v"/><feFlood flood-opacity="0.149"/><feComposite operator="in" in2="v"/><feComposite in="SourceGraphic"/></filter></defs><g transform="translate(-0.001)"><g transform="matrix(1, 0, 0, 1, 0, 0)" filter="url(#b)"><path d="M0,35.891v.818a12.267,12.267,0,1,0,24.535,0c0-6.767-5.684-10.325-12.267-12.267L11.9,24.35C1.6,28.714.2,34.214,0,35.891Z" transform="translate(0 0.54)" fill="url(#a)"/></g><g transform="matrix(1, 0, 0, 1, 0, 0)" filter="url(#e)"><path d="M12.451,0,0,7.606V36.8a3.589,3.589,0,0,1,0-.378c.174-1.635,1.565-7.156,11.868-11.541h0l12.993-4.795V7.432Z" transform="translate(0)" fill="url(#d)"/></g><g transform="translate(40.21 13.986)"><g transform="matrix(1, 0, 0, 1, -40.21, -13.99)" filter="url(#g)"><path d="M54.868,24.467c3.926-2.126,2.474-6.443,2.249-7.033a5.009,5.009,0,0,0-1.4-1.824A7.473,7.473,0,0,0,50.769,14H39.33V34.912H50.769a7.416,7.416,0,0,0,4.948-1.6,4.985,4.985,0,0,0,1.4-1.809C57.393,30.908,58.794,26.594,54.868,24.467Zm-12.5-7.748h8.178a4.012,4.012,0,0,1,2.893.973,3.292,3.292,0,0,1,1.022,2.484,3.23,3.23,0,0,1-.951,2.412,3.517,3.517,0,0,1-2.586.93H42.366ZM53.429,31.246a4.088,4.088,0,0,1-2.893.973H42.356v-6.8H50.9a3.517,3.517,0,0,1,2.586.93,3.21,3.21,0,0,1,.951,2.412,3.292,3.292,0,0,1-1.011,2.484Z" transform="translate(0.88 0.31)" fill="#010757"/></g><g transform="matrix(1, 0, 0, 1, -40.21, -13.99)" filter="url(#i)"><path d="M60.14,15.3a1.616,1.616,0,0,1,.46-1.145,1.6,1.6,0,0,1,2.259,0,1.616,1.616,0,0,1,.46,1.145,1.544,1.544,0,0,1-.46,1.115,1.565,1.565,0,0,1-2.259,0,1.544,1.544,0,0,1-.46-1.115Zm.348,19.627V19.456h2.423V34.922Z" transform="translate(1.34 0.3)" fill="#010757"/></g><g transform="matrix(1, 0, 0, 1, -40.21, -13.99)" filter="url(#k)"><path d="M66.48,27.2a8.178,8.178,0,0,1,2.136-5.714,6.941,6.941,0,0,1,5.326-2.377,6.542,6.542,0,0,1,3.2.8,6.287,6.287,0,0,1,2.351,2.188V14h2.412V34.911H79.494V32.277a6.266,6.266,0,0,1-2.331,2.168,6.757,6.757,0,0,1-3.22.777,6.941,6.941,0,0,1-5.326-2.351A8.178,8.178,0,0,1,66.48,27.2Zm4-4.089A5.806,5.806,0,0,0,68.954,27.2a5.746,5.746,0,0,0,1.523,4.089,5.166,5.166,0,0,0,7.513.03,5.746,5.746,0,0,0,1.5-4.089,5.836,5.836,0,0,0-1.5-4.089,4.876,4.876,0,0,0-3.731-1.646,4.969,4.969,0,0,0-3.782,1.635Z" transform="translate(1.48 0.31)" fill="#010757"/></g><g transform="matrix(1, 0, 0, 1, -40.21, -13.99)" filter="url(#m)"><path d="M86,34.911V14h2.412v8.1a6.358,6.358,0,0,1,2.351-2.188,6.645,6.645,0,0,1,3.22-.8,6.839,6.839,0,0,1,5.305,2.372,8.178,8.178,0,0,1,2.136,5.714,8.178,8.178,0,0,1-2.136,5.684,7.156,7.156,0,0,1-8.547,1.565,6.246,6.246,0,0,1-2.351-2.177v2.643Zm3.926-11.793a5.8,5.8,0,0,0-1.512,4.089A5.735,5.735,0,0,0,89.926,31.3a5.106,5.106,0,0,0,7.524,0,5.776,5.776,0,0,0,1.5-4.089,5.836,5.836,0,0,0-1.5-4.089,5.106,5.106,0,0,0-7.524,0Z" transform="translate(1.92 0.31)" fill="#010757"/></g><g transform="matrix(1, 0, 0, 1, -40.21, -13.99)" filter="url(#o)"><path d="M104.71,34.911V14h2.412V34.911Z" transform="translate(2.33 0.31)" fill="#010757"/></g><g transform="matrix(1, 0, 0, 1, -40.21, -13.99)" filter="url(#q)"><path d="M110.7,27.086a7.781,7.781,0,0,1,2.351-5.7,8.178,8.178,0,0,1,11.49,0,7.974,7.974,0,0,1,0,11.367,8.178,8.178,0,0,1-11.49,0,7.708,7.708,0,0,1-2.351-5.663Zm4.089-4.028a5.714,5.714,0,0,0,0,8.046,5.643,5.643,0,0,0,8,0,5.735,5.735,0,0,0,0-8.046,5.592,5.592,0,0,0-8,0Z" transform="translate(2.47 0.42)" fill="#010757"/></g><g transform="matrix(1, 0, 0, 1, -40.21, -13.99)" filter="url(#s)"><path d="M131.842,32.769a7.708,7.708,0,0,1-2.382-5.684,8.178,8.178,0,0,1,13.678-5.957l-1.554,1.718a5.572,5.572,0,0,0-3.967-1.493,5.643,5.643,0,0,0-5.684,5.714,5.459,5.459,0,0,0,1.656,4.028,5.53,5.53,0,0,0,4.089,1.656,5.765,5.765,0,0,0,4.385-1.779l1.426,1.776a8.178,8.178,0,0,1-5.908,2.351,7.882,7.882,0,0,1-5.746-2.331Z" transform="translate(2.88 0.42)" fill="#010757"/></g><g transform="matrix(1, 0, 0, 1, -40.21, -13.99)" filter="url(#u)"><path d="M146.29,34.911V14H148.7V27.954l7.513-8.51h3.067l-6.133,6.818,7.237,8.607h-3.067l-5.653-6.921L148.7,31.373V34.96Z" transform="translate(3.26 0.31)" fill="#010757"/></g></g></g></svg>