<svg id="Calque_1" data-name="Calque 1" xmlns="http://www.w3.org/2000/svg" xmlns:xlink="http://www.w3.org/1999/xlink" width="134.608" height="40.731" viewBox="0 0 134.608 40.731">
  <defs>
    <linearGradient id="linear-gradient" x1="0.267" y1="0.929" x2="1.236" y2="-0.746" gradientUnits="objectBoundingBox">
      <stop offset="0" stop-color="#80e8ff"/>
      <stop offset="0.63" stop-color="#0049e4"/>
    </linearGradient>
    <linearGradient id="linear-gradient-2" x1="0.975" y1="-0.407" x2="0.066" y2="1.097" xlink:href="#linear-gradient"/>
  </defs>
  <path id="Path_18" data-name="Path 18" d="M0,33.843v.673a10.09,10.09,0,1,0,20.181,0c0-5.566-4.675-8.493-10.09-10.09l-.3-.076C1.312,27.94.168,32.464,0,33.843Z" transform="translate(0.004 -3.875)" fill="url(#linear-gradient)"/>
  <path id="Path_19" data-name="Path 19" d="M10.241,0,0,6.256V30.271a2.952,2.952,0,0,1,0-.311c.143-1.345,1.287-5.886,9.762-9.493h0l10.687-3.944V6.113Z" transform="translate(0.005)" fill="url(#linear-gradient-2)"/>
  <g id="Group_4" data-name="Group 4" transform="translate(33.075 11.504)">
    <path id="Path_20" data-name="Path 20" d="M52.111,22.609c3.229-1.749,2.035-5.3,1.85-5.785a4.12,4.12,0,0,0-1.152-1.5A6.147,6.147,0,0,0,48.739,14H39.33V31.2h9.409a6.1,6.1,0,0,0,4.07-1.32,4.1,4.1,0,0,0,1.152-1.488C54.188,27.907,55.34,24.358,52.111,22.609ZM41.827,16.236h6.727a3.3,3.3,0,0,1,2.38.8,2.708,2.708,0,0,1,.841,2.043,2.657,2.657,0,0,1-.782,1.984,2.893,2.893,0,0,1-2.127.765H41.827Zm9.1,11.949a3.363,3.363,0,0,1-2.38.8H41.819V23.391h7.03a2.893,2.893,0,0,1,2.127.765,2.64,2.64,0,0,1,.782,1.984,2.708,2.708,0,0,1-.832,2.043Z" transform="translate(-39.33 -13.731)"/>
    <path id="Path_21" data-name="Path 21" d="M60.14,15.009a1.329,1.329,0,0,1,.378-.942,1.312,1.312,0,0,1,1.858,0,1.329,1.329,0,0,1,.378.942,1.27,1.27,0,0,1-.378.917,1.287,1.287,0,0,1-1.858,0,1.27,1.27,0,0,1-.378-.917Zm.286,16.144V18.431h1.993V31.153Z" transform="translate(-42.642 -13.681)"/>
    <path id="Path_22" data-name="Path 22" d="M66.48,24.855a6.727,6.727,0,0,1,1.757-4.7A5.709,5.709,0,0,1,72.618,18.2a5.381,5.381,0,0,1,2.632.656,5.171,5.171,0,0,1,1.934,1.8V14h1.984V31.2H77.184V29.034a5.154,5.154,0,0,1-1.917,1.783,5.558,5.558,0,0,1-2.649.639,5.709,5.709,0,0,1-4.381-1.934,6.727,6.727,0,0,1-1.757-4.667Zm3.288-3.363a4.776,4.776,0,0,0-1.253,3.363,4.726,4.726,0,0,0,1.253,3.363,4.249,4.249,0,0,0,6.18.025,4.726,4.726,0,0,0,1.236-3.363,4.8,4.8,0,0,0-1.236-3.363,4.011,4.011,0,0,0-3.069-1.354,4.087,4.087,0,0,0-3.111,1.345Z" transform="translate(-43.65 -13.732)"/>
    <path id="Path_23" data-name="Path 23" d="M86,31.2V14h1.984v6.66a5.23,5.23,0,0,1,1.934-1.8,5.466,5.466,0,0,1,2.649-.656,5.625,5.625,0,0,1,4.364,1.951,6.727,6.727,0,0,1,1.757,4.7,6.727,6.727,0,0,1-1.757,4.675,5.886,5.886,0,0,1-7.03,1.287,5.138,5.138,0,0,1-1.934-1.791V31.2Zm3.229-9.7a4.768,4.768,0,0,0-1.244,3.363,4.717,4.717,0,0,0,1.244,3.363,4.2,4.2,0,0,0,6.189,0,4.751,4.751,0,0,0,1.236-3.363,4.8,4.8,0,0,0-1.236-3.363,4.2,4.2,0,0,0-6.189,0Z" transform="translate(-46.757 -13.732)"/>
    <path id="Path_24" data-name="Path 24" d="M104.71,31.2V14h1.984V31.2Z" transform="translate(-49.735 -13.732)"/>
    <path id="Path_25" data-name="Path 25" d="M110.7,25.655a6.4,6.4,0,0,1,1.934-4.692,6.727,6.727,0,0,1,9.451,0,6.559,6.559,0,0,1,0,9.35,6.727,6.727,0,0,1-9.451,0A6.34,6.34,0,0,1,110.7,25.655Zm3.363-3.313a4.7,4.7,0,0,0,0,6.618,4.642,4.642,0,0,0,6.584,0,4.717,4.717,0,0,0,0-6.618,4.6,4.6,0,0,0-6.584,0Z" transform="translate(-50.688 -14.531)"/>
    <path id="Path_26" data-name="Path 26" d="M131.419,30.326a6.34,6.34,0,0,1-1.959-4.675,6.727,6.727,0,0,1,11.251-4.9l-1.278,1.413a4.583,4.583,0,0,0-3.263-1.228,4.642,4.642,0,0,0-4.675,4.7,4.49,4.49,0,0,0,1.362,3.313,4.549,4.549,0,0,0,3.363,1.362,4.742,4.742,0,0,0,3.607-1.463L141,30.309a6.727,6.727,0,0,1-4.86,1.934,6.483,6.483,0,0,1-4.726-1.917Z" transform="translate(-53.674 -14.528)"/>
    <path id="Path_27" data-name="Path 27" d="M146.29,31.2V14h1.984V25.478l6.18-7h2.523l-5.045,5.608,5.953,7.08h-2.523l-4.65-5.693-2.438,2.817v2.951Z" transform="translate(-56.352 -13.732)"/>
  </g>
</svg>
