<svg xmlns="http://www.w3.org/2000/svg" width="17.615" height="17.664" viewBox="0 0 17.615 17.664">
  <g id="paperplane" transform="translate(-2.277 4.142) rotate(-22)">
    <path id="Path_1387" data-name="Path 1387" d="M15.273,8.5a1.357,1.357,0,0,1-.851,1.181L3.584,15.1a1.712,1.712,0,0,1-.759.2,1.026,1.026,0,0,1-.839-.4,1.341,1.341,0,0,1-.131-1.248L3.076,9.575a1.854,1.854,0,0,0,.079-.416H9.841a.66.66,0,0,0,0-1.32H3.155a1.939,1.939,0,0,0-.079-.416L1.855,3.351A1.337,1.337,0,0,1,1.987,2.1a1.218,1.218,0,0,1,1.6-.2L14.422,7.318A1.357,1.357,0,0,1,15.273,8.5Z" transform="translate(0)" fill="#1266fc"/>
  </g>
</svg>
