<svg xmlns="http://www.w3.org/2000/svg" width="593.991" height="518.7" viewBox="0 0 593.991 518.7"><g transform="translate(-6377.009 1840.7)"><g transform="translate(6377.009 -1442.18)"><g transform="translate(0 8.114)"><path d="M2719.8,2370.094a.692.692,0,0,0-.693.693V2443h575.609v-72.209a.692.692,0,0,0-.693-.693Z" transform="translate(-2709.914 -2330.93)" fill="#d996fb"/><path d="M2719.8,2370.094c-.384,0-.693.16-.693.357v37.192h575.609v-37.192c0-.2-.309-.357-.693-.357Z" transform="translate(-2709.914 -2330.93)" fill="#ca78fa"/><path d="M2799.7,2370.094V2443h5.043v-72.9Zm119.989,0V2443h5.044v-72.9Zm119.99,0V2443h5.043v-72.9Zm119.989,0V2443h5.044v-72.9Zm119.99,0V2443h5.043v-72.9Z" transform="translate(-2745.207 -2330.93)" fill="#ca78fa"/><path d="M2758.125,2324.3a2.162,2.162,0,0,0-1.219.433l-33.361,28.46-4.983-1.609-15.808,6.087V2371.1l.012-.007c.033.083.154.135.358.135h593.253c.2,0,.325-.052.357-.135l.012.007v-13.424l-15.807-6.087-4.984,1.609-33.362-28.46a2.16,2.16,0,0,0-1.218-.433H2758.125Z" transform="translate(-2702.754 -2310.878)" fill="#ae57db"/><path d="M2758.125,2324.3a2.162,2.162,0,0,0-1.219.433l-33.361,28.46-4.983-1.609-15.808,6.087v1.43h593.991v-1.43l-15.807-6.087-4.984,1.609-33.361-28.46a2.16,2.16,0,0,0-1.218-.433h-483.25Z" transform="translate(-2702.754 -2310.878)" fill="#fff" fill-rule="evenodd"/><path d="M2758.125,2300.421a2.165,2.165,0,0,0-1.219.432l-53.99,46.059c-.28.239-.187.431.208.431h593.252c.4,0,.488-.192.208-.431l-53.99-46.059a2.164,2.164,0,0,0-1.219-.432H2758.125Z" transform="translate(-2702.754 -2300.421)" fill="#c8effd"/><path d="M3284.7,2447.73v1.369a1.831,1.831,0,0,1-1.836,1.834H2801.539a1.831,1.831,0,0,1-1.836-1.834v-1.369a1.831,1.831,0,0,1,1.836-1.834h481.327A1.831,1.831,0,0,1,3284.7,2447.73Z" transform="translate(-2745.207 -2364.123)" fill="#ca78fa"/><path d="M3284.7,2465.694v1.369a1.831,1.831,0,0,1-1.836,1.834H2801.539a1.831,1.831,0,0,1-1.836-1.834v-1.369a1.831,1.831,0,0,1,1.836-1.834h481.327A1.831,1.831,0,0,1,3284.7,2465.694Z" transform="translate(-2745.207 -2371.989)" fill="#ca78fa"/><path d="M3284.7,2483.658v1.37a1.831,1.831,0,0,1-1.836,1.834H2801.539a1.831,1.831,0,0,1-1.836-1.834v-1.37a1.831,1.831,0,0,1,1.836-1.834h481.327A1.831,1.831,0,0,1,3284.7,2483.658Z" transform="translate(-2745.207 -2379.855)" fill="#ca78fa"/></g><g transform="translate(22.952)"><path d="M2863.545,2285.986l-9.406,8.114h-59.458a2,2,0,0,0-1.126.4l-38.479,32.826-11.466,1.708v8.117a.137.137,0,0,0,0,.136v.009l.007,0c.042.063.144.1.312.1h94.586l25.03-43.3Zm98.061,0-5.86,8.114h-83.841l-19.344,33.462-5.686,1.72v8.115h103.115l11.615-43.3Zm112.051,0v8.114l11.617,43.3h103.115v-8.115l-5.563-1.508-19.466-33.674h-84.118Zm98.062,0v8.114l25.029,43.3h94.586c.219,0,.322-.069.326-.167l.013.007v-8.114l-10.485-.943-39.481-33.681a2,2,0,0,0-1.124-.4h-59.658ZM2969.1,2294.1l-9.27,34.551-2.345.631v8.115h120.291v-8.115l-2.346-.631-9.27-34.551Z" transform="translate(-2743.589 -2285.986)" fill="#ae57db"/><path d="M2863.559,2285.987l-9.406,8.114H2794.7a2,2,0,0,0-1.126.4l-38.479,32.827-11.466,1.708v1.764h98.719l21.216-36.7Zm98.061,0-5.86,8.114h-83.841l-19.344,33.461-5.686,1.721v1.516h104.885l9.845-36.7Zm112.051,0v8.114l9.847,36.7H3188.4v-1.516l-5.563-1.508-19.466-33.674h-84.117Zm98.062,0v8.114l21.215,36.7h98.74v-1.677l-10.485-.943-39.481-33.681a2,2,0,0,0-1.124-.4H3180.94Zm-202.617,8.114-9.27,34.551-2.345.631v1.516h120.291v-1.516l-2.346-.631-9.27-34.551Z" transform="translate(-2743.603 -2285.987)" fill="#fff" fill-rule="evenodd"/><path d="M2933.566,2285.987l-9.406,8.114h-8.721l-11.941,13.423,5.039,21.759v8.112l25.03-43.3Zm98.061,0-5.86,8.114H3019.6l-8.231,23.958,8.641,11.224v8.115l11.615-43.3Zm112.051,0v8.114l11.617,43.3v-8.115l-.408-35.182h-5.625Zm98.062,0v8.114l25.029,43.3v-8.115l-13.276-35.183h-2.547Zm-112.354,8.114-3.342,2.509,17.275,24.089-7.137-26.6Zm97.436,0,26.024,33.674L3233.38,2294.1Zm26.024,33.674,5.563,3.845v-2.337Z" transform="translate(-2813.61 -2285.987)" fill="#d996fb" fill-rule="evenodd"/><path d="M2794.678,2285.986a1.994,1.994,0,0,0-1.125.4l-49.817,42.5c-.259.221-.173.4.191.4h94.586l25.028-43.3h-68.864Zm77.225,0-25.03,43.3h103.116l11.616-43.3Zm97.2,0-11.615,43.3h120.291l-11.615-43.3Zm104.556,0,11.616,43.3h103.115l-25.03-43.3Zm98.062,0,25.029,43.3h94.586c.364,0,.449-.178.19-.4l-49.818-42.5a1.994,1.994,0,0,0-1.124-.4h-68.864Z" transform="translate(-2743.586 -2285.986)" fill="#c8effd"/><path d="M3152.514,2290.4l-.658,2.451H3239.1l-.658-2.451Zm-.984,3.667-.735,2.739h89.365l-.735-2.739Zm-1.062,3.957-.735,2.739h91.488l-.735-2.739Zm44.672,4.3c-17.717.063-31.983,5.011-31.983,11.091,0,6.126,14.469,11.092,32.319,11.093h0c17.85,0,32.32-4.966,32.32-11.092h0c0-6.125-14.472-11.091-32.32-11.091Zm.337,7.535c5.722,0,10.361,1.592,10.362,3.556h0c0,1.964-4.64,3.556-10.362,3.556h0c-5.723,0-10.362-1.592-10.362-3.556h0c0-1.964,4.639-3.556,10.361-3.556Z" transform="translate(-2921.434 -2287.921)" fill="#fff"/><path d="M2973.794,2290.4l-1.417,2.451h80.171l.658-2.451Zm-2.12,3.667-1.584,2.739h81.4l.735-2.739Zm-2.288,3.957-1.582,2.739h82.622l.735-2.739Zm35.579,4.3c-17.7.081-33.237,5.023-34.865,11.091-1.644,6.126,11.493,11.092,29.344,11.093h0c17.849,0,33.652-4.966,35.3-11.092h0c1.643-6.125-11.5-11.091-29.344-11.091Zm-.553,7.535h.065c5.723,0,9.441,1.592,8.306,3.556s-6.694,3.556-12.417,3.556-9.441-1.591-8.307-3.556h0C2993.189,2311.463,2998.708,2309.875,3004.412,2309.863Z" transform="translate(-2841.769 -2287.921)" fill="#fff"/><path d="M2816.747,2290.4a1.759,1.759,0,0,0-.995.354l-2.459,2.1h63l1.417-2.451h-60.966Zm-4.88,3.667-3.211,2.739h65.354l1.583-2.739Zm-4.638,3.957-3.211,2.739h67.7l1.583-2.739Zm23.453,4.3c-17.752.064-34.874,5.011-38.388,11.091-3.542,6.126,8.057,11.092,25.906,11.093h0c17.85,0,35.19-4.967,38.731-11.093h0c3.54-6.125-8.059-11.09-25.907-11.091Zm-3.059,7.535c5.722,0,9.014,1.592,7.351,3.556s-7.648,3.556-13.37,3.556-9.014-1.592-7.352-3.556h0c1.663-1.964,7.649-3.556,13.371-3.556Z" transform="translate(-2764.636 -2287.921)" fill="#fff"/><path d="M3342.489,2290.4l.657,2.451h80.171l-1.416-2.451Zm.984,3.667.735,2.739h81.4l-1.583-2.739Zm1.061,3.957.735,2.739h82.623l-1.582-2.739Zm45.334,4.3c-17.659.081-30.543,5.022-28.914,11.091,1.643,6.126,17.445,11.092,35.295,11.093h0c17.85,0,30.988-4.966,29.345-11.091h0c-1.645-6.125-17.447-11.091-35.3-11.091Zm1.349,7.535c5.722,0,11.282,1.592,12.418,3.556h0c1.135,1.964-2.583,3.556-8.307,3.556h0c-5.722,0-11.281-1.592-12.417-3.556S3385.5,2309.863,3391.218,2309.863Z" transform="translate(-3005.84 -2287.921)" fill="#fff"/><path d="M3517.475,2290.4l1.416,2.451h63l-2.459-2.1a1.764,1.764,0,0,0-.995-.354h-60.965Zm2.12,3.667,1.582,2.739h65.353l-3.211-2.739Zm2.287,3.957,1.583,2.739h67.7l-3.211-2.739Zm41.852,4.3c-17.635.08-28.989,5.022-25.481,11.091,3.541,6.126,20.881,11.092,38.731,11.093h0c17.85,0,29.449-4.966,25.909-11.092h0c-3.542-6.125-20.883-11.091-38.732-11.091Zm3.83,7.535c5.723,0,11.709,1.592,13.371,3.556h0c1.662,1.964-1.629,3.556-7.352,3.556h0c-5.722,0-11.709-1.592-13.371-3.556h0c-1.662-1.964,1.629-3.556,7.352-3.556Z" transform="translate(-3082.464 -2287.921)" fill="#fff"/><path d="M2937.492,2285.987h0l-25.029,43.295v1.7l25.029-43.295h0Zm308.174,0v1.7h0l25.028,43.295v-1.7l-25.028-43.295Zm-210.113,0-11.615,43.295v1.7l11.615-43.295Zm112.051,0v1.7l11.616,43.295v-1.7Zm111.35,43.295,2.458,1.7h.922v-1.7Z" transform="translate(-2817.535 -2285.987)" fill="#fff" fill-rule="evenodd"/></g></g><g transform="translate(6442.577 -1840.7)"><g transform="translate(61.815 101.497)"><path d="M3058.068,1797.825l-3.18.273c1.395,16.257-3.307,25.921-11.514,32.519s-20.195,10.025-33.243,12.752-27.11,4.777-39.481,9-23.156,10.7-29.149,22.3a21.118,21.118,0,0,0-2.092,15.307c1.147,4.515,3.663,8.4,6.2,11.98s5.105,6.884,6.553,10.051,1.866,6.034.3,9.438c-2.886,6.283-8.063,10.374-12.942,15.109s-9.424,10.272-10.082,19.109c-.6,8.019,2.675,14.88,8.263,20.365-8.753-15.253-8.716-24.693,4.043-37.187,4.713-4.575,10.351-8.962,13.616-16.069a13.987,13.987,0,0,0-.293-12.088c-1.683-3.681-4.377-7.073-6.855-10.568s-4.732-7.07-5.71-10.922-.783-8,1.833-13.061c5.5-10.653,15.378-16.669,27.345-20.751s25.923-6.139,39.1-8.894,25.633-6.185,34.591-13.386,14.15-18.281,12.692-35.276Zm81.828,0c-1.458,16.994,3.735,28.075,12.692,35.276s21.409,10.631,34.59,13.385,27.137,4.813,39.1,8.894,21.844,10.1,27.345,20.751c2.615,5.064,2.811,9.208,1.833,13.061s-3.233,7.427-5.71,10.922-5.172,6.887-6.854,10.568a13.984,13.984,0,0,0-.293,12.088c3.265,7.107,8.9,11.495,13.616,16.069,12.759,12.494,12.8,21.934,4.043,37.187,5.588-5.485,8.86-12.346,8.263-20.365-.657-8.837-5.2-14.374-10.082-19.109s-10.055-8.826-12.942-15.109c-1.564-3.4-1.146-6.271.3-9.438s4.016-6.47,6.553-10.051,5.054-7.465,6.2-11.98a21.114,21.114,0,0,0-2.092-15.307c-5.992-11.6-16.777-18.084-29.148-22.3s-26.434-6.269-39.482-9-25.035-6.154-33.243-12.752-12.909-16.261-11.514-32.519Z" transform="translate(-2929.371 -1775.202)" fill="#c8effd" fill-rule="evenodd"/><path d="M3105.781,1757.585a29.741,29.741,0,0,0-12.61,2.419c-26.2,12.8-20.591,33.434-29.921,53.8-13.74,26.774-64.486,11.533-77.692,45.006-3.124,7.8-3.162,13.366-1.609,17.727a41.482,41.482,0,0,0,14.9,36.381c-6.848,9.587-22.073,16.563-24.99,2.674-2.456,17.306,14.755,18.633,23.5,10.06-3.127,13.324,10.3,21,20.5,19.063-4.152,9.667-20.935,15.167-32.335,7.238,2.813,7.94,19.9,13.01,26.5,7.61-1.148,19.331,21.993,26.928,33.977,14.993-2.54,13.039-17.468,16.487-29.3,13.24,8.094,10.1,29.451,12.424,39.057,2.391,1.053,6.126-2.8,13.853-8.956,16.278,10.143,2.293,22.168-2.685,26.015-18.323.522,19.439,19.243,29.869,32.266,29.869-14.427-6.183-18.663-16.5-18.5-28.411,4.2,13.695,17.965,23.37,31.772,24.3,13.807-.93,27.576-10.6,31.771-24.3.164,11.908-4.072,22.229-18.5,28.411,13.022,0,31.744-10.429,32.265-29.869,3.848,15.638,15.873,20.616,26.016,18.323-6.161-2.424-10.009-10.151-8.957-16.278,9.606,10.033,30.963,7.71,39.057-2.391-11.829,3.247-26.758-.2-29.3-13.24,11.985,11.935,35.125,4.338,33.977-14.993,6.6,5.4,23.691.329,26.5-7.61-11.4,7.929-28.183,2.429-32.335-7.238,10.2,1.942,23.626-5.739,20.5-19.063,8.743,8.574,25.954,7.246,23.5-10.06-2.933,13.969-18.316,6.834-25.107-2.837a41.472,41.472,0,0,0,15.036-36.267c1.536-4.353,1.486-9.908-1.627-17.677-13.206-33.473-63.951-18.232-77.692-45.006-9.331-20.367-3.726-41-29.922-53.8-7.789-3.495-17.441-2.963-25.189.015a37.079,37.079,0,0,0-12.579-2.434Zm-86.614,89.1c-13.151,11.525-19.56,27.012-13.387,48.376-5.017-7.647-6.62-9.487-7.923-13.8C2993.906,1868.029,3002.957,1853.228,3019.167,1846.683Zm198.385,0c16.21,6.545,25.26,21.346,21.31,34.579-1.3,4.31-2.908,6.15-7.925,13.8C3237.11,1873.695,3230.7,1858.208,3217.552,1846.683Zm-230.615,35.163c6.057,7.78,16.713,11.814,15.174,23.587a14.7,14.7,0,0,1-1.581,4.762,37.885,37.885,0,0,1-13.594-28.349Zm262.838.01a37.878,37.878,0,0,1-13.679,28.158,14.534,14.534,0,0,1-1.488-4.581C3233.07,1893.665,3243.717,1889.629,3249.775,1881.855Zm-206.036,34.058c3.637,18.082-12.512,23.319-7.422,42.415.883,3.312,2.7,6.64,5.765,8.286-12.039,2.715-21.67-9.817-11.295-24.532,3.212-5.579,7.8-10.133,10.635-15.994,1.51-3.127,1.946-6.758,2.317-10.174Zm149.24,0c.372,3.416.808,7.047,2.317,10.174,2.83,5.862,7.424,10.415,10.635,15.994,10.375,14.715.743,27.247-11.3,24.532,3.062-1.646,4.883-4.974,5.766-8.286,5.089-19.1-11.059-24.333-7.422-42.415Z" transform="translate(-2948.748 -1757.58)" fill="#69add1" fill-rule="evenodd"/><path d="M3118.36,1776.024c-42.5,0-34.988,40.53-57.119,61.647-8.887,9.592-20.608,11.537-27.08,15.726-11.159,7.223-13.944,12.3-19.013,24.714-1.587-10.169-.118-17.767,6.582-25.194-10.2,1.726-19.854,6.646-26.58,14.526-1.55,1.816-5.146,9.214-5.866,9.737-.946.686-3.681.472-6.3.194a18.245,18.245,0,0,0,.964,7.241,41.481,41.481,0,0,0,14.9,36.381c-6.848,9.587-22.073,16.563-24.99,2.674-2.456,17.306,14.755,18.633,23.5,10.06-3.127,13.324,10.3,21,20.5,19.063-4.152,9.667-20.935,15.167-32.335,7.238,2.813,7.94,19.9,13.01,26.5,7.61-1.148,19.331,21.993,26.928,33.977,14.993-2.54,13.039-17.468,16.487-29.3,13.24,8.094,10.1,29.451,12.424,39.057,2.39,1.053,6.127-2.8,13.854-8.956,16.278,10.143,2.293,22.168-2.685,26.015-18.323.522,19.439,19.243,29.869,32.266,29.869-14.427-6.182-18.663-16.5-18.5-28.411,4.2,13.695,17.965,23.37,31.772,24.3,13.807-.93,27.576-10.6,31.771-24.3.164,11.908-4.072,22.229-18.5,28.411,13.022,0,31.744-10.429,32.265-29.869,3.848,15.638,15.873,20.617,26.016,18.323-6.161-2.424-10.009-10.151-8.957-16.278,9.606,10.034,30.963,7.711,39.057-2.39-11.829,3.247-26.758-.2-29.3-13.24,11.985,11.935,35.125,4.338,33.977-14.993,6.6,5.4,23.691.33,26.5-7.61-11.4,7.928-28.183,2.429-32.335-7.238,10.2,1.941,23.626-5.739,20.5-19.063,8.743,8.574,25.954,7.246,23.5-10.06-2.933,13.968-18.316,6.834-25.107-2.837a41.473,41.473,0,0,0,15.036-36.267,18.265,18.265,0,0,0,.947-7.191c-2.618.277-5.354.492-6.3-.194-.721-.523-4.316-7.921-5.866-9.737-6.726-7.88-16.381-12.8-26.58-14.526,6.7,7.428,8.169,15.025,6.582,25.194-5.069-12.415-7.854-17.491-19.013-24.714-6.471-4.189-18.193-6.133-27.08-15.726C3153.347,1816.554,3160.858,1776.024,3118.36,1776.024Zm-99.193,78.735c-13.151,11.525-19.56,27.012-13.387,48.376-5.017-7.647-6.62-9.487-7.923-13.8C2993.906,1876.1,3002.957,1861.3,3019.167,1854.759Zm198.385,0c16.21,6.545,25.26,21.346,21.31,34.579-1.3,4.31-2.908,6.15-7.925,13.8C3237.11,1881.771,3230.7,1866.284,3217.552,1854.759Zm-230.615,35.163c6.057,7.78,16.713,11.814,15.174,23.587a14.7,14.7,0,0,1-1.581,4.762A37.884,37.884,0,0,1,2986.937,1889.922Zm262.838.01a37.877,37.877,0,0,1-13.679,28.157,14.526,14.526,0,0,1-1.488-4.58C3233.07,1901.741,3243.717,1897.705,3249.775,1889.932Zm-206.036,34.057c3.637,18.082-12.512,23.319-7.422,42.415.883,3.312,2.7,6.64,5.765,8.286-12.039,2.714-21.67-9.817-11.295-24.532,3.212-5.579,7.8-10.133,10.635-15.994C3042.932,1931.036,3043.368,1927.4,3043.739,1923.989Zm149.24,0c.371,3.415.808,7.047,2.317,10.174,2.83,5.862,7.424,10.415,10.636,15.994,10.375,14.715.743,27.247-11.3,24.532,3.062-1.646,4.883-4.974,5.766-8.286C3205.49,1947.308,3189.342,1942.071,3192.979,1923.989Z" transform="translate(-2948.748 -1765.656)" fill="#5389cf" fill-rule="evenodd"/><path d="M3071.5,1876.021c-7.339,13.595-20.287,23.606-34.584,33.33-3,1.669-6.566,4.853-8.692-.372-1.319-4.517,9.647-9.488,15.594-13.32a56.8,56.8,0,0,0,15.512-12.293c-8.6,7.966-19.151,9.923-25.168,13.818-11.159,7.222-13.944,12.3-19.013,24.714-1.587-10.169-.118-17.767,6.582-25.194-10.2,1.726-19.854,6.646-26.58,14.526-1.55,1.816-5.146,9.214-5.866,9.737-.946.686-3.681.472-6.3.195q-.029.519-.033,1.02t.014.985q.019.483.06.95c.028.311.063.617.1.917s.088.581.142.864c.016.084.037.166.054.249.042.207.085.414.134.616.027.111.059.218.087.327.045.168.09.338.139.5.082.275.169.545.264.811a41.479,41.479,0,0,0,14.9,36.381c-6.847,9.587-22.073,16.563-24.989,2.674-2.456,17.306,14.755,18.633,23.5,10.06-3.128,13.324,10.3,21,20.5,19.063-4.152,9.667-20.935,15.167-32.335,7.238,2.813,7.94,19.9,13.01,26.5,7.61-1.147,19.331,21.992,26.928,33.977,14.993-2.54,13.039-17.468,16.487-29.3,13.24,8.094,10.1,29.45,12.424,39.056,2.39,1.054,6.127-2.8,13.854-8.956,16.278,10.144,2.293,22.168-2.685,26.015-18.323.522,19.439,19.243,29.869,32.266,29.869q-.676-.289-1.323-.591c-13.364-6.238-17.335-16.284-17.176-27.82,4.2,13.695,17.964,23.37,31.772,24.3,13.807-.93,27.576-10.6,31.771-24.3.164,11.908-4.072,22.229-18.5,28.411,13.022,0,31.743-10.429,32.266-29.869,3.847,15.638,15.872,20.616,26.015,18.323-6.161-2.425-10.01-10.151-8.957-16.278,9.606,10.034,30.963,7.711,39.057-2.39a30.992,30.992,0,0,1-16.008.174c-6.15-1.682-11.262-5.61-13.015-12.221q-.154-.582-.274-1.194c11.985,11.935,35.125,4.338,33.977-14.993,6.6,5.4,23.691.33,26.5-7.61-11.4,7.928-28.183,2.429-32.335-7.238,10.2,1.941,23.627-5.739,20.5-19.063,8.743,8.574,25.954,7.246,23.5-10.06-2.933,13.968-18.316,6.833-25.106-2.837a41.469,41.469,0,0,0,15.036-36.268c.093-.263.18-.531.261-.8.044-.149.083-.3.123-.457.034-.126.07-.251.1-.379.056-.23.1-.467.151-.7.008-.042.02-.082.028-.124v-.01q.081-.428.142-.87t.1-.911q.04-.464.058-.944t.014-.976q-.005-.5-.034-1.012c-2.619.277-5.354.492-6.3-.195-.721-.523-4.316-7.921-5.866-9.737-6.725-7.88-16.382-12.8-26.58-14.526,6.7,7.428,8.169,15.025,6.582,25.194-5.069-12.415-7.855-17.491-19.013-24.714-6.018-3.9-16.572-5.853-25.168-13.818a56.788,56.788,0,0,0,15.512,12.293c5.948,3.832,16.913,8.8,15.594,13.32-2.126,5.225-5.688,2.042-8.692.372-14.3-9.724-27.245-19.736-34.584-33.33a17.069,17.069,0,0,1-3.934,6.844c-12.121,9.957-27.484,13.312-42.927,16.43-15.444-3.118-30.807-6.473-42.927-16.43a17.069,17.069,0,0,1-3.933-6.844Zm-52.332,22.525c-12.74,11.165-19.153,26.048-13.929,46.39q.253.985.542,1.986c-5.017-7.647-6.62-9.487-7.923-13.8C2993.906,1919.893,3002.957,1905.091,3019.167,1898.546Zm198.385,0c16.21,6.545,25.26,21.346,21.31,34.579-1.3,4.31-2.908,6.15-7.925,13.8C3237.11,1925.558,3230.7,1910.072,3217.552,1898.546Zm-230.615,35.163c6.057,7.78,16.713,11.814,15.174,23.587a14.688,14.688,0,0,1-1.581,4.762A37.884,37.884,0,0,1,2986.937,1933.709Zm262.838.01a37.877,37.877,0,0,1-13.679,28.157,14.52,14.52,0,0,1-1.487-4.58q-.072-.552-.108-1.081c-.025-.353-.038-.7-.041-1.039s.006-.67.024-1C3235.027,1944.74,3244.285,1940.764,3249.775,1933.719Zm-206.036,34.057c3.637,18.082-12.511,23.319-7.421,42.415.882,3.312,2.7,6.64,5.765,8.285-12.04,2.715-21.67-9.817-11.3-24.532,3.212-5.58,7.8-10.133,10.635-15.994C3042.932,1974.824,3043.368,1971.192,3043.739,1967.777Zm149.24,0c.372,3.415.808,7.047,2.317,10.174,2.831,5.862,7.424,10.415,10.636,15.994,9.4,13.335,2.373,24.878-7.987,24.9a14.917,14.917,0,0,1-3.309-.372c3.062-1.646,4.883-4.974,5.766-8.285,4.93-18.5-10.07-23.992-7.707-40.756Q3192.809,1968.623,3192.979,1967.777Z" transform="translate(-2948.748 -1809.444)" fill="#426bb9" fill-rule="evenodd"/><path d="M3113.042,1757.584a29.747,29.747,0,0,0-12.61,2.419c-26.2,12.8-20.591,33.435-29.922,53.8-13.74,26.774-64.486,11.533-77.692,45.006-3.124,7.8-3.162,13.366-1.609,17.727a41.475,41.475,0,0,0,10.207,31.841c-10.4-17.429-9.808-33.486-5.4-44.856,12.888-32.874,62.412-17.905,75.823-44.2,9.105-20,3.636-40.27,29.2-52.839a28.866,28.866,0,0,1,12.307-2.375,35.986,35.986,0,0,1,12.276,2.39c7.562-2.925,16.981-3.446,24.583-.015,25.565,12.569,20.1,32.836,29.2,52.839,13.41,26.295,62.934,11.326,75.822,44.2,4.23,12.559,5.16,29.9-5.392,44.584a41.465,41.465,0,0,0,10.215-31.619c1.536-4.353,1.486-9.909-1.627-17.677-13.206-33.473-63.951-18.232-77.692-45.006-9.331-20.367-3.726-41-29.921-53.8-7.79-3.494-17.441-2.963-25.189.015a37.081,37.081,0,0,0-12.579-2.434Z" transform="translate(-2956.009 -1757.579)" fill="#c8effd" fill-rule="evenodd"/></g><g transform="translate(263.061)"><path d="M3319.878,2004.017c52.591-35.779,102.667-96.778,110.3-107.605-3.741-5.635-18.255-19.78-24.931-23.181-24.531,25.4-33.276,34.611-53.818,51.249a183.881,183.881,0,0,1-17.807,12.053c-16.407,1.346-28.142,5.858-35.657,17.805,6.564,9.2,18.938,37.875,21.917,49.679Z" transform="translate(-3292.019 -1706.725)" fill="#e0abff" fill-rule="evenodd"/><path d="M3410.712,1944.773c-2.323,2.036-4.764,4.118-7.37,6.288,3.143,6.02,6.2,11.937,8.306,18.529,2.384,7.459,4.894,15.5,5.577,23.472,5.1-4.872,9.99-9.733,14.644-14.494C3428.4,1965.972,3420.684,1952.029,3410.712,1944.773Z" transform="translate(-3338.164 -1738.052)" fill="#ba68ea" fill-rule="evenodd"/><path d="M3479.732,1802.018c17.1-38.178,27.205-42.593,47.812-103.25,5.856,4.091,18.347,7.255,22.97,11.5-8.945,26.8-19.558,58.077-28.032,85.1-5.568,13.918-8.806,24.664-20.585,31.988-1.911-.537-11.123-13.913-22.165-25.342Z" transform="translate(-3371.615 -1630.329)" fill="#e0abff" fill-rule="evenodd"/><path d="M3472.2,1784.073c-5.51,16.535-11.023,33.263-15.849,48.654-4.559,11.4-7.559,20.664-14.962,27.669-12.426,16.243-59.125,71.3-108.047,104.581a131.332,131.332,0,0,0-4.646-13.764c50.289-33.515,98.422-85.409,111.643-101.1,8.006-7.005,11.609-16.273,16.934-27.669,4.612-12.192,9.726-25.252,14.926-38.371Z" transform="translate(-3305.479 -1667.684)" fill="#ba68ea" fill-rule="evenodd"/><path d="M3543.41,1738.375a34.739,34.739,0,0,1,11.212,6.2,40.368,40.368,0,0,1,10.029,12.234c-.486,1.456-.972,2.909-1.46,4.372a37.223,37.223,0,0,0-10.584-14.135,31.458,31.458,0,0,0-10.354-5.691C3542.635,1740.386,3543.022,1739.382,3543.41,1738.375Zm-4.519,12.026q.787-.024,1.564,0a26.226,26.226,0,0,1,11.468,3.143,25.606,25.606,0,0,1,10.469,10.027c-.53,1.59-1.055,3.154-1.585,4.747-1.015-4.155-4.938-9.035-10.4-11.965a25.9,25.9,0,0,0-13.17-2.881c.432-.993.869-2.015,1.309-3.056.114-.005.228-.016.341-.02Zm-3.216,6.615a27.4,27.4,0,0,1,21.8,21.369c-.766,2.323-1.523,4.629-2.28,6.939-.4-9.518-4.3-16.472-10.045-20.76a24.992,24.992,0,0,0-10.837-4.557c.435-.94.876-1.906,1.319-2.891.015-.034.03-.065.045-.1Z" transform="translate(-3395.515 -1647.673)" fill="#fff" fill-rule="evenodd"/><path d="M3447.949,1698.767c-20.607,60.657-30.715,65.072-47.812,103.251l.05.052c-20.679,21.411-29.745,30.611-48.761,46.014a183.9,183.9,0,0,1-17.807,12.053c-16.407,1.346-28.143,5.858-35.657,17.805.813,1.14,1.716,2.582,2.679,4.251,7.541-10.491,18.86-14.582,34.34-15.853a183.844,183.844,0,0,0,17.806-12.052c19.017-15.4,28.081-24.6,48.761-46.014l-.05-.052c17.1-38.178,27.205-42.594,47.812-103.251,2.966,2.072,7.625,3.907,12.106,5.764.094-.532.2-1.063.323-1.587a35.507,35.507,0,0,1,1-3.486c-5.21-2.256-11.223-4.4-14.788-6.895Z" transform="translate(-3292.019 -1630.329)" fill="#c8effd" fill-rule="evenodd"/><path d="M3370.073,2023.239c2.006-4,2.413-17.156,2.205-21.487-1.411-29.313-10.858-58.161-17.759-55.916-7.951,2.276-15.081,13.547-21.869,16.663-3.129,1.368-12.234,1.214-17.95,3.1-8.157,1.737-19.673,8.007-27.311,17.3,21.016,13.618,31.592,46.038,35.534,65.573,18.183-7.04,44.172-21.281,47.149-25.231Z" transform="translate(-3287.39 -1738.464)" fill="#fff" fill-rule="evenodd"/><path d="M3338.444,1968.16a30.8,30.8,0,0,1-4.266,3.329,98.344,98.344,0,0,0-2.327,13.095c-.56,4.5-.878,9.183-1.3,13.7-.075.806-.458,6.813-1.634,6.946-1.7.192-6.539-3.93-7.8-4.986-5.817-4.859-15.64-12.563-29.882-11.632a47.645,47.645,0,0,0-3.842,4.117c21.016,13.618,31.592,46.037,35.534,65.573,18.183-7.039,44.172-21.281,47.149-25.23.877-1.749,1.434-5.265,1.782-9.012-4.119.678-14.151,2.207-15.164,1.246-1.376-1.305-1.764-4.972-2.183-6.733a357.928,357.928,0,0,0-12.729-42.709C3341.585,1975.339,3339.665,1970.818,3338.444,1968.16Z" transform="translate(-3287.39 -1748.293)" fill="#e8e8fd" fill-rule="evenodd"/><g transform="translate(134.472 0)"><path d="M3579.965,1689.441c-1.809,1.546-23.234-.94-24.626-5.514-3.455-14.123-1.016-32.822,2.371-44.913,9.482-1.546,28.315,4.587,33.059,12.256C3591.427,1663.158,3584.466,1682.066,3579.965,1689.441Z" transform="translate(-3538.461 -1604.059)" fill="#e0abff" fill-rule="evenodd"/><path d="M3544.86,1685.911c-2.231-4.245-4.957-7.454-8.074-11.107-4.7-5.5-4.847-8.545-5.792-16.49a34.556,34.556,0,0,0-2.051-9.174c-.686-1.672-3.128-4.249-2.06-5.772,3.232-3.966,6.876-.819,8.451,2.044,2.1,3.877,3.765,14.148,5.918,15.618,5.428,3.709,13.436,8.741,13.954,11.274C3556.452,1678.393,3551.229,1686.121,3544.86,1685.911Z" transform="translate(-3526.617 -1605.252)" fill="#e0abff" fill-rule="evenodd"/><path d="M3566.129,1622.707l-1.529-15.6s-.351-4.107-1.218-8.446-.811-10.83-1.744-12.35-3.715-2.976-5.188.727-1.042,9.724-.954,11.774,1.052,9.5,1.065,11.744.281,9.215.292,11.339,9.275.807,9.275.807Z" transform="translate(-3539.208 -1580.385)" fill="#e0abff" fill-rule="evenodd"/><path d="M3585.83,1615.7l1.274-15.619s.385-4.1.306-8.527,1.131-10.8.484-12.463-3.125-3.589-5.235-.206-2.757,9.383-3.037,11.417-.656,9.531-1.043,11.746-1.365,9.118-1.734,11.21,8.984,2.442,8.984,2.442Z" transform="translate(-3548.607 -1577.015)" fill="#e0abff" fill-rule="evenodd"/><path d="M3602.652,1628.9l3.121-15.357s.871-4.029,1.318-8.43,2.407-10.591,1.962-12.318-2.677-3.934-5.174-.825-3.853,8.99-4.372,10.976-1.785,9.385-2.432,11.539-2.439,8.891-3.054,10.925,8.63,3.49,8.63,3.49Z" transform="translate(-3556.12 -1582.882)" fill="#e0abff" fill-rule="evenodd"/><path d="M3605.3,1656.777l8.016-13.471s2.152-3.518,4.026-7.526,5.768-9.206,5.918-10.982-1.229-4.6-4.612-2.482-6.6,7.219-7.75,8.923-4.783,8.273-6.1,10.093-5.238,7.592-6.489,9.31,7,6.136,7,6.136Z" transform="translate(-3557.953 -1596.521)" fill="#e0abff" fill-rule="evenodd"/><path d="M3533.582,1649.3c-.674-3.012-4.2-6.749-5.974-4.283-.932,1.4,1.833,4.053,2.5,5.92A6.857,6.857,0,0,0,3533.582,1649.3Z" transform="translate(-3526.968 -1606.439)" fill="#ba68ea" fill-rule="evenodd"/><path d="M3563.282,1593.717c-.493,1.31-4.419.881-4.338-1.98-.149-2.725.684-5.049,3.189-4.544,1.556.476,1.6,5.407,1.149,6.524Z" transform="translate(-3540.765 -1581.441)" fill="#ba68ea" fill-rule="evenodd"/><path d="M3591.736,1586.8c-.692,1.216-4.5.18-3.975-2.634.28-2.714,1.466-4.88,3.861-3.989C3593.085,1580.892,3592.355,1585.768,3591.736,1586.8Z" transform="translate(-3553.37 -1578.311)" fill="#ba68ea" fill-rule="evenodd"/><path d="M3614.7,1601.078c-.823,1.133-4.5-.322-3.656-3.06.582-2.666,2-4.686,4.282-3.535,1.374.872.1,5.638-.627,6.594Z" transform="translate(-3563.533 -1584.52)" fill="#ba68ea" fill-rule="evenodd"/><path d="M3634.171,1631.34c-1.145.808-4.152-1.749-2.476-4.072,1.41-2.337,3.405-3.794,5.194-1.971,1.02,1.267-1.717,5.371-2.718,6.043Z" transform="translate(-3572.412 -1597.798)" fill="#ba68ea" fill-rule="evenodd"/></g><path d="M3563.082,1577.023a3.069,3.069,0,0,1,2.822,2.066,2.1,2.1,0,0,1,.094.346c.015.068.022.147.033.223.007.057.017.112.024.174.028.289.038.624.036,1v0a2.462,2.462,0,0,0-1.925-.8,3.235,3.235,0,0,0-2.324,1.792c-2.032,3.259-2.656,9.04-2.924,11s-.633,9.18-1.006,11.315c-.333,1.908-1.1,7.262-1.518,9.85-.717-.118-2.731-.475-3.423-.552l-.288-2.375c.007,0,.036.017.045.02l.086.881c.719.081,1.456.193,2.2.316.433-2.686,1.231-8.246,1.577-10.226.387-2.215.764-9.713,1.043-11.745s.927-8.034,3.036-11.417a3.361,3.361,0,0,1,2.412-1.86Zm-16.8,4.325a2.129,2.129,0,0,1,.4.007c.04,0,.08.014.119.02a2.46,2.46,0,0,1,.276.056c.048.014.1.031.143.046.079.026.157.054.234.087.052.022.1.048.153.074.071.035.141.073.209.113.05.03.1.061.146.092.066.044.131.09.194.138.044.034.088.068.131.1.063.053.124.108.183.164.035.034.072.066.1.1.068.07.13.143.191.216.021.026.047.052.067.078a3.321,3.321,0,0,1,.212.3,2.155,2.155,0,0,1,.155.324c.021.055.041.12.061.18s.046.135.067.211a9.9,9.9,0,0,1,.212.971c-1.194-.755-2.87-.771-3.893,1.8-1.419,3.568-1,9.367-.92,11.342s1.012,9.147,1.026,11.313.272,8.878.281,10.925a.288.288,0,0,0,.007.041,120.223,120.223,0,0,0-2.373,14.744,12.459,12.459,0,0,1-1.564-1.426l.032.021a118.02,118.02,0,0,1,2.13-14.82c0-.015-.007-.028-.007-.042-.01-2.125-.278-9.092-.292-11.341s-.978-9.694-1.066-11.744-.518-8.07.955-11.773a6.53,6.53,0,0,1,.274-.6c.031-.06.064-.11.1-.166.066-.117.133-.231.2-.333.04-.058.081-.11.122-.164.065-.085.13-.167.2-.242.044-.048.088-.093.132-.136a2.684,2.684,0,0,1,.2-.182c.045-.037.091-.073.136-.106.068-.047.136-.088.2-.126.049-.028.1-.057.148-.08a2.047,2.047,0,0,1,.228-.086c.04-.013.079-.031.12-.041a2.07,2.07,0,0,1,.355-.062Zm30.712,3.2a2.048,2.048,0,0,1,.434.063c.043.011.085.026.127.04a2.207,2.207,0,0,1,.284.11c.043.02.086.042.127.065a2.71,2.71,0,0,1,.273.17c.029.021.059.041.087.062a3.168,3.168,0,0,1,.331.292,3.594,3.594,0,0,1,.281.333c.029.039.054.08.082.119.055.08.107.16.156.243.026.046.052.091.076.137.044.082.083.166.12.249.02.043.039.085.056.128a3.322,3.322,0,0,1,.124.373,2.066,2.066,0,0,1,.051.343c.005.057.005.121.007.184s0,.124,0,.189a8.459,8.459,0,0,1-.062.874v0c-.856-1.278-2.6-2.12-4.5.251-2.405,2.995-3.714,8.661-4.214,10.574s-1.719,9.04-2.342,11.115c-.366,1.219-1.1,3.918-1.776,6.372-.572-.223-2.373-.853-2.957-1.057l.177-1.259,0,.043c.606.211,1.2.439,1.8.671.7-2.547,1.463-5.349,1.844-6.614.647-2.153,1.914-9.553,2.432-11.538s1.876-7.867,4.373-10.976c.141-.176.281-.33.421-.473.039-.039.076-.075.115-.113q.162-.156.32-.285c.036-.029.072-.059.107-.086a3.587,3.587,0,0,1,.4-.27,2.825,2.825,0,0,1,.39-.179c.039-.015.078-.026.116-.039a2.3,2.3,0,0,1,.273-.071c.038-.007.077-.016.115-.021a2.131,2.131,0,0,1,.356-.024Zm12.491,17.507a2.249,2.249,0,0,1,.391.031c.035.006.068.014.1.021a2.069,2.069,0,0,1,.259.072c.034.012.07.022.1.036a2.155,2.155,0,0,1,.306.151,2.222,2.222,0,0,1,.263.2c.033.029.065.06.1.09s.075.075.111.114a2.674,2.674,0,0,1,.31.4h0a3.179,3.179,0,0,1,.227.455c.017.04.032.08.047.12a3.82,3.82,0,0,1,.147.478,3.753,3.753,0,0,1,.072.492c0,.038.007.075.01.112a3.049,3.049,0,0,1,0,.465,2.021,2.021,0,0,1-.057.3c-.024.093-.054.191-.088.293-.463-1.4-1.821-2.55-4.271-1.02-3.259,2.035-6.362,6.955-7.465,8.6-.852,1.268-3.127,5.312-4.709,7.9-.246-.179-1.347-.791-1.606-.966l.2-.987q.382.259.746.524c1.643-2.691,4-6.89,4.889-8.206,1.145-1.7,4.367-6.811,7.75-8.923a5.612,5.612,0,0,1,1.175-.573,3.184,3.184,0,0,1,.994-.18Zm-59.525,11.217a3.388,3.388,0,0,1,.58.009c.068.006.135.023.2.033.121.019.242.037.36.068.089.023.176.054.264.083s.187.061.279.1.2.091.3.141c.071.035.144.07.214.109.113.062.223.129.332.2.056.035.11.071.165.108.117.081.233.167.347.256.042.033.083.066.125.1.124.1.246.209.364.32l.057.056c.132.126.262.256.387.391l0,.005c-1.451-.615-3.1-.411-4.648,1.49-1.029,1.468,1.324,3.949,1.985,5.561a33.316,33.316,0,0,1,1.975,8.838c.91,7.652,1.056,10.584,5.58,15.885,6.969,8.148,5.19,10.733,9.738,13.185a19.509,19.509,0,0,1-2.685-1.113c-.237-.124-.458-.25-.666-.379l-.1-.061c-.175-.112-.336-.226-.487-.341-.039-.03-.078-.06-.115-.09a4.492,4.492,0,0,1-.353-.319c-.042-.041-.086-.082-.125-.123a2.945,2.945,0,0,1-.247-.314c-.034-.048-.076-.1-.1-.145-.01-.016-.017-.033-.026-.049a2.013,2.013,0,0,1-.175-.39c-.192-.786-.363-1.587-.52-2.4a78.242,78.242,0,0,0-6.189-7.916c-4.7-5.5-4.847-8.545-5.792-16.49a34.6,34.6,0,0,0-2.051-9.174c-.687-1.672-3.128-4.248-2.061-5.772a7,7,0,0,1,.554-.6c.035-.034.07-.069.105-.1a5.382,5.382,0,0,1,.542-.446c.026-.019.054-.034.081-.052a4.265,4.265,0,0,1,.5-.292c.032-.016.064-.035.1-.05a3.559,3.559,0,0,1,.531-.195c.042-.012.085-.022.127-.032a3.358,3.358,0,0,1,.54-.091Z" transform="translate(-3392.145 -1577.015)" fill="#c8effd" fill-rule="evenodd"/></g><path d="M3039.353,2004.017c-52.591-35.779-102.667-96.778-110.3-107.605,3.741-5.635,18.254-19.78,24.931-23.181,24.53,25.4,33.276,34.611,53.818,51.249a183.821,183.821,0,0,0,17.807,12.053c16.407,1.346,28.142,5.858,35.657,17.805-6.564,9.2-18.938,37.875-21.917,49.679Z" transform="translate(-2867.418 -1706.725)" fill="#e0abff" fill-rule="evenodd"/><path d="M3029.29,1944.773c-9.972,7.256-17.694,21.2-21.159,33.794,4.653,4.761,9.546,9.622,14.645,14.494.683-7.972,3.194-16.012,5.577-23.47,2.107-6.592,5.164-12.509,8.307-18.529C3034.055,1948.891,3031.612,1946.809,3029.29,1944.773Z" transform="translate(-2902.045 -1738.052)" fill="#ba68ea" fill-rule="evenodd"/><path d="M2927.354,1802.018c-17.1-38.178-27.2-42.593-47.812-103.25-5.856,4.091-18.347,7.255-22.97,11.5,8.945,26.8,19.558,58.077,28.032,85.1,5.568,13.918,8.805,24.664,20.586,31.988,1.911-.537,11.122-13.913,22.164-25.342Z" transform="translate(-2835.678 -1630.329)" fill="#e0abff" fill-rule="evenodd"/><path d="M2878.246,1784.073c5.51,16.535,11.023,33.263,15.849,48.654,4.559,11.4,7.559,20.664,14.962,27.669,12.425,16.243,59.124,71.3,108.046,104.581a131.353,131.353,0,0,1,4.646-13.764c-50.289-33.515-98.422-85.409-111.643-101.1-8.006-7.005-11.609-16.273-16.934-27.669C2888.56,1810.253,2883.446,1797.193,2878.246,1784.073Z" transform="translate(-2845.169 -1667.684)" fill="#ba68ea" fill-rule="evenodd"/><path d="M2895.181,1738.375a34.75,34.75,0,0,0-11.213,6.2,40.363,40.363,0,0,0-10.028,12.234c.486,1.456.972,2.909,1.459,4.372a37.229,37.229,0,0,1,10.585-14.135,31.452,31.452,0,0,1,10.354-5.691c-.381-.968-.769-1.972-1.157-2.979Zm4.518,12.026q-.787-.024-1.564,0a26.229,26.229,0,0,0-11.468,3.143,25.6,25.6,0,0,0-10.468,10.027c.53,1.59,1.054,3.154,1.584,4.747,1.015-4.155,4.939-9.035,10.4-11.965a25.908,25.908,0,0,1,13.17-2.881c-.432-.993-.868-2.015-1.309-3.056-.113-.005-.228-.016-.342-.02Zm3.216,6.615a27.4,27.4,0,0,0-21.8,21.369c.767,2.323,1.523,4.629,2.28,6.939.4-9.518,4.305-16.472,10.046-20.76a24.989,24.989,0,0,1,10.837-4.557c-.435-.94-.876-1.906-1.319-2.891l-.045-.1Z" transform="translate(-2843.283 -1647.673)" fill="#fff" fill-rule="evenodd"/><path d="M2886.538,1698.767c-3.385,2.365-8.971,4.423-13.989,6.556a42.05,42.05,0,0,1,.324,5.494c4.541-1.886,9.294-3.744,12.3-5.846,20.607,60.657,30.715,65.073,47.813,103.251l-.05.052c20.679,21.411,29.745,30.611,48.761,46.014a183.854,183.854,0,0,0,17.807,12.052c15.479,1.271,26.8,5.362,34.34,15.853.962-1.669,1.865-3.111,2.678-4.251-7.515-11.947-19.249-16.459-35.657-17.805a183.985,183.985,0,0,1-17.807-12.053c-19.017-15.4-28.081-24.6-48.761-46.014l.049-.052c-17.1-38.178-27.2-42.594-47.812-103.251Z" transform="translate(-2842.675 -1630.329)" fill="#c8effd" fill-rule="evenodd"/><path d="M3025.985,2023.239c-2-4-2.413-17.156-2.2-21.487,1.41-29.313,10.857-58.161,17.759-55.916,7.951,2.276,15.081,13.547,21.868,16.663,3.13,1.368,12.234,1.214,17.95,3.1,8.157,1.737,19.672,8.007,27.311,17.3-21.016,13.618-31.592,46.038-35.534,65.573-18.183-7.04-44.172-21.281-47.149-25.231Z" transform="translate(-2908.876 -1738.464)" fill="#fff" fill-rule="evenodd"/><path d="M3057.982,1968.16c-1.221,2.658-3.142,7.179-3.337,7.7a357.927,357.927,0,0,0-12.728,42.709c-.418,1.761-.807,5.428-2.183,6.733-1.014.961-11.046-.568-15.165-1.246.348,3.748.905,7.264,1.783,9.012,2.977,3.95,28.966,18.191,47.149,25.23,3.942-19.535,14.518-51.955,35.534-65.573a47.525,47.525,0,0,0-3.842-4.117c-14.243-.931-24.067,6.773-29.884,11.632-1.265,1.057-6.1,5.179-7.8,4.986-1.176-.133-1.56-6.141-1.634-6.946-.421-4.515-.739-9.2-1.3-13.7a98.384,98.384,0,0,0-2.327-13.095A30.769,30.769,0,0,1,3057.982,1968.16Z" transform="translate(-2909.243 -1748.293)" fill="#e8e8fd" fill-rule="evenodd"/><g transform="translate(0 0)"><path d="M2853.323,1689.441c1.809,1.546,23.233-.94,24.625-5.514,3.456-14.123,1.016-32.822-2.37-44.913-9.482-1.546-28.315,4.587-33.06,12.256C2841.86,1663.158,2848.821,1682.066,2853.323,1689.441Z" transform="translate(-2829.505 -1604.059)" fill="#e0abff" fill-rule="evenodd"/><path d="M2894.95,1685.911c2.23-4.245,4.957-7.454,8.074-11.107,4.7-5.5,4.847-8.545,5.791-16.49a34.6,34.6,0,0,1,2.051-9.174c.687-1.672,3.128-4.249,2.061-5.772-3.232-3.966-6.876-.819-8.451,2.044-2.1,3.877-3.765,14.148-5.917,15.618-5.429,3.709-13.436,8.741-13.954,11.274C2883.358,1678.393,2888.58,1686.121,2894.95,1685.911Z" transform="translate(-2847.872 -1605.252)" fill="#e0abff" fill-rule="evenodd"/><path d="M2887.715,1622.707l1.529-15.6s.352-4.107,1.218-8.446.81-10.83,1.743-12.35,3.716-2.976,5.188.727,1.042,9.724.954,11.774-1.051,9.5-1.066,11.744-.281,9.215-.291,11.339-9.276.807-9.276.807Z" transform="translate(-2849.315 -1580.385)" fill="#e0abff" fill-rule="evenodd"/><path d="M2867.632,1615.7l-1.274-15.619s-.386-4.1-.307-8.527-1.131-10.8-.485-12.463,3.126-3.589,5.235-.206,2.757,9.383,3.036,11.417.657,9.531,1.044,11.746,1.365,9.118,1.734,11.21-8.984,2.442-8.984,2.442Z" transform="translate(-2839.533 -1577.015)" fill="#e0abff" fill-rule="evenodd"/><path d="M2847.791,1628.9l-3.121-15.357s-.871-4.029-1.318-8.43-2.407-10.591-1.962-12.318,2.677-3.934,5.173-.825,3.853,8.99,4.372,10.976,1.784,9.385,2.432,11.539,2.439,8.891,3.054,10.925-8.63,3.49-8.63,3.49Z" transform="translate(-2829.001 -1582.882)" fill="#e0abff" fill-rule="evenodd"/><path d="M2837.373,1656.777l-8.015-13.471s-2.152-3.518-4.027-7.526-5.768-9.206-5.918-10.982,1.229-4.6,4.612-2.482,6.6,7.219,7.75,8.923,4.783,8.273,6.105,10.093,5.237,7.592,6.489,9.31-7,6.136-7,6.136Z" transform="translate(-2819.402 -1596.521)" fill="#e0abff" fill-rule="evenodd"/><path d="M2923.841,1649.3c.674-3.012,4.2-6.749,5.975-4.283.932,1.4-1.832,4.053-2.5,5.92A6.856,6.856,0,0,1,2923.841,1649.3Z" transform="translate(-2865.135 -1606.439)" fill="#ba68ea" fill-rule="evenodd"/><path d="M2895.359,1593.717c.492,1.31,4.419.881,4.338-1.98.148-2.725-.684-5.049-3.189-4.544-1.556.476-1.6,5.407-1.15,6.524Z" transform="translate(-2852.554 -1581.441)" fill="#ba68ea" fill-rule="evenodd"/><path d="M2866.777,1586.8c.692,1.216,4.5.18,3.975-2.634-.28-2.714-1.466-4.88-3.861-3.989C2865.427,1580.892,2866.158,1585.768,2866.777,1586.8Z" transform="translate(-2839.823 -1578.311)" fill="#ba68ea" fill-rule="evenodd"/><path d="M2843.616,1601.078c.823,1.133,4.5-.322,3.656-3.06-.581-2.666-2-4.686-4.282-3.535-1.374.872-.1,5.638.626,6.594Z" transform="translate(-2829.463 -1584.52)" fill="#ba68ea" fill-rule="evenodd"/><path d="M2823.447,1631.34c1.145.808,4.153-1.749,2.476-4.072-1.409-2.337-3.4-3.794-5.193-1.971-1.02,1.267,1.717,5.371,2.717,6.043Z" transform="translate(-2819.885 -1597.798)" fill="#ba68ea" fill-rule="evenodd"/></g><path d="M2848.26,1577.023a3.069,3.069,0,0,0-2.822,2.066,2.057,2.057,0,0,0-.094.346c-.014.068-.023.147-.033.223-.008.057-.017.112-.024.174a9.932,9.932,0,0,0-.036,1v0a2.463,2.463,0,0,1,1.925-.8,3.234,3.234,0,0,1,2.323,1.792c2.032,3.259,2.656,9.04,2.925,11s.633,9.18,1.006,11.314c.333,1.908,1.1,7.263,1.518,9.851.717-.119,2.73-.475,3.423-.553l.288-2.375c-.007,0-.035.018-.044.02l-.086.881c-.719.081-1.455.193-2.2.316-.433-2.687-1.231-8.246-1.577-10.226-.386-2.215-.764-9.712-1.043-11.745s-.927-8.034-3.036-11.417a3.36,3.36,0,0,0-2.412-1.859Zm16.8,4.325a2.131,2.131,0,0,0-.4.007c-.04,0-.079.014-.118.02a2.576,2.576,0,0,0-.276.056c-.048.014-.1.031-.143.046-.079.026-.158.054-.234.087-.052.022-.1.048-.153.074-.071.035-.141.073-.21.113-.049.03-.1.061-.146.092q-.1.066-.194.138c-.044.034-.088.068-.131.1-.063.053-.124.108-.183.164-.035.034-.072.065-.1.1-.068.07-.13.143-.19.216-.022.026-.047.052-.067.078a3.224,3.224,0,0,0-.212.3,2.156,2.156,0,0,0-.155.324c-.021.055-.041.12-.061.18s-.046.135-.067.211a9.835,9.835,0,0,0-.212.971c1.193-.755,2.869-.771,3.893,1.8,1.418,3.568,1,9.367.92,11.342s-1.012,9.147-1.026,11.313-.272,8.878-.282,10.925c0,.015-.005.027-.006.041a120.068,120.068,0,0,1,2.373,14.744,12.464,12.464,0,0,0,1.565-1.426l-.032.021a117.912,117.912,0,0,0-2.131-14.82c0-.015.006-.028.006-.043.01-2.124.278-9.092.292-11.34s.979-9.694,1.066-11.744.518-8.07-.954-11.773a6.586,6.586,0,0,0-.274-.6c-.032-.06-.064-.111-.1-.167-.066-.116-.133-.23-.2-.332-.04-.059-.082-.11-.123-.164-.065-.085-.13-.168-.2-.242-.044-.048-.088-.093-.132-.137a2.673,2.673,0,0,0-.2-.182c-.045-.037-.091-.074-.137-.106a2.363,2.363,0,0,0-.2-.126c-.049-.028-.1-.057-.148-.08a2.253,2.253,0,0,0-.228-.086c-.04-.013-.08-.03-.12-.041a2.057,2.057,0,0,0-.355-.062Zm-30.712,3.2a2.045,2.045,0,0,0-.434.063c-.043.011-.085.026-.127.04a2.194,2.194,0,0,0-.284.11c-.043.02-.086.042-.127.065a2.551,2.551,0,0,0-.273.17c-.029.021-.059.041-.087.062a3.214,3.214,0,0,0-.33.292,3.594,3.594,0,0,0-.281.333c-.029.039-.054.08-.082.119-.055.08-.107.16-.156.243-.026.046-.052.091-.076.137-.043.082-.083.166-.119.249-.019.043-.039.085-.056.128a3.271,3.271,0,0,0-.124.373,2.119,2.119,0,0,0-.051.343c0,.057-.006.121-.008.184s0,.124,0,.189c0,.259.025.55.062.874v0c.857-1.278,2.6-2.12,4.5.251,2.4,2.995,3.714,8.661,4.214,10.573s1.718,9.04,2.342,11.115c.366,1.219,1.1,3.918,1.776,6.372.572-.223,2.373-.853,2.957-1.057l-.177-1.259,0,.043c-.606.211-1.2.439-1.8.671-.7-2.547-1.463-5.349-1.844-6.614-.647-2.153-1.913-9.553-2.432-11.538s-1.876-7.867-4.373-10.976c-.141-.176-.282-.33-.421-.473-.038-.039-.076-.075-.115-.113-.107-.1-.215-.2-.32-.285-.036-.029-.072-.059-.107-.086a3.508,3.508,0,0,0-.4-.27,2.717,2.717,0,0,0-.39-.179c-.039-.015-.077-.026-.116-.039a2.334,2.334,0,0,0-.273-.071c-.038-.008-.077-.016-.115-.021a2.132,2.132,0,0,0-.356-.024Zm-12.491,17.507a2.243,2.243,0,0,0-.391.031c-.035.006-.069.014-.1.021a2.092,2.092,0,0,0-.259.072c-.034.012-.069.022-.1.036a2.111,2.111,0,0,0-.305.151,2.189,2.189,0,0,0-.263.2c-.034.029-.066.059-.1.089s-.075.075-.111.115a2.679,2.679,0,0,0-.31.4v0a3.1,3.1,0,0,0-.227.455c-.017.04-.033.08-.048.12a3.67,3.67,0,0,0-.147.478,3.827,3.827,0,0,0-.072.492c0,.038-.007.075-.009.112a3.292,3.292,0,0,0,0,.466,2.035,2.035,0,0,0,.057.3c.024.093.054.19.088.293.463-1.4,1.821-2.55,4.271-1.02,3.258,2.035,6.362,6.955,7.465,8.6.852,1.268,3.127,5.312,4.709,7.9.246-.179,1.346-.791,1.605-.966l-.2-.987q-.382.259-.746.524c-1.643-2.691-4-6.89-4.889-8.206-1.145-1.7-4.367-6.811-7.75-8.924a5.662,5.662,0,0,0-1.176-.572,3.2,3.2,0,0,0-.994-.181Zm59.525,11.217a3.387,3.387,0,0,0-.58.009c-.068.006-.136.023-.2.033-.121.019-.242.037-.36.068-.089.023-.177.054-.264.083s-.187.061-.279.1-.2.092-.3.141c-.072.035-.144.069-.215.108-.112.062-.222.129-.331.2-.056.035-.11.071-.165.108q-.177.122-.347.257c-.042.032-.083.065-.125.1q-.186.153-.364.32l-.057.056c-.132.126-.262.256-.386.391l0,.005c1.451-.615,3.1-.411,4.648,1.49,1.029,1.468-1.324,3.949-1.986,5.561a33.306,33.306,0,0,0-1.974,8.838c-.91,7.652-1.056,10.584-5.58,15.885-6.969,8.148-5.19,10.734-9.738,13.185a19.489,19.489,0,0,0,2.685-1.113c.238-.124.458-.25.666-.379l.1-.061c.176-.112.337-.226.487-.341.039-.03.078-.06.115-.089a4.52,4.52,0,0,0,.353-.319c.042-.041.087-.082.125-.123a2.945,2.945,0,0,0,.247-.314c.034-.048.075-.1.1-.145.01-.016.017-.033.026-.049a1.953,1.953,0,0,0,.174-.39c.192-.786.363-1.587.52-2.4a78.241,78.241,0,0,1,6.189-7.916c4.7-5.5,4.847-8.545,5.792-16.49a34.6,34.6,0,0,1,2.051-9.174c.687-1.672,3.128-4.248,2.061-5.772a7.1,7.1,0,0,0-.554-.6c-.035-.034-.07-.07-.106-.1a5.3,5.3,0,0,0-.542-.446c-.027-.019-.054-.034-.081-.052a4.306,4.306,0,0,0-.5-.292c-.032-.016-.064-.035-.1-.05a3.635,3.635,0,0,0-.531-.194c-.043-.012-.085-.022-.127-.032a3.408,3.408,0,0,0-.54-.091Z" transform="translate(-2819.404 -1577.015)" fill="#c8effd" fill-rule="evenodd"/><g transform="translate(149.673 111.487)"><path d="M3167.426,1981.887a162.514,162.514,0,0,0-22.925,1.479,3.42,3.42,0,0,0-.454-.005,9.977,9.977,0,0,0-2.6.719,12.707,12.707,0,0,0-3.354,1.25c-1.123.8-1.979,1.953-3.246,2.568-.574.279-1.78.816-3.1,1.408-4.464,1.341-10.776.757-14.429,2.733a14.25,14.25,0,0,0-5.909,3.634c-16.664,13.017-20.8,77.942-22.553,96.5-.818,8.649-6.252,33.8-.739,41.277,6.952,9.424,21.034,11.312,32.625,11.677.007.134.009.284.021.4h93.335c.011-.12.013-.27.021-.4,11.591-.365,25.673-2.253,32.625-11.677,5.513-7.473.079-32.628-.739-41.277-1.755-18.561-5.89-83.485-22.555-96.5a14.251,14.251,0,0,0-5.908-3.634c-3.654-1.976-9.968-1.39-14.432-2.733-1.318-.592-2.521-1.129-3.1-1.408-1.266-.615-2.123-1.766-3.246-2.568a12.71,12.71,0,0,0-3.353-1.25,9.975,9.975,0,0,0-2.605-.719,3.312,3.312,0,0,0-.454.005A162.522,162.522,0,0,0,3167.426,1981.887Z" transform="translate(-3085.672 -1865.792)" fill="#d6d3fc" fill-rule="evenodd"/><path d="M3166.772,1930.246c-1.827,19.168-3.209,29.5-23.747,36.339-4.478,1.492-11.047.812-14.8,2.842-6.929,2.226-9.437,8.216-12.28,14.368-12.01,26-1.064,53.358,6,78.993,3.68,13.351,7.111,26.756,10.915,40.065.877,3.07-1.6,15.887-1.192,20.068H3225c.41-4.18-2.071-17-1.193-20.068,3.8-13.309,7.237-26.714,10.916-40.065,7.065-25.635,18.009-53,6-78.993-2.842-6.152-5.351-12.142-12.279-14.368-3.755-2.03-10.323-1.35-14.8-2.842-20.537-6.843-21.921-17.171-23.748-36.339h-23.126Z" transform="translate(-3096.583 -1843.179)" fill="#e0abff" fill-rule="evenodd"/><path d="M3178.336,1981.887a162.514,162.514,0,0,0-22.925,1.479c-.106-.008-.211-.005-.315,0a43.864,43.864,0,0,1-12.069,5.835c-.121.04-.249.073-.373.11-2.738.823-6.168.925-9.258,1.332l-.019,0h0q-.447.059-.881.128l-.089.014c-.3.048-.588.1-.875.16l-.042.007c-.2.041-.4.087-.591.133-.112.026-.227.051-.338.08-.206.053-.406.113-.6.174-.066.02-.135.037-.2.058l-.007,0c-.194.064-.378.136-.563.208-.078.031-.161.057-.238.09l-.007,0c-.249.1-.487.217-.716.341-.379.122-.739.259-1.092.4-.12.049-.238.1-.355.152-.246.107-.485.221-.719.34-.11.055-.221.108-.328.165-.284.153-.558.314-.825.482-.159.1-.312.207-.465.313q-.188.13-.372.264c-.165.122-.33.245-.489.373-.052.042-.1.085-.152.127-.384.319-.751.653-1.1,1a.079.079,0,0,1-.012.012c-2.834,2.867-4.537,6.764-6.371,10.734-12.01,26-1.064,53.358,6,78.994,3.68,13.35,7.111,26.755,10.915,40.064.852,2.982-1.455,15.138-1.213,19.664.007.133.009.283.021.4H3225c.012-.12.014-.27.021-.4.242-4.527-2.066-16.682-1.214-19.664,3.8-13.309,7.237-26.714,10.916-40.064,7.065-25.636,18.009-53,6-78.994-1.834-3.97-3.537-7.867-6.371-10.734l-.012-.012q-.522-.526-1.1-1c-.051-.042-.1-.085-.152-.127-.159-.128-.323-.251-.489-.373q-.183-.135-.372-.264c-.154-.106-.306-.212-.465-.312-.267-.168-.541-.329-.825-.482-.107-.057-.219-.11-.328-.165-.235-.119-.473-.233-.719-.34-.117-.052-.235-.1-.355-.152-.353-.144-.713-.281-1.091-.4-.231-.125-.473-.238-.724-.343-.076-.033-.16-.059-.238-.089-.185-.073-.37-.145-.564-.208-.038-.013-.079-.023-.118-.035-.233-.074-.468-.144-.712-.207-.072-.019-.147-.033-.22-.051-.224-.054-.45-.107-.682-.154l-.1-.019c-.269-.053-.541-.1-.817-.148l-.126-.019c-.278-.044-.557-.085-.841-.123l-.12-.013c-1.794-.233-3.694-.37-5.51-.6l-.037,0h0a26.45,26.45,0,0,1-2.762-.486q-.432-.1-.844-.227l-.014,0h0c-.122-.037-.248-.069-.366-.109a43.852,43.852,0,0,1-12.069-5.835c-.1,0-.21,0-.315,0a162.535,162.535,0,0,0-22.927-1.479Z" transform="translate(-3096.583 -1865.792)" fill="#e0abff" fill-rule="evenodd"/><path d="M3178.358,2009.758a162.507,162.507,0,0,0-22.925,1.479,3.135,3.135,0,0,0-.454,0,9.929,9.929,0,0,0-2.6.719,12.705,12.705,0,0,0-3.354,1.25c-1.123.8-1.979,1.953-3.246,2.568-.574.279-1.78.816-3.1,1.408-4.464,1.341-10.776.757-14.429,2.732a14.254,14.254,0,0,0-5.909,3.634c-4.9,3.827-8.709,12.158-11.7,22.462.443,17.362,6.713,34.848,11.33,51.6,3.68,13.35,7.111,26.755,10.915,40.064.347,1.213.164,3.961-.15,7.078,6.637-2.887,15.574-7.91,23.128-12.25,5.893-3.385,14.883-3.861,22.5-3.667,7.614-.194,16.6.282,22.5,3.667,7.554,4.34,16.491,9.362,23.129,12.25-.315-3.117-.5-5.865-.151-7.078,3.8-13.309,7.236-26.714,10.916-40.064,4.617-16.751,10.886-34.239,11.328-51.6-2.991-10.3-6.8-18.632-11.7-22.459a14.256,14.256,0,0,0-5.908-3.634c-3.654-1.976-9.968-1.39-14.432-2.732-1.318-.593-2.521-1.129-3.095-1.408-1.266-.615-2.123-1.766-3.246-2.568a12.7,12.7,0,0,0-3.353-1.25,9.93,9.93,0,0,0-2.605-.719,3.127,3.127,0,0,0-.454,0A162.523,162.523,0,0,0,3178.358,2009.758Z" transform="translate(-3096.605 -1877.996)" fill="#ba68ea" fill-rule="evenodd"/><path d="M3205.213,1775.352a33.153,33.153,0,0,1,33.247,33.2v27.537a33.247,33.247,0,0,1-66.494,0v-27.537a33.153,33.153,0,0,1,33.247-33.2Z" transform="translate(-3123.46 -1775.352)" fill="#e0abff"/><path d="M3167.426,1981.887a162.514,162.514,0,0,0-22.925,1.479,3.42,3.42,0,0,0-.454-.005,9.977,9.977,0,0,0-2.6.719,12.707,12.707,0,0,0-3.354,1.25c-1.123.8-1.979,1.953-3.246,2.568-.574.279-1.78.816-3.1,1.408-4.464,1.341-10.776.757-14.429,2.733a14.25,14.25,0,0,0-5.909,3.634c-16.664,13.017-20.8,77.942-22.553,96.5-.818,8.649-6.252,33.8-.739,41.277a22.467,22.467,0,0,0,7.131,6.174c-15.177-17.339,14.324-17.452,26.443-22.7,6.649-2.88,15.646-7.938,23.24-12.3,5.893-3.384,14.883-3.861,22.5-3.666,7.614-.2,16.605.282,22.5,3.666,7.595,4.363,16.592,9.421,23.24,12.3,12.12,5.249,41.622,5.361,26.442,22.7a22.457,22.457,0,0,0,7.134-6.176c5.513-7.473.079-32.628-.739-41.277-1.755-18.561-5.89-83.485-22.555-96.5a14.251,14.251,0,0,0-5.908-3.634c-3.654-1.976-9.968-1.39-14.432-2.733-1.318-.592-2.521-1.129-3.1-1.408-1.266-.615-2.123-1.766-3.246-2.568a12.71,12.71,0,0,0-3.353-1.25,9.975,9.975,0,0,0-2.605-.719,3.312,3.312,0,0,0-.454.005A162.522,162.522,0,0,0,3167.426,1981.887Z" transform="translate(-3085.672 -1865.792)" fill="#fff" fill-rule="evenodd"/><path d="M3168.522,1981.887a162.516,162.516,0,0,0-22.925,1.479,3.42,3.42,0,0,0-.454-.005,9.975,9.975,0,0,0-2.6.719,12.715,12.715,0,0,0-3.354,1.25c-1.123.8-1.979,1.953-3.246,2.568-.574.279-1.78.816-3.1,1.408-4.464,1.341-10.776.757-14.429,2.733a14.25,14.25,0,0,0-5.909,3.634c-8.772,6.852-14.056,28.056-17.36,49.32,0-.014,0-.029,0-.043-.046.3-.089.6-.134.894-.085.56-.169,1.117-.252,1.677q-.313,2.114-.6,4.212c-.045.331-.095.663-.139.993-.231,1.7-.444,3.385-.651,5.056-.051.409-.1.812-.15,1.219-.121,1-.231,1.973-.345,2.957-.181,1.565-.352,3.1-.515,4.61-.08.743-.161,1.481-.237,2.21-.208,2.012-.406,3.98-.585,5.856-.006.064-.014.136-.02.2-.005.128-.007.249-.013.376l-.024,0c-.438,4.609-.768,8.35-1.063,11.744q.383-.172.761-.361-.048,2.78-.061,5.493-.609.55-1.269,1.042c-.332,2.908-1.016,7.212-1.665,11.962,1.031.009,2.058-.037,3.076-.125.229,8.245.707,16.1,1.431,23.771,1.778-3.564,7.414-5.578,13.651-7.221q-.779-3.152-1.5-6.3c7.82-1.186,15.274-6.919,18.152-18.618a28.1,28.1,0,0,0,6.352,17.2c2.852-1.451,5.855-3.07,8.85-4.735a35.291,35.291,0,0,1-1.435-11.008,31.448,31.448,0,0,0,4.63,9.213c1.575-.891,3.15-1.785,4.645-2.643,5.892-3.385,14.883-3.862,22.5-3.667,7.614-.2,16.605.282,22.5,3.667,1.495.858,3.07,1.752,4.645,2.643a31.454,31.454,0,0,0,4.629-9.213,35.262,35.262,0,0,1-1.435,11.008c3,1.665,6,3.283,8.851,4.735a28.1,28.1,0,0,0,6.351-17.2c2.879,11.7,10.333,17.431,18.153,18.618q-.729,3.151-1.5,6.3c6.238,1.644,11.875,3.657,13.651,7.224.724-7.669,1.2-15.528,1.431-23.774,1.018.088,2.045.134,3.076.125-.649-4.749-1.334-9.052-1.666-11.96-.44-.327-.863-.676-1.269-1.042q-.012-2.711-.061-5.494.378.189.761.361c-.295-3.394-.625-7.134-1.063-11.744l-.024-.005c0-.124-.007-.242-.012-.366-.006-.067-.015-.142-.021-.209h0c-.183-1.915-.385-3.926-.6-5.982-.064-.616-.133-1.24-.2-1.866-.176-1.638-.362-3.3-.558-5-.1-.892-.2-1.773-.314-2.678-.053-.439-.105-.874-.16-1.315q-.313-2.525-.657-5.1c-.04-.3-.085-.6-.126-.9q-.286-2.086-.6-4.187c-.091-.613-.182-1.222-.276-1.835-.042-.275-.081-.548-.124-.823,0,.013,0,.026,0,.04-3.3-21.264-8.59-42.469-17.362-49.321a14.25,14.25,0,0,0-5.909-3.634c-3.654-1.976-9.967-1.391-14.431-2.733-1.318-.593-2.521-1.129-3.095-1.408-1.267-.615-2.123-1.766-3.246-2.568a12.715,12.715,0,0,0-3.353-1.25,9.958,9.958,0,0,0-2.605-.719,3.311,3.311,0,0,0-.454.005,162.538,162.538,0,0,0-22.926-1.479Zm-62.6,116.757a15.582,15.582,0,0,1-2.422,10.64c-.545-2.511-1.073-5.021-1.569-7.523A18.275,18.275,0,0,0,3105.924,2098.644Zm125.195,0a18.277,18.277,0,0,0,3.993,3.117q-.745,3.755-1.57,7.525A15.586,15.586,0,0,1,3231.119,2098.644Zm12.527,36.9a23.418,23.418,0,0,1-2.945,4.08,25.576,25.576,0,0,0,2.667-1.738C3243.461,2137.111,3243.557,2136.331,3243.646,2135.549Zm-150.248,0c.089.781.185,1.56.278,2.339a25.63,25.63,0,0,0,2.665,1.738A23.465,23.465,0,0,1,3093.4,2135.551Z" transform="translate(-3086.769 -1865.792)" fill="#e8e8fd" fill-rule="evenodd"/></g><g transform="translate(181.4 102.701)"><path d="M3199.319,1759.721c-22.311,0-40.177,20.1-40.812,44.74h5.1c.625-22.2,16.523-39.639,35.711-39.639s35.083,17.443,35.709,39.639h5.107C3239.5,1779.817,3221.629,1759.721,3199.319,1759.721Z" transform="translate(-3149.293 -1759.721)" fill="#2d4997"/><path d="M3199.319,1764.485c-17.042,0-31.6,13.364-36.1,31.87a15.249,15.249,0,0,0-3.1.986v-2.3a51.406,51.406,0,0,0-1.607,11.51h5.1c.017-.622.051-1.239.092-1.853.009-.143.02-.285.031-.427q.059-.767.142-1.526c.03-.269.063-.537.1-.8q.067-.529.145-1.053c.042-.274.084-.548.13-.82.049-.294.1-.586.16-.878q.144-.76.312-1.511c.038-.17.076-.34.116-.508.085-.36.171-.719.264-1.075l0-.005c4.436-16.976,18.175-29.178,34.221-29.178s29.779,12.2,34.217,29.171c.1.371.187.745.275,1.12.031.134.062.269.092.4q.184.812.338,1.639c.05.266.1.533.146.8.049.289.093.579.137.87q.075.506.139,1.015c.034.265.068.531.1.8q.082.748.14,1.505c.013.161.024.321.035.483.041.608.075,1.218.093,1.833h5.107a51.444,51.444,0,0,0-1.605-11.5v2.289a15.239,15.239,0,0,0-3.111-.987c-4.5-18.5-19.061-31.863-36.1-31.863Z" transform="translate(-3149.293 -1761.807)" fill="#243c7f"/><path d="M3236.654,1793.958l-2.913,5.041q.3.541.577,1.092l2.961-5.122Q3236.973,1794.458,3236.654,1793.958Zm-66.349,0q-.319.5-.625,1.01l2.96,5.119c.188-.368.379-.733.577-1.093Zm68.069,2.936-3.052,5.281c.177.4.343.8.508,1.21l3.122-5.4C3238.766,1797.621,3238.569,1797.259,3238.374,1796.9Zm-69.79,0c-.2.363-.391.724-.577,1.093l3.119,5.395c.166-.406.333-.812.51-1.21Z" transform="translate(-3153.453 -1774.713)" fill="#e0abff"/><path d="M3199.319,1759.721c-22.311,0-40.177,20.1-40.812,44.74h.092c1.487-23.758,18.992-43.232,40.72-43.232s39.237,19.474,40.724,43.232h.092C3239.5,1779.817,3221.629,1759.721,3199.319,1759.721Z" transform="translate(-3149.293 -1759.721)" fill="#c8effd"/><g transform="translate(0 28.989)"><path d="M3157.4,1811.293h.044a1.509,1.509,0,0,1,1.513,1.511v12.409a1.509,1.509,0,0,1-1.513,1.511h-.044a1.509,1.509,0,0,1-1.513-1.511V1812.8A1.509,1.509,0,0,1,3157.4,1811.293Z" transform="translate(-3148.147 -1811.293)" fill="#fff"/><path d="M3157.487,1811.3v9.826a16.525,16.525,0,0,0-1.6,1.039v3.051a1.509,1.509,0,0,0,1.514,1.51h.043c.014,0,.027,0,.04,0l.014,0a1.476,1.476,0,0,0,.284-.036,1.564,1.564,0,0,0,.276-.089l0,0c.007,0,.014-.009.021-.012a1.478,1.478,0,0,0,.228-.127h0c.006,0,.01-.01.016-.014a1.576,1.576,0,0,0,.2-.17s.006-.009.01-.012a1.483,1.483,0,0,0,.167-.206l0,0a1.477,1.477,0,0,0,.132-.244v0a1.5,1.5,0,0,0,.07-.225c0-.019.012-.036.016-.055h0a1.485,1.485,0,0,0,.032-.3v-12.409a1.507,1.507,0,0,0-1.474-1.508Z" transform="translate(-3148.147 -1811.296)" fill="#d6e8fd"/><path d="M3159.01,1829.571c-9.336.02-16.9,8.655-16.9,19.3s7.577,19.3,16.924,19.3c3.788,0,3.615-38.6-.029-38.6Z" transform="translate(-3142.115 -1819.297)" fill="#fff"/><path d="M3159.254,1829.572a14.964,14.964,0,0,0-4.431.682c.476,4.528.795,14.059-.534,15.407-1.035,1.608-6.511,4.755-11.618,6.9,1.512,8.892,8.373,15.607,16.612,15.608,3.788,0,3.615-38.6-.029-38.6Z" transform="translate(-3142.358 -1819.297)" fill="#d6e8fd" fill-rule="evenodd"/><path d="M3148.985,1836.289a20.977,20.977,0,0,0,0,31.05c2.25-3.185,3.638-9.109,3.638-15.525S3151.235,1839.475,3148.985,1836.289Z" transform="translate(-3142.115 -1822.239)" fill="#e0abff"/><path d="M3152.83,1860.679a53.016,53.016,0,0,1-10.157,5.509c.033.193.071.385.109.576.017.084.03.168.048.251.034.164.074.325.112.487s.073.307.113.459c.045.175.093.349.142.521.038.133.078.264.118.4.055.179.109.357.168.534.025.075.055.149.081.224.065.187.129.374.2.558.057.149.119.3.179.444q.079.194.162.385c.2.46.41.912.64,1.351l.011.021c.221.422.462.829.709,1.229.046.075.091.149.138.223.26.406.531.8.816,1.185l.008.01c.276.368.567.719.866,1.062.1.117.2.234.309.349.075.082.15.164.227.244.205.215.412.427.626.63v0c.019.018.04.034.059.052q.315.3.644.576l.073.061c2.249-3.187,3.636-9.109,3.636-15.522q0-.909-.037-1.815Z" transform="translate(-3142.359 -1832.919)" fill="#bb77df" fill-rule="evenodd"/><path d="M3147.3,1839.184a21.212,21.212,0,0,0,0,27.8c2.034-2.505,3.337-7.929,3.337-13.9S3149.336,1841.689,3147.3,1839.184Z" transform="translate(-3142.115 -1823.506)" fill="#c8effd"/><path d="M3150.881,1863.02a61.6,61.6,0,0,1-8.2,4.192c0,.026.008.052.012.078.032.184.067.366.1.549.023.119.049.237.075.355q.056.256.117.51c.03.121.062.243.094.363.044.169.089.338.137.506.029.1.061.2.092.3.057.186.113.371.174.554.015.043.031.085.045.128.118.341.245.677.378,1.009.057.14.112.281.172.42.185.432.387.852.6,1.265.047.092.094.185.144.277q.313.589.664,1.151c.052.083.105.165.158.247.241.374.489.74.751,1.093l.015.02c.03.041.063.078.093.118.239.314.488.616.743.911.1.115.2.232.3.344l.007.007c2.034-2.505,3.337-7.93,3.337-13.9q0-.25,0-.5Z" transform="translate(-3142.361 -1833.944)" fill="#abd2fc"/><path d="M3142.423,1857.4a21.906,21.906,0,0,0,0,7.316h3.671a1.724,1.724,0,0,0,1.729-1.727v-3.862a1.725,1.725,0,0,0-1.729-1.728Z" transform="translate(-3142.115 -1831.482)" fill="#e0abff"/><path d="M3170.961,1829.572a14.911,14.911,0,0,0-1.554.088c2.485,5.876,2.592,32.572.057,38.431a15.023,15.023,0,0,0,1.526.083C3174.778,1868.174,3174.605,1829.572,3170.961,1829.572Z" transform="translate(-3154.066 -1819.297)" fill="#aecafc"/><path d="M3148.131,1865.9c-1.676.895-3.512,1.777-5.312,2.539h3.583a1.724,1.724,0,0,0,1.729-1.727Z" transform="translate(-3142.423 -1835.204)" fill="#bb77df"/></g><g transform="translate(80.356 28.989)"><path d="M3302.431,1811.293h-.044a1.509,1.509,0,0,0-1.513,1.511v12.409a1.509,1.509,0,0,0,1.513,1.511h.044a1.509,1.509,0,0,0,1.513-1.511V1812.8A1.509,1.509,0,0,0,3302.431,1811.293Z" transform="translate(-3291.99 -1811.293)" fill="#fff"/><path d="M3302.346,1811.3v9.826a16.439,16.439,0,0,1,1.6,1.039v3.051a1.508,1.508,0,0,1-1.513,1.51h-.044c-.013,0-.026,0-.04,0l-.013,0a1.484,1.484,0,0,1-.285-.036,1.568,1.568,0,0,1-.275-.089l0,0c-.008,0-.014-.009-.021-.012a1.488,1.488,0,0,1-.229-.127h0l-.016-.014a1.466,1.466,0,0,1-.2-.17s-.006-.009-.01-.012a1.5,1.5,0,0,1-.167-.206l0,0a1.513,1.513,0,0,1-.132-.244v0a1.5,1.5,0,0,1-.07-.225c0-.019-.012-.036-.017-.055h0a1.52,1.52,0,0,1-.031-.3v-12.409a1.507,1.507,0,0,1,1.473-1.508Z" transform="translate(-3291.99 -1811.296)" fill="#d6e8fd"/><path d="M3287.871,1829.571c9.336.02,16.9,8.655,16.9,19.3s-7.577,19.3-16.924,19.3c-3.788,0-3.616-38.6.029-38.6Z" transform="translate(-3285.069 -1819.297)" fill="#fff"/><path d="M3287.871,1829.572a14.97,14.97,0,0,1,4.432.682c-.476,4.528-.8,14.059.533,15.407,1.035,1.608,6.512,4.755,11.618,6.9-1.511,8.892-8.373,15.607-16.612,15.608-3.787,0-3.615-38.6.029-38.6Z" transform="translate(-3285.069 -1819.297)" fill="#d6e8fd" fill-rule="evenodd"/><path d="M3305.055,1836.289a20.977,20.977,0,0,1,0,31.05c-2.25-3.185-3.639-9.109-3.639-15.525S3302.805,1839.475,3305.055,1836.289Z" transform="translate(-3292.227 -1822.239)" fill="#e0abff"/><path d="M3301.454,1860.679a53.033,53.033,0,0,0,10.157,5.509c-.032.193-.071.385-.108.576-.016.084-.03.168-.047.251-.034.164-.074.325-.112.487s-.072.307-.112.459q-.068.263-.142.521c-.038.133-.078.264-.119.4-.055.179-.109.357-.168.534-.026.075-.055.149-.081.224-.065.187-.129.374-.2.558-.057.149-.119.3-.18.444-.052.129-.107.257-.162.385-.2.46-.41.912-.639,1.351l-.011.021c-.221.422-.461.829-.709,1.229-.046.075-.092.149-.138.223-.26.406-.531.8-.817,1.185l-.007.01c-.276.368-.567.719-.866,1.062-.1.117-.2.234-.309.349-.075.082-.151.164-.227.244-.2.215-.412.427-.626.63v0c-.019.018-.04.034-.059.052q-.315.3-.643.576l-.074.061c-2.249-3.187-3.636-9.109-3.636-15.522q0-.909.038-1.815Z" transform="translate(-3292.227 -1832.919)" fill="#bb77df" fill-rule="evenodd"/><path d="M3308.284,1839.184a21.211,21.211,0,0,1,0,27.8c-2.034-2.505-3.337-7.929-3.337-13.9S3306.25,1841.689,3308.284,1839.184Z" transform="translate(-3293.773 -1823.506)" fill="#c8effd"/><path d="M3304.95,1863.02a61.616,61.616,0,0,0,8.205,4.192c0,.026-.008.052-.012.078-.032.184-.067.366-.1.549-.024.119-.05.237-.075.355q-.056.256-.117.51c-.03.121-.062.243-.094.363-.044.169-.089.338-.137.506-.029.1-.062.2-.092.3-.057.186-.113.371-.175.554-.015.043-.03.085-.045.128-.117.341-.244.677-.378,1.009-.056.14-.112.281-.172.42-.185.432-.386.852-.6,1.265-.047.092-.094.185-.143.277q-.315.589-.664,1.151c-.052.083-.106.165-.159.247-.24.374-.488.74-.751,1.093l-.015.02c-.03.041-.063.078-.094.118-.238.314-.488.616-.743.911-.1.115-.2.232-.3.344l-.008.007c-2.034-2.505-3.337-7.93-3.337-13.9,0-.167,0-.333,0-.5Z" transform="translate(-3293.773 -1833.944)" fill="#abd2fc"/><path d="M3315.356,1857.4a21.871,21.871,0,0,1,0,7.316h-3.671a1.724,1.724,0,0,1-1.729-1.727v-3.862a1.725,1.725,0,0,1,1.729-1.728Z" transform="translate(-3295.967 -1831.482)" fill="#e0abff"/><path d="M3287.871,1829.572a14.929,14.929,0,0,1,1.555.088c-2.486,5.876-2.592,32.572-.057,38.431a15.034,15.034,0,0,1-1.526.083C3284.054,1868.174,3284.227,1829.572,3287.871,1829.572Z" transform="translate(-3285.069 -1819.297)" fill="#aecafc"/><path d="M3309.956,1865.9c1.676.895,3.512,1.777,5.313,2.539h-3.584a1.724,1.724,0,0,1-1.729-1.727Z" transform="translate(-3295.967 -1835.204)" fill="#bb77df"/></g><path d="M3173.691,1799.61c-.2.355-.394.716-.585,1.078l1.085,1.878c.188-.368.379-.733.577-1.093Zm62.677,0-1.075,1.862q.3.541.577,1.092l1.085-1.876C3236.763,1800.327,3236.569,1799.966,3236.369,1799.611Zm-64.285,3.13c-.181.388-.361.777-.532,1.171l1.127,1.95c.1-.237.2-.47.3-.7.072-.167.139-.339.213-.505Zm65.895,0-1.1,1.911c.177.4.342.8.508,1.21l1.128-1.951C3238.339,1803.518,3238.16,1803.129,3237.978,1802.742Z" transform="translate(-3155.005 -1777.188)" fill="#bb77df"/></g><g transform="translate(88.318 378.974)"><path d="M3170.066,2286.046c-18.391.078-37.175,1.686-54.463,7.267-6.989,1.158-6.531,3.247-5.382,8.458-4.739,8.8-8.063,18.369-11.209,27.844-10.512,31.656-8.991,44.92.138,76.577h141.831c9.129-31.656,10.65-44.921.139-76.577-3.147-9.475-6.47-19.047-11.209-27.844,1.149-5.211,1.607-7.3-5.383-8.458C3207.241,2287.732,3188.456,2286.123,3170.066,2286.046Z" transform="translate(-3026.958 -2266.467)" fill="#fff" fill-rule="evenodd"/><path d="M3188.9,2251.214c-20,0-34.564.461-44.552,2.884-10.744,2.665-5.964,5.192-7.55,12.958-.607,2.974-3.457,4.463-1.268,7.147,1.094,2.354,28.324-2.369,53.369-2.369s52.275,4.723,53.37,2.369c2.189-2.684-.66-4.173-1.268-7.147-1.586-7.767,3.195-10.293-7.55-12.958C3223.467,2251.675,3208.9,2251.214,3188.9,2251.214Z" transform="translate(-3045.794 -2251.214)" fill="#5389cf" fill-rule="evenodd"/><path d="M3186.362,2257.344c-21.2,0-36.644.488-47.234,3.058-11.391,2.825-6.323,5.5-8,13.738-.644,3.153-3.665,4.732-1.344,7.577,1.16,2.5,30.03-2.512,56.582-2.512s55.422,5.007,56.582,2.512c2.322-2.845-.7-4.424-1.343-7.577-1.681-8.235,3.387-10.913-8-13.738C3223.006,2257.833,3207.563,2257.344,3186.362,2257.344Z" transform="translate(-3043.254 -2253.899)" fill="#fff" fill-rule="evenodd"/><path d="M3186.368,2295.573c-18.391.026-37.175.555-54.463,2.393-1.2.066-2.174.142-2.97.229-.035.223.181.458.851.729,1.16.822,30.029-.827,56.582-.827s55.422,1.649,56.582.827c.671-.271.888-.506.853-.729-.8-.088-1.767-.164-2.972-.229-17.287-1.838-36.072-2.367-54.462-2.393Z" transform="translate(-3043.26 -2270.639)" fill="#e8e8fd" fill-rule="evenodd"/><path d="M3187,2274.553c-4.012-.022-7.957.007-11.8.1-7.689.174-14.975.567-21.577,1.192a123.049,123.049,0,0,0-21.377,3.542,18.5,18.5,0,0,1-.312,2.29,9.316,9.316,0,0,1-1.166,2.757c5.346-1.862,13.524-3.4,23.312-4.327,9.741-.922,21.106-1.334,33.092-1.267,11.985-.067,23.351.345,33.092,1.267,9.788.927,17.967,2.465,23.312,4.327a9.3,9.3,0,0,1-1.166-2.757,18.448,18.448,0,0,1-.312-2.29,123.041,123.041,0,0,0-21.378-3.542c-6.6-.625-13.887-1.018-21.576-1.192-3.845-.088-7.79-.118-11.8-.1l-.169,0Z" transform="translate(-3044.065 -2261.431)" fill="#e8e8fd" fill-rule="evenodd"/><path d="M3148.319,2296.573c-.2,1.6,4.377,7.262,5.289,8.448,9.526,12.394,25.666,19.048,41.247,19.773,15.581-.725,31.721-7.379,41.246-19.773.912-1.187,5.489-6.85,5.289-8.448-14.948,9.825-27.5,15.727-46.535,16.924-19.036-1.2-31.588-7.1-46.536-16.924Z" transform="translate(-3051.747 -2271.076)" fill="#d6d3fc" fill-rule="evenodd"/><path d="M3187.622,2271.64c-3.938-.021-7.81.008-11.583.1-7.547.174-14.7.567-21.177,1.192-8.731.842-16.2,2.031-21.933,3.816a19.08,19.08,0,0,1-.377,3.653,6.649,6.649,0,0,1-.375,1.2c5.239-1.9,13.38-3.469,23.134-4.41,9.56-.923,20.716-1.334,32.48-1.268,11.763-.066,22.919.345,32.48,1.268,9.754.94,17.895,2.511,23.134,4.411a6.553,6.553,0,0,1-.376-1.2,19.077,19.077,0,0,1-.377-3.653c-5.736-1.784-13.2-2.974-21.934-3.816-6.48-.625-13.631-1.018-21.177-1.192-3.773-.088-7.645-.118-11.583-.1l-.167,0Z" transform="translate(-3044.681 -2260.155)" fill="#69add1" fill-rule="evenodd"/><path d="M3147.6,2275.417c-1.6.214-3.156.442-4.64.692v2.867a81.03,81.03,0,0,0-10.3,2.4c-.037.222-.071.443-.118.674a6.649,6.649,0,0,1-.375,1.2,69.205,69.205,0,0,1,10.79-2.727q2.145-.391,4.491-.734l.148-.022c2.431-.352,5-.666,7.7-.926,9.56-.923,20.716-1.334,32.48-1.268,11.763-.066,22.919.345,32.48,1.268,2.707.261,5.272.574,7.7.926l.209.032q2.244.328,4.3.7l.127.022a69.271,69.271,0,0,1,10.792,2.728,6.553,6.553,0,0,1-.376-1.2c-.047-.23-.082-.451-.119-.672a81.029,81.029,0,0,0-10.3-2.4v-2.869c-1.483-.25-3.038-.478-4.639-.692v2.834q-3.353-.467-7.038-.828c-9.757-.941-21.141-1.362-33.146-1.293q-2.251-.013-4.472,0c-10.354.048-20.137.473-28.674,1.3q-3.688.356-7.038.828Z" transform="translate(-3044.681 -2261.812)" fill="#5389cf" fill-rule="evenodd"/><path d="M3064.083,2308.551a83.753,83.753,0,0,0-5.684,6.8,4.083,4.083,0,0,0-.374-.8,2.71,2.71,0,0,0-.714.949,5.476,5.476,0,0,0-.326,1.022,6.074,6.074,0,0,0-.256,1.183c-7.744,13.354-21.305,43.03-29.344,51.993-5.1,5.469-11.848,8.438-17.842,12.71-12.078,8.607-25.444,19.873-33.022,33.639h286.216c-7.578-13.766-20.945-25.032-33.022-33.639-5.994-4.272-12.739-7.241-17.842-12.71-8.039-8.963-21.6-38.641-29.346-51.994a.188.188,0,0,0,.066-.1,4.266,4.266,0,0,0-.517-2.486c-.058-.112-.487-.609-.479-.706a.9.9,0,0,0-1.15.392c-1.662-2.17-3.41-4.267-5.272-6.257-17.613,13.447-30.88,31.222-54.446,34.379-.368.05-.734.079-1.1.116-.367-.036-.732-.066-1.1-.116C3094.964,2339.773,3081.7,2322,3064.083,2308.551Z" transform="translate(-2976.521 -2276.321)" fill="#fff" fill-rule="evenodd"/><path d="M3089.884,2311.957q-2.066,2.368-3.96,4.888a4.083,4.083,0,0,0-.374-.8,2.71,2.71,0,0,0-.714.949,5.476,5.476,0,0,0-.326,1.022,6.074,6.074,0,0,0-.256,1.183c-7.744,13.354-21.305,43.03-29.344,51.993-4.415,4.732-10.058,7.594-15.381,11.045-.586,10.59.585,21.862,2.691,35.3h56.822c-2.129-4.074-4.012-7.61-4.7-9.205-4.361-10.14-12.836-34.1-13.22-45.006-.2-5.718.814-11.745,1.885-17.63.646,10.221,1.789,20.177,5.545,26.918,6.47,11.612,23.856,21.42,34.241,29.251-11.859-11.228-16.626-17.755-21.919-25.951-8.761-14.336-8.879-27.241-11.61-43.61-.311-1.862-.863-7.39-1.66-12.6A75.176,75.176,0,0,1,3089.884,2311.957Zm114.541.005a75.157,75.157,0,0,1,2.279,7.746c-.8,5.206-1.35,10.735-1.661,12.6-2.731,16.369-2.849,29.275-11.61,43.61-5.293,8.2-10.061,14.723-21.919,25.951,10.385-7.831,27.771-17.639,34.242-29.251,3.755-6.741,4.9-16.7,5.544-26.918,1.07,5.885,2.085,11.913,1.885,17.63-.384,10.91-8.858,34.866-13.22,45.006-.686,1.6-2.569,5.132-4.7,9.205h56.821c2.105-13.442,3.277-24.714,2.691-35.3-5.324-3.452-10.967-6.313-15.381-11.045-8.039-8.963-21.6-38.641-29.346-51.994a.186.186,0,0,0,.066-.1,4.266,4.266,0,0,0-.517-2.486c-.058-.112-.487-.609-.479-.706a.9.9,0,0,0-1.15.392Q3206.265,2314.072,3204.424,2311.962Zm-131.237,59.612c4.571,8.393,7.221,30.847,6.65,40.05-.924.559-2.388-4.3-2.485-4.519C3074.052,2395.544,3073.608,2383.51,3073.187,2371.574Zm147.931,0c-.42,11.936-.864,23.97-4.165,35.531-.1.219-1.559,5.078-2.483,4.519C3213.9,2402.421,3216.548,2379.967,3221.118,2371.574Z" transform="translate(-3004.045 -2277.813)" fill="#e8e8fd" fill-rule="evenodd"/><path d="M3126.252,2308.551a83.653,83.653,0,0,0-5.684,6.8,4.1,4.1,0,0,0-.374-.8,2.716,2.716,0,0,0-.714.949,5.476,5.476,0,0,0-.326,1.022,6.1,6.1,0,0,0-.256,1.183c-.129.222-.271.484-.4.715,3.329,5.011,7.223,10.455,7.841,11.889,14.292,33.206,28.744,65.279,55.462,65.279s41.169-32.073,55.462-65.279c.617-1.434,4.512-6.877,7.84-11.888-.132-.232-.275-.495-.4-.717a.188.188,0,0,0,.066-.1,4.268,4.268,0,0,0-.517-2.486c-.058-.112-.487-.609-.479-.706a.9.9,0,0,0-1.15.392c-1.662-2.17-3.41-4.267-5.272-6.257-17.613,13.447-30.88,31.222-54.446,34.379-.368.05-.734.079-1.1.116-.367-.036-.732-.066-1.1-.116C3157.133,2339.773,3143.865,2322,3126.252,2308.551Z" transform="translate(-3038.69 -2276.321)" fill="#d6d3fc" fill-rule="evenodd"/><path d="M3054.35,2332.44c-.427.787-.872,1.623-1.32,2.465q-1.218,2.292-2.523,4.807c-.921,1.773-1.868,3.605-2.836,5.482-.982,1.906-1.969,3.8-2.979,5.756-.592,1.141-1.176,2.27-1.772,3.411-.5.948-.987,1.888-1.482,2.826q-.983,1.861-1.961,3.673l0,.007-.009.018c-4.437,8.226-8.733,15.542-12.079,19.273-.35.374-.707.735-1.071,1.086-.129.124-.26.243-.391.365-.244.228-.49.454-.739.673-.134.118-.27.233-.4.348-.268.229-.537.455-.811.675q-.174.141-.35.279-.46.361-.928.711c-.089.066-.178.133-.268.2-.583.428-1.176.84-1.774,1.245-.387.261-.777.516-1.168.771q-1.14.739-2.3,1.458l-.022.015c-2.557,1.583-5.15,3.124-7.619,4.884-12.078,8.607-25.444,19.873-33.022,33.639h64.632c-.587-12.83-1.7-28.193-1.755-33.324-.115-10.523,2.573-21.371,5.7-31.821.967-3.558,2.121-7.339,3.481-11.432.221-.667.447-1.336.67-2,.015-.049.032-.1.047-.152q2.376-7.721,5.057-15.335Zm130.559,0q2.671,7.618,5.056,15.332c.015.05.032.1.048.152.223.668.449,1.336.671,2,1.359,4.093,2.514,7.875,3.48,11.433,3.124,10.449,5.812,21.3,5.7,31.82-.056,5.132-1.168,20.5-1.755,33.324h64.632c-.345-.627-.706-1.247-1.075-1.864-.075-.126-.15-.254-.227-.38q-.535-.881-1.1-1.749c-.076-.116-.153-.231-.229-.346-.257-.389-.523-.774-.789-1.159q-.509-.737-1.04-1.464c-.19-.262-.38-.525-.574-.786q-.691-.923-1.411-1.828c-.085-.108-.167-.218-.253-.325q-.871-1.084-1.783-2.143c-.156-.182-.317-.361-.475-.542q-.7-.8-1.411-1.582-.306-.335-.617-.668-.634-.681-1.281-1.351c-.236-.244-.472-.488-.709-.729q-.724-.735-1.462-1.454c-.167-.163-.331-.329-.5-.49q-1.01-.976-2.041-1.925c-.113-.1-.227-.205-.34-.309q-.848-.776-1.708-1.534c-.231-.2-.463-.4-.694-.606q-.734-.639-1.472-1.265c-.227-.192-.454-.384-.681-.574q-.8-.669-1.6-1.321c-.167-.137-.334-.274-.5-.41q-1.078-.869-2.16-1.716h0c-.263-.2-.524-.4-.787-.6l-.214-.164-.017-.014c-1.2-.92-2.4-1.823-3.586-2.694q-1.145-.838-2.278-1.645c-1.5-1.068-3.044-2.055-4.6-3.019h0c-.857-.532-1.716-1.058-2.573-1.586l-.026-.016c-.919-.567-1.833-1.138-2.736-1.724q-.763-.5-1.513-1.009-.632-.433-1.253-.884c-.1-.075-.206-.154-.309-.23q-.464-.343-.92-.7c-.15-.117-.3-.237-.445-.356q-.379-.3-.75-.619c-.156-.132-.312-.265-.466-.4-.26-.228-.516-.461-.77-.7-.125-.117-.251-.231-.374-.35-.376-.363-.747-.735-1.108-1.121-3.456-3.854-7.935-11.555-12.53-20.12-.507-.945-1.014-1.89-1.523-2.854s-1-1.9-1.5-2.855c-.613-1.171-1.212-2.33-1.82-3.5-.849-1.64-1.68-3.237-2.51-4.848-.065-.128-.126-.245-.192-.372q-1.59-3.085-3.1-5.988-1.249-2.4-2.416-4.6c-.468-.881-.931-1.751-1.376-2.572Z" transform="translate(-2976.521 -2286.782)" fill="#fff" fill-rule="evenodd"/><path d="M3123.092,2286.325a2.527,2.527,0,0,0-1.359.367,6.3,6.3,0,0,0-2.506,3.888c-.291,1.845.416,3.765-.067,5.644-1.111,4.322-5.726,7.23-1.829,11.593.068.076.208.272.312.412l.008-.017c.364-.8.746-1.591,1.127-2.383.066-.137.128-.277.195-.413l.016-.034c-.072.148-.139.3-.211.447,3.372,4.231,8.26,9.639,8.943,10.913,13.631,25.456,27.413,50.042,52.895,50.042s39.263-24.586,52.894-50.042c.683-1.274,5.571-6.682,8.943-10.913-.072-.148-.139-.3-.211-.447.072.148.139.3.211.447.381.792.763,1.583,1.126,2.383l.009.017c.1-.14.244-.337.312-.412,3.9-4.363-.717-7.271-1.829-11.593-.483-1.878.224-3.8-.066-5.644a6.3,6.3,0,0,0-2.505-3.888,2.526,2.526,0,0,0-1.358-.367,5.657,5.657,0,0,0-2.264.6c.024.11.056.214.086.321-.009-.032-.02-.062-.029-.1l0-.01c-19.159,8.091-33.488,26.015-55.315,26.015s-36.156-17.924-55.315-26.015l0,.01c-.006.025-.015.048-.022.074.029-.1.057-.2.08-.3a5.653,5.653,0,0,0-2.262-.6Z" transform="translate(-3037.508 -2266.589)" fill="#fff" fill-rule="evenodd"/><path d="M3228.6,2261.255h1.407a1.612,1.612,0,0,1,1.617,1.615v13.043a1.612,1.612,0,0,1-1.617,1.614H3228.6a1.612,1.612,0,0,1-1.616-1.614v-13.043A1.612,1.612,0,0,1,3228.6,2261.255Z" transform="translate(-3086.197 -2255.611)" fill="#fff"/><path d="M3149.8,2266.3h1.407a1.612,1.612,0,0,1,1.617,1.615v13.043a1.612,1.612,0,0,1-1.617,1.615H3149.8a1.612,1.612,0,0,1-1.617-1.615v-13.043A1.612,1.612,0,0,1,3149.8,2266.3Z" transform="translate(-3051.689 -2257.82)" fill="#fff"/><path d="M3307.408,2266.3h1.407a1.612,1.612,0,0,1,1.616,1.615v13.043a1.612,1.612,0,0,1-1.616,1.615h-1.407a1.612,1.612,0,0,1-1.617-1.615v-13.043A1.612,1.612,0,0,1,3307.408,2266.3Z" transform="translate(-3120.705 -2257.82)" fill="#fff"/><path d="M3123.092,2286.325a2.527,2.527,0,0,0-1.359.367,6.3,6.3,0,0,0-2.506,3.888c-.291,1.845.416,3.765-.067,5.644-1.111,4.322-5.726,7.23-1.829,11.593.068.076.208.272.312.412l.008-.017c.364-.8.746-1.591,1.127-2.383.066-.137.128-.277.195-.413l.016-.034c-.072.148-.139.3-.211.447,3.372,4.231,8.26,9.639,8.943,10.913,13.631,25.456,27.413,50.042,52.895,50.042s39.263-24.586,52.894-50.042c.683-1.274,5.571-6.682,8.943-10.913-.072-.148-.139-.3-.211-.447.072.148.139.3.211.447.381.792.763,1.583,1.126,2.383l.009.017c.1-.14.244-.337.312-.412,3.9-4.363-.717-7.271-1.829-11.593-.483-1.878.224-3.8-.066-5.644a6.3,6.3,0,0,0-2.505-3.888,2.526,2.526,0,0,0-1.358-.367,5.657,5.657,0,0,0-2.264.6c.024.11.056.214.086.321-.009-.032-.02-.062-.029-.1l0-.01c-19.159,8.091-33.488,26.015-55.315,26.015s-36.156-17.924-55.315-26.015l0,.01c-.006.025-.015.048-.022.074.029-.1.057-.2.08-.3a5.653,5.653,0,0,0-2.262-.6Z" transform="translate(-3037.508 -2266.589)" fill="#fff" fill-rule="evenodd"/><path d="M3118.382,2464.571a27.073,27.073,0,0,1,.2,4.352,184.879,184.879,0,0,0,13.4,15.443h26C3141.109,2479.1,3128.356,2472.188,3118.382,2464.571Zm126.733,0c-9.973,7.616-22.725,14.531-39.6,19.794h26a184.617,184.617,0,0,0,13.4-15.441,27.018,27.018,0,0,1,.2-4.353Z" transform="translate(-3038.641 -2344.641)" fill="#e8e8fd" fill-rule="evenodd"/><path d="M3211.778,2411.611a144.066,144.066,0,0,1,7.275,49.564h7.079c2.044-10.472,3.779-23.3,3.394-28.56,12.366,5.133,23.029,13.335,32.476,23.456-.09-.131-.177-.264-.268-.395q-.509-.738-1.04-1.464c-.191-.262-.38-.525-.574-.786q-.691-.924-1.411-1.829c-.085-.108-.167-.218-.253-.325q-.871-1.085-1.783-2.143c-.156-.182-.317-.361-.475-.542q-.7-.8-1.411-1.582c-.2-.223-.41-.445-.617-.667q-.634-.681-1.281-1.351c-.236-.244-.472-.488-.709-.729q-.724-.735-1.462-1.454c-.167-.163-.331-.328-.5-.49q-1.01-.976-2.041-1.925c-.113-.1-.227-.206-.34-.309q-.848-.775-1.708-1.533c-.231-.2-.463-.4-.694-.606q-.734-.638-1.472-1.265-.341-.288-.681-.574-.8-.669-1.6-1.321c-.168-.136-.334-.274-.5-.41q-1.078-.87-2.16-1.715h0c-.263-.2-.524-.4-.787-.6l-.214-.164-.017-.014c-1.2-.92-2.4-1.823-3.586-2.694q-1.145-.837-2.278-1.644c-1.5-1.068-3.044-2.055-4.6-3.019h0c-.857-.532-1.715-1.058-2.573-1.586l-.026-.016c-.919-.566-1.833-1.138-2.736-1.724q-.763-.5-1.513-1.009-.632-.433-1.253-.884c-.1-.075-.206-.154-.309-.231q-.464-.342-.92-.7c-.15-.117-.3-.237-.445-.356q-.379-.3-.749-.619c-.156-.132-.312-.265-.466-.4-.26-.228-.516-.461-.77-.7-.125-.116-.25-.231-.374-.35-.377-.363-.747-.735-1.108-1.121a37.255,37.255,0,0,1-2.513-3.216Zm-179.466.014a37.166,37.166,0,0,1-2.508,3.2c-.349.374-.707.735-1.071,1.087-.129.124-.26.243-.39.365-.244.228-.489.454-.739.673-.134.118-.27.233-.405.349-.268.229-.537.455-.811.675-.116.094-.232.187-.35.279q-.459.361-.927.711l-.267.2c-.583.428-1.177.84-1.775,1.245-.386.261-.777.516-1.168.771q-1.14.739-2.3,1.458l-.023.015c-2.556,1.583-5.15,3.124-7.619,4.884-10.565,7.53-22.118,17.095-29.918,28.587,9.459-10.146,20.138-18.366,32.525-23.507-.384,5.256,1.351,18.087,3.395,28.56h7.079a144.088,144.088,0,0,1,7.271-49.55Z" transform="translate(-2978.939 -2321.451)" fill="#e8e8fd" fill-rule="evenodd"/><path d="M3125.862,2302.978c4.434,3.4,9.691,6.093,13.686,10.061,3.221,3.2,5.891,7.126,9.1,10.4.7.719,4.589,4.421,5.9,3.411,0-4.194-5.209-12.3-10.077-15.646-2.756-1.822-6.395-2.909-9.381-4.351s-5.957-3.25-9.229-3.878Zm118.324,0c-3.273.627-6.247,2.438-9.23,3.878s-6.625,2.529-9.38,4.351c-4.868,3.348-10.077,11.451-10.077,15.646,1.309,1.009,5.193-2.692,5.9-3.411,3.212-3.277,5.883-7.2,9.1-10.4,3.995-3.968,9.251-6.665,13.687-10.061Z" transform="translate(-3041.916 -2273.881)" fill="#e8e8fd" fill-rule="evenodd"/><path d="M3175.3,2367.825a2.261,2.261,0,0,0-.33.017c-1.819.144.709,4.5,1.136,5.194,2.893,4.582,16.64,17.34,30.139,17.34s27.246-12.758,30.139-17.34c.427-.691,2.954-5.05,1.135-5.194a1.078,1.078,0,0,0-.71.1c-12.21,7.638-20.458,10.871-30.564,11.292-10.106-.421-18.354-3.654-30.564-11.292a.787.787,0,0,0-.38-.116Z" transform="translate(-3063.134 -2302.276)" fill="#e8e8fd" fill-rule="evenodd"/></g><g transform="translate(98.589 106.689)"><path d="M3127.63,1766.815c-38.57,0-40.337,56.213-48.987,67.708a56.227,56.227,0,0,1-7.192,9.359,160.953,160.953,0,0,1-13.913,11.281c-15.115,10.7-36.659,22-35.5,43.675.71,13.257,11.518,26.667,10.374,40.178a38.016,38.016,0,0,1-6.045,9.865c.254-.036.508-.074.759-.122-4.152,9.667-20.935,15.167-32.335,7.238,2.813,7.94,19.9,13.01,26.5,7.61-1.148,19.331,21.992,26.928,33.977,14.993-2.54,13.039-17.468,16.487-29.3,13.24,8.094,10.1,29.451,12.424,39.057,2.39,1.053,6.127-2.8,13.854-8.956,16.278,10.143,2.293,22.168-2.686,26.015-18.324.522,19.44,19.243,29.869,32.266,29.869-14.427-6.183-18.663-16.5-18.5-28.411,4.195,13.694,17.964,23.37,31.772,24.3,13.807-.93,27.577-10.605,31.771-24.3.164,11.908-4.072,22.228-18.5,28.411,13.023,0,31.743-10.429,32.265-29.869,3.847,15.638,15.872,20.617,26.015,18.324-6.161-2.424-10.009-10.151-8.957-16.278,9.606,10.034,30.963,7.71,39.057-2.39-11.829,3.247-26.758-.2-29.3-13.24,11.985,11.935,35.125,4.338,33.977-14.993,6.6,5.4,23.691.33,26.5-7.61-11.4,7.928-28.183,2.429-32.335-7.238.251.048.5.085.76.122a38,38,0,0,1-6.045-9.861c-1.146-13.512,9.661-26.923,10.371-40.182,1.162-21.673-20.381-32.976-35.5-43.675a160.768,160.768,0,0,1-13.913-11.281,56.255,56.255,0,0,1-7.193-9.359c-8.649-11.495-10.417-67.708-48.986-67.708Zm-89.372,115.877c-4.886,19.5.089,36.576-4.359,52.079.423-11.564-6.459-23.327-4.95-33.78A30.874,30.874,0,0,1,3038.258,1882.692Zm178.744,0a30.87,30.87,0,0,1,9.309,18.3c1.509,10.453-5.373,22.217-4.95,33.781-4.449-15.5.528-32.584-4.359-52.08Zm-163.992,37.265c3.637,18.082-12.511,23.319-7.422,42.415.883,3.312,2.7,6.64,5.765,8.286-12.039,2.714-21.67-9.817-11.3-24.532,3.212-5.579,7.8-10.133,10.635-15.994,1.51-3.127,1.945-6.759,2.317-10.174Zm149.24,0c.372,3.415.808,7.047,2.317,10.174,2.83,5.862,7.424,10.415,10.635,15.994,10.375,14.715.743,27.247-11.3,24.532,3.062-1.646,4.883-4.974,5.766-8.286,5.089-19.1-11.059-24.333-7.422-42.415Z" transform="translate(-2994.792 -1766.815)" fill="#69add1" fill-rule="evenodd"/><path d="M3085.438,1854.161c-2.382,8.281-4.312,15.31-6.795,18.61a56.222,56.222,0,0,1-7.192,9.359,160.907,160.907,0,0,1-13.913,11.281c-15.116,10.7-36.659,22-35.5,43.675.71,13.257,11.518,26.667,10.374,40.178a38.014,38.014,0,0,1-6.045,9.865c.254-.036.508-.074.759-.122-4.152,9.667-20.935,15.167-32.335,7.238,2.813,7.94,19.9,13.01,26.5,7.61-1.148,19.331,21.992,26.928,33.977,14.993-2.54,13.039-17.468,16.487-29.3,13.24,8.094,10.1,29.451,12.424,39.057,2.39,1.053,6.127-2.8,13.854-8.956,16.278,10.143,2.293,22.168-2.685,26.015-18.323.522,19.439,19.243,29.869,32.266,29.869-14.427-6.182-18.663-16.5-18.5-28.411,4.195,13.695,17.964,23.37,31.772,24.3,13.807-.93,27.577-10.6,31.771-24.3.164,11.908-4.072,22.229-18.5,28.411,13.022,0,31.743-10.429,32.265-29.869,3.847,15.638,15.872,20.616,26.015,18.323-6.161-2.425-10.009-10.151-8.957-16.278,9.606,10.034,30.963,7.711,39.057-2.39-11.829,3.247-26.758-.2-29.3-13.24,11.985,11.935,35.125,4.338,33.977-14.993,6.6,5.4,23.691.33,26.5-7.61-11.4,7.928-28.183,2.429-32.335-7.238.251.048.5.085.76.122a37.994,37.994,0,0,1-6.045-9.861c-1.146-13.512,9.661-26.923,10.371-40.182,1.161-21.673-20.381-32.976-35.5-43.675a160.722,160.722,0,0,1-13.913-11.281,56.224,56.224,0,0,1-7.193-9.359c-2.482-3.3-4.413-10.329-6.795-18.61a100.547,100.547,0,0,1,1.444,12.823c.382,9.44-2.425,19.824,1.206,28.919,3.105,7.781,11.191,11.849,16.372,18.1,7.03,8.477,6.13,19.484,5.5,29.65-.435-13.321-5.148-25.456-16.511-33.793-5.928-4.35-12.982-7.8-16.141-14.744-5.123-11.267-1-22.69-7.235-35.948,5.253,14.78-7.2,31.54-.44,45.594,6.165,12.822,18.26,22.424,22.031,36.434,3.471,12.9-4.842,20.186-2.876,31.377,2.372,13.5,10.39,26.079-1.6,37.511,6.274-15-6.919-26.874-7.548-41.308-.486-11.136,4.282-20.736.7-32.16-2.9-9.265-8.629-16.05-15.044-24.726,6,13.328,8.538,26.574,6.817,40.781-.749,6.182-2.968,11.661-2.968,17.953,0,10.31,4.613,16.488-1.832,26.544-.36-2.94-.017-5.83-.787-8.713-1.639-6.124-5.6-11.252-6.215-17.749-.794-8.422.763-10.88,1.507-19.207.887-9.93-1.8-17.375-4.432-26.852,2.847,17.024-4.98,47.513-12.622,53.015,1.634-11.142.133-26.248-.012-31.961,0-15.754-.232-29.464-1.5-37.35-1.268,7.885-1.5,21.6-1.5,37.35-.146,5.713-1.646,20.819-.012,31.961-7.643-5.5-15.469-35.991-12.623-53.015-2.627,9.477-5.319,16.922-4.431,26.852.744,8.328,2.3,10.786,1.507,19.207-.612,6.5-4.576,11.625-6.215,17.749-.771,2.883-.428,5.772-.788,8.713-6.446-10.056-1.833-16.234-1.833-26.544,0-6.292-2.219-11.771-2.968-17.953-1.72-14.207.823-27.453,6.817-40.781-6.416,8.676-12.14,15.461-15.044,24.726-3.581,11.424,1.188,21.024.7,32.16-.629,14.434-13.822,26.309-7.548,41.308-11.991-11.432-3.973-24.007-1.6-37.511,1.966-11.192-6.347-18.479-2.876-31.377,3.771-14.01,15.865-23.612,22.03-36.434,6.757-14.054-5.692-30.814-.44-45.594-6.234,13.258-2.113,24.68-7.235,35.948-3.159,6.948-10.213,10.395-16.14,14.744-11.364,8.338-16.077,20.472-16.512,33.793-.635-10.167-1.534-21.174,5.5-29.65,5.181-6.247,13.266-10.315,16.372-18.1,3.631-9.095.823-19.479,1.205-28.919a100.636,100.636,0,0,1,1.444-12.823Zm-47.18,66.779c-4.886,19.5.089,36.576-4.359,52.079.423-11.564-6.459-23.327-4.95-33.78A30.874,30.874,0,0,1,3038.258,1920.94Zm178.744,0a30.87,30.87,0,0,1,9.309,18.3c1.509,10.453-5.373,22.217-4.95,33.781C3216.912,1957.517,3221.889,1940.436,3217,1920.94Zm-153.13,36.5c3.444,7.076,5.07,14.786,2.608,22.4-1.912,5.911-5.046,11.094-4.723,17.547.366,7.31,5.143,12.424,9.706,17.6-1.972-.02-3.757-1.483-5.4-2.487-8.78-5.381-13.253-13.391-10.321-23.923,1.781-6.4,6.758-11.548,8.44-18.045C3065.3,1966.217,3064.623,1961.756,3063.872,1957.443Zm127.515,0c-.751,4.313-1.431,8.774-.313,13.089,1.682,6.5,6.659,11.647,8.44,18.045,2.932,10.533-1.542,18.542-10.321,23.923-1.639,1-3.425,2.468-5.4,2.487,4.563-5.173,9.341-10.287,9.707-17.6.323-6.453-2.812-11.636-4.724-17.547C3186.316,1972.229,3187.942,1964.519,3191.387,1957.443Zm-138.377.762c3.637,18.082-12.511,23.319-7.422,42.415.883,3.312,2.7,6.64,5.765,8.285-12.039,2.715-21.67-9.817-11.3-24.532,3.212-5.58,7.8-10.133,10.635-15.994C3052.2,1965.251,3052.638,1961.62,3053.009,1958.2Zm149.24,0c.372,3.415.808,7.047,2.317,10.174,2.83,5.862,7.424,10.415,10.636,15.994,10.375,14.715.743,27.247-11.3,24.532,3.062-1.646,4.883-4.974,5.766-8.285C3214.76,1981.523,3198.612,1976.286,3202.249,1958.2Z" transform="translate(-2994.792 -1805.063)" fill="#5389cf" fill-rule="evenodd"/><path d="M3148.822,1766.815c-38.57,0-40.337,56.213-48.987,67.708a56.254,56.254,0,0,1-7.192,9.359,160.913,160.913,0,0,1-13.913,11.281c-15.116,10.7-36.659,22-35.5,43.675a43.008,43.008,0,0,0,2.83,12.12,33.359,33.359,0,0,1-1.143-6.773c-1.143-21.339,20.057-32.469,34.931-43a158.232,158.232,0,0,0,13.69-11.108,55.3,55.3,0,0,0,7.078-9.214c8.512-11.317,10.25-66.664,48.2-66.664s39.692,55.347,48.2,66.664a55.313,55.313,0,0,0,7.078,9.214,158.306,158.306,0,0,0,13.69,11.108c14.874,10.533,36.073,21.664,34.93,43a33.4,33.4,0,0,1-1.145,6.779,43.045,43.045,0,0,0,2.831-12.126c1.161-21.673-20.381-32.976-35.5-43.675A160.768,160.768,0,0,1,3205,1843.881a56.229,56.229,0,0,1-7.193-9.359C3189.159,1823.028,3187.391,1766.815,3148.822,1766.815Z" transform="translate(-3015.984 -1766.815)" fill="#c8effd" fill-rule="evenodd"/><path d="M3172.683,1800.828a79.64,79.64,0,0,0-5.121,10.446c8.363,4.942,21.591,8.555,26.364,7.976C3185.851,1816.023,3178.179,1809.235,3172.683,1800.828Zm61.2,0c-5.5,8.407-13.17,15.195-21.245,18.422,4.773.579,18-3.034,26.367-7.976A79.737,79.737,0,0,0,3233.884,1800.828Z" transform="translate(-3070.446 -1781.709)" fill="#c8effd" fill-rule="evenodd"/><path d="M3086.987,1935.817c-4.087,4.531-9.6,8.01-14.806,11.206-11.289,6.924-21.233,9.994-22.819,29.4.016.036.03.067.046.1,0-.007,0-.013,0-.02.035-.507.083-1.011.155-1.511a30.877,30.877,0,0,1,9.309-18.3c-4.733,18.886-.212,35.506-3.969,50.621q-.181.731-.39,1.458c.014-.378.019-.756.017-1.135,0-.155-.006-.309-.009-.463,0-.227-.008-.454-.018-.681-.007-.17-.018-.341-.027-.511-.012-.214-.024-.428-.04-.642-.012-.167-.027-.333-.042-.5-.016-.183-.034-.367-.053-.55q-.1-.95-.24-1.9c-.016-.1-.033-.206-.049-.31-.064-.411-.14-.821-.214-1.232s-.15-.82-.232-1.229c-.077-.382-.159-.764-.242-1.145s-.166-.751-.253-1.126c-.1-.42-.2-.841-.3-1.26-.056-.231-.114-.461-.172-.692-.478-1.91-.984-3.808-1.459-5.69a12.871,12.871,0,0,1-2.524,2.365c-.09.066-.218.15-.332.227.178.449.352.9.527,1.347.188.479.376.959.56,1.439.158.414.307.829.461,1.243.162.439.327.878.483,1.318s.29.856.433,1.284c.152.451.309.9.45,1.354.058.184.111.368.167.552.065.216.132.432.195.649s.127.455.189.682c.054.2.11.4.162.6.057.221.109.441.164.662.05.206.1.411.148.617.058.257.111.513.164.771.034.16.07.321.1.482.046.233.084.467.125.7.037.212.076.425.108.637.027.175.048.351.072.528.034.244.069.488.1.732s.05.514.073.772c.014.164.032.327.043.491.019.27.028.539.039.809.006.163.018.325.021.489.005.253,0,.506,0,.759,0,.176,0,.351,0,.526-.013.427-.036.853-.072,1.279-.262.628-.55,1.254-.852,1.877-.692,3.729-1.935,7.469-2.74,11.234a25.924,25.924,0,0,1-7.529,11.529,20.091,20.091,0,0,0,1.431,8.949c.677-3,2.173-5.591,3.4-8.368a41.021,41.021,0,0,0,1.936-5.332,18.671,18.671,0,0,0,.51,4.074,18.712,18.712,0,0,0,22.948,13.377c4.755-2.189,4.717,1.329,2.888,5.229-4.09,10.564-17.564,13.239-28.432,10.256,8.094,10.1,29.45,12.424,39.056,2.39,1.053,6.127-2.8,13.854-8.957,16.278,10.144,2.293,22.168-2.685,26.016-18.323.521,19.439,19.243,29.869,32.265,29.869q-.676-.289-1.322-.591c-13.365-6.238-17.335-16.284-17.176-27.82,4.2,13.695,17.964,23.37,31.772,24.3h0c13.807-.93,27.576-10.6,31.771-24.3.158,11.536-3.812,21.582-17.176,27.821q-.646.3-1.322.591c13.022,0,31.743-10.429,32.265-29.87,3.847,15.638,15.872,20.617,26.015,18.324-6.161-2.424-10.01-10.152-8.957-16.278,9.606,10.033,30.963,7.71,39.057-2.391-10.868,2.983-24.342.308-28.432-10.256-1.828-3.9-1.867-7.418,2.888-5.229a18.71,18.71,0,0,0,22.948-13.377,18.663,18.663,0,0,0,.51-4.073,41.03,41.03,0,0,0,1.936,5.332c1.229,2.777,2.725,5.367,3.4,8.367a20.1,20.1,0,0,0,1.431-8.949,25.928,25.928,0,0,1-7.53-11.528c-.8-3.766-2.047-7.506-2.74-11.235-.3-.623-.589-1.249-.852-1.877q-.054-.639-.072-1.278c-.007-.176,0-.351-.005-.527,0-.253-.007-.507,0-.76,0-.163.015-.325.022-.488.011-.27.019-.54.039-.81.011-.164.029-.327.043-.491.022-.257.043-.514.073-.772s.062-.488.1-.732c.024-.176.045-.352.072-.528.033-.212.072-.425.109-.637.041-.233.079-.467.125-.7.032-.161.068-.321.1-.482.053-.257.105-.514.164-.771.047-.206.1-.411.148-.616.054-.221.106-.442.164-.663.052-.2.107-.4.162-.6.063-.228.125-.455.189-.683s.129-.432.195-.649c.055-.184.11-.368.167-.551.141-.451.3-.9.45-1.353.144-.428.282-.857.434-1.285s.32-.878.482-1.317c.153-.415.3-.83.461-1.244.183-.48.372-.959.56-1.439.176-.45.349-.9.527-1.347-.114-.077-.242-.16-.332-.227a12.832,12.832,0,0,1-2.524-2.365c-.476,1.881-.982,3.78-1.46,5.69-.058.23-.116.461-.172.692-.1.419-.2.84-.3,1.26-.087.375-.17.75-.253,1.125s-.165.763-.242,1.145c-.083.41-.158.819-.231,1.229s-.151.821-.215,1.232c-.016.1-.034.207-.048.31q-.142.95-.241,1.9c-.019.183-.035.367-.052.55-.015.167-.03.334-.043.5-.016.214-.028.428-.04.642-.011.171-.021.342-.028.512-.01.227-.012.454-.017.681q-.008.232-.009.463c0,.378,0,.756.016,1.134q-.209-.727-.39-1.458c-3.757-15.115.764-31.735-3.969-50.62a30.87,30.87,0,0,1,9.309,18.3c.073.5.119,1.005.155,1.512l0,.018c.016-.035.029-.066.047-.1-1.587-19.407-11.531-22.477-22.82-29.4-5.209-3.194-10.718-6.674-14.805-11.2,5.282,9.876,16.143,17.21,15.136,28.93-1.533,14.671-12.459,28.008-6.2,46.365-4.256-3.224-6.734-9.86-6.823-15.536a26.49,26.49,0,0,0,.076,10.713c1.683,6.5,6.659,11.647,8.441,18.044,2.932,10.533-1.542,18.543-10.322,23.924-1.639,1-3.425,2.468-5.4,2.488,4.563-5.174,9.339-10.287,9.705-17.6.323-6.452-2.812-11.635-4.723-17.547-2.379-7.355-.938-14.8,2.267-21.675.013-.17.018-.344.035-.511-4.241,2.471-7.505,7.238-8.893,12.773a37.146,37.146,0,0,1-5.705-1.565c-.048-4.187,3.205-7.979,4.076-11.93,2.62-11.88-4.718-22.975-12.593-31.579,3.451,4.88,6.5,9.97,8.074,15.836,3.471,12.9-4.842,20.186-2.876,31.377,2.372,13.5,10.39,26.08-1.6,37.511,6.274-15-6.918-26.874-7.547-41.308a48.776,48.776,0,0,1,.4-8.049,48.141,48.141,0,0,0-2.185,12.226c-.2,20.811,2.6,42.477-17.072,50.622,3.128-6.939,6.307-19.867,6.53-26.407-.36-2.94-.017-5.829-.788-8.712-1.639-6.124-5.6-11.253-6.215-17.75a41.429,41.429,0,0,1-.172-6.07c-3.564,8.6-1.467,19.547-1.247,28.483.333,13.485-4.006,26.646-15.64,32.769h0c-11.635-6.123-15.973-19.284-15.641-32.769.221-8.937,2.317-19.881-1.246-28.484a41.543,41.543,0,0,1-.172,6.071c-.613,6.5-4.576,11.625-6.215,17.749-.771,2.883-.428,5.772-.788,8.713.223,6.541,3.4,19.468,6.529,26.407-19.668-8.145-16.87-29.81-17.071-50.621a48.141,48.141,0,0,0-2.185-12.226,48.722,48.722,0,0,1,.4,8.049c-.629,14.434-13.822,26.309-7.547,41.308-11.991-11.431-3.973-24.007-1.6-37.511,1.966-11.191-6.347-18.479-2.876-31.377,1.579-5.866,4.623-10.955,8.074-15.836-7.875,8.6-15.212,19.7-12.593,31.579.871,3.952,4.124,7.744,4.076,11.931a37.11,37.11,0,0,1-5.706,1.565c-1.387-5.536-4.651-10.3-8.893-12.773.017.167.022.341.035.511,3.205,6.876,4.646,14.32,2.267,21.675-1.912,5.911-5.047,11.094-4.723,17.547.366,7.31,5.143,12.424,9.706,17.6-1.972-.02-3.757-1.483-5.4-2.487-8.78-5.381-13.253-13.391-10.321-23.923,1.781-6.4,6.758-11.548,8.44-18.045a26.486,26.486,0,0,0,.076-10.713c-.09,5.676-2.567,12.312-6.823,15.536,6.258-18.357-4.669-31.694-6.2-46.366-1.007-11.719,9.854-19.053,15.136-28.929Zm-13.362,58.144c3.637,18.082-12.511,23.319-7.421,42.415.882,3.312,2.7,6.64,5.765,8.285-12.04,2.715-21.67-9.817-11.3-24.532,3.212-5.58,7.8-10.133,10.635-15.994C3072.817,2001.008,3073.253,1997.376,3073.625,1993.961Zm149.24,0c.372,3.415.808,7.047,2.317,10.174,2.831,5.862,7.423,10.415,10.635,15.994,10.375,14.715.744,27.247-11.3,24.532,3.062-1.646,4.883-4.974,5.766-8.285C3235.376,2017.28,3219.228,2012.043,3222.864,1993.961Zm-127.032,63.013c11.724,2.722-4.626,25.07-9.579,22.5A54.654,54.654,0,0,0,3095.832,2056.974Zm104.825,0a54.653,54.653,0,0,0,9.578,22.5C3205.284,2082.043,3188.933,2059.7,3200.657,2056.974Z" transform="translate(-3015.407 -1840.819)" fill="#426bb9" fill-rule="evenodd"/><path d="M3141.8,1793c-6,6.8-9,14.115-11.613,20.981s-4.842,13.269-9.13,18.578c-6.257,7.744-15.518,14.582-22.52,22.679s-11.7,17.789-8.226,30.543c2.668,9.794,9.617,17.541,16.16,25.217s12.668,15.255,14.369,24.454c1.615,8.736-3.819,18.181-6.619,27.244-1.4,4.531-2.117,9.086-.466,13.377s5.608,8.009,12.735,11.025c-9.873-8.353-13.006-10.955-9.221-23.461,2.623-8.488,8.623-18.437,6.714-28.764-1.89-10.224-8.509-18.233-15.08-25.941s-13.107-15.146-15.515-23.983c-3.184-11.689.9-19.919,7.562-27.625s15.955-14.551,22.591-22.765c4.731-5.856,7.044-12.639,9.63-19.448s5.422-13.66,11.025-20Zm54.282,0-2.394,2.109c5.6,6.341,8.439,13.193,11.024,20s4.9,13.592,9.629,19.448c6.637,8.214,15.927,15.059,22.591,22.765s10.746,15.936,7.562,27.625c-2.407,8.837-8.943,16.274-15.514,23.983s-13.19,15.718-15.081,25.941c-1.909,10.327,4.091,20.276,6.714,28.764,3.785,12.506.653,15.108-9.22,23.461,7.126-3.016,11.083-6.734,12.735-11.025s.934-8.846-.467-13.377c-2.8-9.062-8.234-18.507-6.619-27.244,1.7-9.2,7.825-16.778,14.369-24.454s13.492-15.423,16.16-25.217c3.475-12.754-1.223-22.446-8.226-30.543s-16.264-14.935-22.52-22.679c-4.289-5.308-6.523-11.71-9.131-18.578S3202.09,1799.8,3196.086,1793Z" transform="translate(-3036.107 -1778.283)" fill="#c8effd" fill-rule="evenodd"/></g></g><g transform="translate(6399.685 -1507.997)"><g transform="translate(414.658)"><path d="M3481.993,2168.9a1.215,1.215,0,0,0-1.216,1.214v14.426a1.215,1.215,0,0,0,1.216,1.215h51.413a1.216,1.216,0,0,0,1.215-1.215v-14.426a1.215,1.215,0,0,0-1.215-1.214Zm1.216,2.429h48.98v12h-48.98Zm-1.216,23.244a1.215,1.215,0,0,0-1.216,1.214v14.422a1.215,1.215,0,0,0,1.216,1.214h51.413a1.215,1.215,0,0,0,1.215-1.214v-14.422a1.215,1.215,0,0,0-1.215-1.214Zm1.216,2.429h48.98v11.992h-48.98Zm-1.216,23.245a1.215,1.215,0,0,0-1.216,1.21v14.426a1.215,1.215,0,0,0,1.216,1.214h51.413a1.215,1.215,0,0,0,1.215-1.214v-14.426a1.215,1.215,0,0,0-1.215-1.21Zm1.216,2.425h48.98v12h-48.98Zm-1.216,23.244a1.215,1.215,0,0,0-1.216,1.214v14.422a1.216,1.216,0,0,0,1.216,1.214h51.413a1.215,1.215,0,0,0,1.215-1.214v-14.422a1.215,1.215,0,0,0-1.215-1.214Zm1.216,2.429h48.98v12h-48.98Zm-1.216,23.245a1.215,1.215,0,0,0-1.216,1.214v14.422a1.215,1.215,0,0,0,1.216,1.214h51.413a1.215,1.215,0,0,0,1.215-1.214V2272.8a1.215,1.215,0,0,0-1.215-1.214Zm1.216,2.429h48.98v11.992h-48.98Zm-1.216,23.239a1.216,1.216,0,0,0-1.216,1.214V2312.9a1.215,1.215,0,0,0,1.216,1.214h51.413a1.215,1.215,0,0,0,1.215-1.214v-14.427a1.215,1.215,0,0,0-1.215-1.214Zm1.216,2.43h48.98v12h-48.98Zm-1.216,23.244a1.215,1.215,0,0,0-1.216,1.214v14.421a1.215,1.215,0,0,0,1.216,1.214h51.413a1.215,1.215,0,0,0,1.215-1.214v-14.421a1.215,1.215,0,0,0-1.215-1.214Zm1.216,2.429h48.98v11.992h-48.98Z" transform="translate(-3480.777 -2168.897)" fill="#fff"/><path d="M3624.565,2305.911a1.215,1.215,0,0,0-1.216,1.214v14.422a1.216,1.216,0,0,0,1.216,1.214h51.408a1.215,1.215,0,0,0,1.216-1.214v-14.422a1.215,1.215,0,0,0-1.216-1.214Zm1.216,2.429h48.977v12h-48.977Zm-1.216,23.245a1.216,1.216,0,0,0-1.216,1.215v14.422a1.215,1.215,0,0,0,1.216,1.214h51.408a1.215,1.215,0,0,0,1.216-1.214V2332.8a1.215,1.215,0,0,0-1.216-1.215Zm1.216,2.43h48.977v11.992h-48.977Zm-1.216,23.24a1.216,1.216,0,0,0-1.216,1.214V2372.9a1.215,1.215,0,0,0,1.216,1.214h51.408a1.215,1.215,0,0,0,1.216-1.214v-14.427a1.215,1.215,0,0,0-1.216-1.214Zm1.216,2.43h48.977v12h-48.977Zm-1.216,23.245a1.215,1.215,0,0,0-1.216,1.214v14.422a1.215,1.215,0,0,0,1.216,1.214h51.408a1.215,1.215,0,0,0,1.216-1.214v-14.422a1.215,1.215,0,0,0-1.216-1.214Zm1.216,2.429h48.977v11.992h-48.977Z" transform="translate(-3543.208 -2228.894)" fill="#fff"/></g><path d="M2938.287,2168.9a1.215,1.215,0,0,1,1.216,1.214v14.426a1.215,1.215,0,0,1-1.216,1.215h-51.412a1.216,1.216,0,0,1-1.216-1.215v-14.426a1.215,1.215,0,0,1,1.216-1.214Zm-1.215,2.429h-48.98v12h48.98Zm1.215,23.244a1.215,1.215,0,0,1,1.216,1.214v14.422a1.215,1.215,0,0,1-1.216,1.214h-51.412a1.215,1.215,0,0,1-1.216-1.214v-14.422a1.215,1.215,0,0,1,1.216-1.214Zm-1.215,2.429h-48.98v11.992h48.98Zm1.215,23.245a1.215,1.215,0,0,1,1.216,1.21v14.426a1.215,1.215,0,0,1-1.216,1.214h-51.412a1.215,1.215,0,0,1-1.216-1.214v-14.426a1.215,1.215,0,0,1,1.216-1.21Zm-1.215,2.425h-48.98v12h48.98Zm1.215,23.244a1.215,1.215,0,0,1,1.216,1.214v14.422a1.215,1.215,0,0,1-1.216,1.214h-51.412a1.216,1.216,0,0,1-1.216-1.214v-14.422a1.215,1.215,0,0,1,1.216-1.214Zm-1.215,2.429h-48.98v12h48.98Zm1.215,23.245a1.215,1.215,0,0,1,1.216,1.214v14.422a1.215,1.215,0,0,1-1.216,1.214h-51.412a1.215,1.215,0,0,1-1.216-1.214V2272.8a1.215,1.215,0,0,1,1.216-1.214Zm-1.215,2.429h-48.98v11.992h48.98Zm1.215,23.239a1.215,1.215,0,0,1,1.216,1.214V2312.9a1.215,1.215,0,0,1-1.216,1.214h-51.412a1.215,1.215,0,0,1-1.216-1.214v-14.427a1.216,1.216,0,0,1,1.216-1.214Zm-1.215,2.43h-48.98v12h48.98Zm1.215,23.244a1.215,1.215,0,0,1,1.216,1.214v14.421a1.215,1.215,0,0,1-1.216,1.214h-51.412a1.215,1.215,0,0,1-1.216-1.214v-14.421a1.215,1.215,0,0,1,1.216-1.214Zm-1.215,2.429h-48.98v11.992h48.98Z" transform="translate(-2805.523 -2168.897)" fill="#fff"/><path d="M2795.719,2305.911a1.215,1.215,0,0,1,1.216,1.214v14.422a1.216,1.216,0,0,1-1.216,1.214h-51.408a1.215,1.215,0,0,1-1.215-1.214v-14.422a1.215,1.215,0,0,1,1.215-1.214Zm-1.215,2.429h-48.977v12H2794.5Zm1.215,23.245a1.216,1.216,0,0,1,1.216,1.215v14.422a1.215,1.215,0,0,1-1.216,1.214h-51.408a1.215,1.215,0,0,1-1.215-1.214V2332.8a1.215,1.215,0,0,1,1.215-1.215Zm-1.215,2.43h-48.977v11.992H2794.5Zm1.215,23.24a1.216,1.216,0,0,1,1.216,1.214V2372.9a1.215,1.215,0,0,1-1.216,1.214h-51.408a1.215,1.215,0,0,1-1.215-1.214v-14.427a1.215,1.215,0,0,1,1.215-1.214Zm-1.215,2.43h-48.977v12H2794.5Zm1.215,23.245a1.215,1.215,0,0,1,1.216,1.214v14.422a1.215,1.215,0,0,1-1.216,1.214h-51.408a1.215,1.215,0,0,1-1.215-1.214v-14.422a1.215,1.215,0,0,1,1.215-1.214Zm-1.215,2.429h-48.977v11.992H2794.5Z" transform="translate(-2743.096 -2228.894)" fill="#fff"/></g><g transform="translate(6437.274 -1809.071)"><path d="M3456.8,1697.159a2.069,2.069,0,1,1-2.069-2.066A2.068,2.068,0,0,1,3456.8,1697.159Z" transform="translate(-3091.398 -1660.349)" fill="#fff"/><path d="M3352.618,1635.349a2.068,2.068,0,1,1-2.068-2.066A2.067,2.067,0,0,1,3352.618,1635.349Z" transform="translate(-3045.777 -1633.283)" fill="#fff"/><path d="M3083.866,1785.842a2.068,2.068,0,1,1-2.068-2.066A2.067,2.067,0,0,1,3083.866,1785.842Z" transform="translate(-2928.093 -1699.182)" fill="#fff"/><path d="M3420.09,1796.651a3.035,3.035,0,0,1-3.037,3.033h0a3.035,3.035,0,0,1-3.037-3.033h0a3.035,3.035,0,0,1,3.037-3.032h0a3.035,3.035,0,0,1,3.037,3.032Z" transform="translate(-3074.474 -1703.492)" fill="#fff"/><path d="M2985.073,1730.322a2.069,2.069,0,1,1-2.069-2.066A2.067,2.067,0,0,1,2985.073,1730.322Z" transform="translate(-2884.833 -1674.871)" fill="#fff"/><path d="M3064.316,1636.412a3.035,3.035,0,0,1-3.037,3.033h0a3.035,3.035,0,0,1-3.037-3.033h0a3.035,3.035,0,0,1,3.037-3.032h0a3.035,3.035,0,0,1,3.037,3.032Z" transform="translate(-2918.684 -1633.325)" fill="#fff"/><path d="M2814.1,2227.95a2.068,2.068,0,1,1-2.068-2.066A2.067,2.067,0,0,1,2814.1,2227.95Z" transform="translate(-2809.967 -1892.777)" fill="#fff"/><path d="M3038.591,2185.961a6.1,6.1,0,0,1-6.1,6.091h0a6.1,6.1,0,0,1-6.1-6.091h0a6.094,6.094,0,0,1,6.1-6.091h0a6.1,6.1,0,0,1,6.1,6.091Z" transform="translate(-2904.738 -1872.628)" fill="#fff"/><path d="M2870.733,2108.74a2.068,2.068,0,1,1-2.068-2.066A2.067,2.067,0,0,1,2870.733,2108.74Z" transform="translate(-2834.764 -1840.576)" fill="#fff"/><path d="M3426.742,2209a2.068,2.068,0,1,1-2.068-2.065A2.067,2.067,0,0,1,3426.742,2209Z" transform="translate(-3078.235 -1884.478)" fill="#fff"/><path d="M3663.5,2187.052a2.068,2.068,0,0,1-4.137,0h0a2.067,2.067,0,0,1,2.068-2.066h0A2.067,2.067,0,0,1,3663.5,2187.052Z" transform="translate(-3181.911 -1874.868)" fill="#fff"/><path d="M3584.663,1916.268a3.035,3.035,0,0,1-3.037,3.033h0a3.035,3.035,0,0,1-3.037-3.033h0a3.035,3.035,0,0,1,3.037-3.033h0a3.035,3.035,0,0,1,3.037,3.033Z" transform="translate(-3146.539 -1755.871)" fill="#fff"/><path d="M3588.19,2034.51a6.094,6.094,0,0,1-6.1,6.091h0a6.1,6.1,0,0,1-6.1-6.091h0a6.1,6.1,0,0,1,6.1-6.09h0a6.094,6.094,0,0,1,6.1,6.09Z" transform="translate(-3145.402 -1806.31)" fill="#fff"/><path d="M3178.622,1654.146a6.094,6.094,0,0,1-6.1,6.091h0a6.1,6.1,0,0,1-6.1-6.091h0a6.094,6.094,0,0,1,6.1-6.09h0a6.094,6.094,0,0,1,6.1,6.09Z" transform="translate(-2966.057 -1639.752)" fill="#fff"/><path d="M2902.933,1978.863a3.035,3.035,0,0,1-3.037,3.033h0a3.035,3.035,0,0,1-3.037-3.033h0a3.035,3.035,0,0,1,3.037-3.032h0a3.035,3.035,0,0,1,3.037,3.032Z" transform="translate(-2848.016 -1783.281)" fill="#fff"/></g></g></svg>