<svg xmlns="http://www.w3.org/2000/svg" width="1010.869" height="487.112" viewBox="0 0 1010.869 487.112"><g transform="translate(-5942.016 1851.865)" opacity="0.8"><g transform="translate(6309.557 -1450.793)"><path d="M2611.079,2270.665l-2.354,3.5-.773,2.784-25.13,25.1.129.032h-.2v8.555h12.084l-8.521,20.493h0l-3.227,4.6v3.159l28.257-28.222-.13-.032h.13v-8.555h-12.019l11.748-28.254Z" transform="translate(-2582.756 -2270.665)" fill="#daaf60"/><path d="M2611.079,2274.914l-11.748,28.253h.32l11.428-27.484Zm-28.323,36.808v.77h11.763l.32-.77Zm28.464,0,.13.033v-.033Zm.13.033-28.257,28.221v.77l28.257-28.221-.13-.033h.13Z" transform="translate(-2582.756 -2272.525)" fill="#c8effd"/><path d="M2611.08,2270.664l-28.257,28.221.129.032h-.194v8.555h12.083l-11.748,28.254,28.257-28.221-.129-.033h.129v-8.555h-12.018Z" transform="translate(-2582.757 -2270.664)" fill="#f3ed80"/><path d="M2608.094,2283.437l-9.944,5.734-15.327,15.307.129.032h-.2v4.539l19.32-11.14Zm-8.168,21.074-14.836,8.555h8.081l14.836-8.555Zm7.227,12.78-18.506,10.67-2.549,6.129,10.015-5.774Z" transform="translate(-2582.756 -2276.257)" fill="#ffffc4"/></g><g transform="translate(6648.557 -1485.214)"><path d="M2611.079,2270.665l-2.354,3.5-.773,2.784-25.13,25.1.129.032h-.2v8.555h12.084l-8.521,20.493h0l-3.227,4.6v3.159l28.257-28.222-.13-.032h.13v-8.555h-12.019l11.748-28.254Z" transform="translate(-2582.756 -2270.665)" fill="#daaf60"/><path d="M2611.079,2274.914l-11.748,28.253h.32l11.428-27.484Zm-28.323,36.808v.77h11.763l.32-.77Zm28.464,0,.13.033v-.033Zm.13.033-28.257,28.221v.77l28.257-28.221-.13-.033h.13Z" transform="translate(-2582.756 -2272.525)" fill="#c8effd"/><path d="M2611.08,2270.664l-28.257,28.221.129.032h-.194v8.555h12.083l-11.748,28.254,28.257-28.221-.129-.033h.129v-8.555h-12.018Z" transform="translate(-2582.757 -2270.664)" fill="#f3ed80"/><path d="M2608.094,2283.437l-9.944,5.734-15.327,15.307.129.032h-.2v4.539l19.32-11.14Zm-8.168,21.074-14.836,8.555h8.081l14.836-8.555Zm7.227,12.78-18.506,10.67-2.549,6.129,10.015-5.774Z" transform="translate(-2582.756 -2276.257)" fill="#ffffc4"/></g><g transform="translate(5942.016 -1500.027)"><path d="M1929.1,2183.077l1.739,2.584.571,2.057,18.565,18.542-.095.024h.144v6.32h-8.927l6.295,15.14h0l2.384,3.4v2.333l-20.875-20.849.1-.024h-.1v-6.32h8.879l-8.679-20.872Z" transform="translate(-1928.897 -2183.076)" fill="#daaf60"/><path d="M1929.1,2186.216l8.679,20.873h-.236l-8.443-20.3Zm20.924,27.193v.569h-8.69l-.237-.569Zm-21.028,0-.1.024v-.024Zm-.1.024,20.875,20.849v.569L1928.9,2214l.1-.024h-.1Z" transform="translate(-1928.897 -2184.451)" fill="#c8effd"/><path d="M1929.1,2183.076l20.875,20.849-.095.023h.144v6.32h-8.927l8.679,20.873-20.875-20.849.1-.024h-.1v-6.32h8.879Z" transform="translate(-1928.897 -2183.076)" fill="#f3ed80"/><path d="M1933.176,2192.512l7.346,4.236,11.323,11.309-.095.024h.144v3.353l-14.272-8.229Zm6.034,15.569,10.961,6.32h-5.97l-10.96-6.32Zm-5.338,9.441,13.672,7.883,1.883,4.528-7.4-4.266Z" transform="translate(-1930.771 -2187.208)" fill="#ffffc4"/></g><g transform="translate(5963.701 -1817.628)"><path d="M1988.4,1618.06l-1.739,2.584-.571,2.056-18.565,18.542.1.024h-.145v6.32h8.927l-6.3,15.139h0l-2.383,3.4v2.333l20.875-20.849-.1-.024h.1v-6.32h-8.879l8.679-20.873Z" transform="translate(-1967.476 -1618.06)" fill="#daaf60"/><path d="M1988.4,1621.768l-8.443,20.3h-.236l8.679-20.872Zm-12,26.624-.237.569h-8.69v-.569Zm12.2,0v.024l-.1-.024Zm0,.569h-.1l.1.024-20.875,20.849v-.568l20.875-20.849Z" transform="translate(-1967.476 -1619.435)" fill="#c8effd"/><path d="M1988.4,1618.06l-20.875,20.849.1.024h-.143v6.32h8.927l-8.679,20.873,20.875-20.849-.1-.024h.1v-6.32h-8.879Z" transform="translate(-1967.476 -1618.06)" fill="#f3ed80"/><path d="M1981.749,1638.188l-14.273,8.23v-3.353h.145l-.1-.024,11.323-11.308,7.346-4.236Zm4.382,4.877-10.961,6.32h-5.97l10.961-6.32Zm-8.787,17.586-7.4,4.266,1.883-4.528,13.672-7.884Z" transform="translate(-1967.476 -1622.192)" fill="#ffffc4"/></g><g transform="translate(6909.816 -1750.984)"><path d="M3650.824,1736.621l1.739,2.584.571,2.056L3671.7,1759.8l-.1.024h.144v6.32h-8.927l6.295,15.14h0l2.384,3.4v2.333l-20.875-20.849.1-.024h-.1v-6.32h8.878l-8.678-20.873Z" transform="translate(-3650.624 -1736.621)" fill="#daaf60"/><path d="M3650.824,1739.76l8.678,20.873h-.236l-8.442-20.3Zm20.923,27.193v.569h-8.69l-.237-.569Zm-21.027,0-.1.024v-.024Zm-.1.024,20.875,20.849v.568l-20.875-20.849.1-.024h-.1Z" transform="translate(-3650.624 -1737.995)" fill="#c8effd"/><path d="M3650.825,1736.621l20.875,20.849-.1.024h.144v6.32h-8.927l8.679,20.873-20.875-20.849.095-.024h-.095v-6.32h8.878Z" transform="translate(-3650.625 -1736.621)" fill="#f3ed80"/><path d="M3654.9,1746.057l7.347,4.235,11.323,11.309-.1.024h.144v3.352l-14.272-8.229Zm6.034,15.569,10.96,6.32h-5.97l-10.96-6.32Zm-5.339,9.441,13.671,7.884,1.883,4.528-7.4-4.266Z" transform="translate(-3652.498 -1740.753)" fill="#ffffc4"/></g><g transform="translate(6010.271 -1798.457)"><g transform="translate(362.228 0)"><path d="M2716.376,1652.165c-4.175,3.536-8.189,4.654-11.8,6.164a25.184,25.184,0,0,0-6.017,3.231,10.371,10.371,0,0,0-3.828,6.091c-.038,3.289,1.964,7.122,6.389,9.571-2.567-2.61-4.854-5.8-4.149-9.093a7.85,7.85,0,0,1,3.009-4.777,23.615,23.615,0,0,1,5.482-2.915c.876-.366,1.781-.735,2.683-1.13v26.217c-2.237,3.489-2.746,6.984-1.374,9.445,2.42,4.342,9.884,4.266,16.67-.168s10.328-11.55,7.908-15.891-9.884-4.266-16.671.168a23.553,23.553,0,0,0-4.55,3.869v-24.578a12.437,12.437,0,0,0,6.247-6.2Z" transform="translate(-2694.732 -1652.165)" fill="#c8effd"/><path d="M2712.321,1660.861l-4.175,2.407v11.162l1.983-1.143v-11.11A19.079,19.079,0,0,0,2712.321,1660.861Zm-14.094,8.126-3.367,1.942c-.046.174-.088.35-.127.53a10.575,10.575,0,0,0,4.34,8.2l.533-.307c-1.86-2.25-3.194-4.8-2.634-7.419a7.917,7.917,0,0,1,1.256-2.949Zm11.9,8.9-1.983,1.143v5.17l1.983-1.143Zm21,4.461-25.028,14.432a5.978,5.978,0,0,0,.673,1.995,5.578,5.578,0,0,0,1.654,1.833l23.6-13.607a6.769,6.769,0,0,0-.673-4.286q-.1-.188-.224-.367Z" transform="translate(-2694.732 -1655.973)" fill="#fff"/></g><g transform="translate(905.233 222.592)"><path d="M3682.388,2048.159c-4.175,3.536-8.189,4.654-11.8,6.164a25.166,25.166,0,0,0-6.017,3.231,10.367,10.367,0,0,0-3.828,6.091c-.037,3.289,1.963,7.122,6.389,9.571-2.567-2.61-4.854-5.8-4.15-9.093a7.849,7.849,0,0,1,3.01-4.777,23.611,23.611,0,0,1,5.482-2.915c.876-.366,1.781-.734,2.683-1.13v26.217c-2.237,3.489-2.746,6.984-1.374,9.445,2.42,4.342,9.884,4.266,16.671-.168s10.327-11.55,7.907-15.892-9.884-4.266-16.67.168a23.536,23.536,0,0,0-4.551,3.869v-24.578a12.438,12.438,0,0,0,6.247-6.2Z" transform="translate(-3660.744 -2048.159)" fill="#c8effd"/><path d="M3678.333,2056.855l-4.175,2.407v11.162l1.983-1.143v-11.11A19.009,19.009,0,0,0,3678.333,2056.855Zm-14.094,8.126-3.367,1.942c-.047.174-.089.349-.127.53a10.578,10.578,0,0,0,4.339,8.2l.533-.308c-1.86-2.25-3.195-4.8-2.634-7.419a7.917,7.917,0,0,1,1.256-2.949Zm11.9,8.9-1.983,1.143v5.17l1.983-1.143Zm21,4.461-25.029,14.432a5.96,5.96,0,0,0,.674,1.995,5.572,5.572,0,0,0,1.654,1.834l23.6-13.608a6.772,6.772,0,0,0-.673-4.286c-.07-.126-.145-.248-.224-.367Z" transform="translate(-3660.744 -2051.967)" fill="#fff"/></g><g transform="translate(0 376.782)"><path d="M2095.337,2322.464l-1.625.937h-.052v.03l-28.068,16.185h-.045V2360.4a16.742,16.742,0,0,0-7.892,2.835c-5.74,3.75-8.735,9.768-6.688,13.44s8.359,3.608,14.1-.142h0c5.74-3.75,8.735-9.768,6.688-13.44a5.61,5.61,0,0,0-4.531-2.659v-19.824l26.436-15.243V2347a16.745,16.745,0,0,0-7.892,2.835c-5.74,3.75-8.734,9.768-6.688,13.44s8.359,3.609,14.1-.142h0c5.74-3.75,8.734-9.768,6.687-13.439a5.607,5.607,0,0,0-4.531-2.659v-24.572Z" transform="translate(-2050.324 -2322.464)" fill="#c8effd"/><path d="M2098.161,2322.464l-1.625.937h-.052v.03l-28.068,16.184h-.045v8.227l1.677-.967v-6.267l26.436-15.243v6.267l1.677-.967v-8.2Zm0,13.521-1.677.967v5.978l1.677-.968Zm5.169,16.177-20.794,11.99c1.582,1.728,4.457,2.275,7.8,1.483l8.928-5.148c2.632-2.652,4.133-5.721,4.07-8.324Zm-33.282.033-1.677.968v5.977l1.677-.966Zm-4.939,8.826a18.806,18.806,0,0,0-4.63,2.213,20.339,20.339,0,0,0-2.411,1.848Zm9.514,7.694-17.851,10.293c3.014.979,7.287.027,11.119-2.477A17.258,17.258,0,0,0,2074.623,2368.714Z" transform="translate(-2053.148 -2322.464)" fill="#fff"/></g></g><g transform="translate(6688.228 -1805.853)"><path d="M2716.376,1652.165c-4.175,3.536-8.189,4.654-11.8,6.164a25.184,25.184,0,0,0-6.017,3.231,10.371,10.371,0,0,0-3.828,6.091c-.038,3.289,1.964,7.122,6.389,9.571-2.567-2.61-4.854-5.8-4.149-9.093a7.85,7.85,0,0,1,3.009-4.777,23.615,23.615,0,0,1,5.482-2.915c.876-.366,1.781-.735,2.683-1.13v26.217c-2.237,3.489-2.746,6.984-1.374,9.445,2.42,4.342,9.884,4.266,16.67-.168s10.328-11.55,7.908-15.891-9.884-4.266-16.671.168a23.553,23.553,0,0,0-4.55,3.869v-24.578a12.437,12.437,0,0,0,6.247-6.2Z" transform="translate(-2694.732 -1652.165)" fill="#c8effd"/><path d="M2712.321,1660.861l-4.175,2.407v11.162l1.983-1.143v-11.11A19.079,19.079,0,0,0,2712.321,1660.861Zm-14.094,8.126-3.367,1.942c-.046.174-.088.35-.127.53a10.575,10.575,0,0,0,4.34,8.2l.533-.307c-1.86-2.25-3.194-4.8-2.634-7.419a7.917,7.917,0,0,1,1.256-2.949Zm11.9,8.9-1.983,1.143v5.17l1.983-1.143Zm21,4.461-25.028,14.432a5.978,5.978,0,0,0,.673,1.995,5.578,5.578,0,0,0,1.654,1.833l23.6-13.607a6.769,6.769,0,0,0-.673-4.286q-.1-.188-.224-.367Z" transform="translate(-2694.732 -1655.973)" fill="#fff"/></g><g transform="translate(6155.233 -1851.865)"><path d="M3682.388,2048.159c-4.175,3.536-8.189,4.654-11.8,6.164a25.166,25.166,0,0,0-6.017,3.231,10.367,10.367,0,0,0-3.828,6.091c-.037,3.289,1.963,7.122,6.389,9.571-2.567-2.61-4.854-5.8-4.15-9.093a7.849,7.849,0,0,1,3.01-4.777,23.611,23.611,0,0,1,5.482-2.915c.876-.366,1.781-.734,2.683-1.13v26.217c-2.237,3.489-2.746,6.984-1.374,9.445,2.42,4.342,9.884,4.266,16.671-.168s10.327-11.55,7.907-15.892-9.884-4.266-16.67.168a23.536,23.536,0,0,0-4.551,3.869v-24.578a12.438,12.438,0,0,0,6.247-6.2Z" transform="translate(-3660.744 -2048.159)" fill="#c8effd"/><path d="M3678.333,2056.855l-4.175,2.407v11.162l1.983-1.143v-11.11A19.009,19.009,0,0,0,3678.333,2056.855Zm-14.094,8.126-3.367,1.942c-.047.174-.089.349-.127.53a10.578,10.578,0,0,0,4.339,8.2l.533-.308c-1.86-2.25-3.195-4.8-2.634-7.419a7.917,7.917,0,0,1,1.256-2.949Zm11.9,8.9-1.983,1.143v5.17l1.983-1.143Zm21,4.461-25.029,14.432a5.96,5.96,0,0,0,.674,1.995,5.572,5.572,0,0,0,1.654,1.834l23.6-13.608a6.772,6.772,0,0,0-.673-4.286c-.07-.126-.145-.248-.224-.367Z" transform="translate(-3660.744 -2051.967)" fill="#fff"/></g><g transform="translate(6445 -1513.675)"><path d="M2095.337,2322.464l-1.625.937h-.052v.03l-28.068,16.185h-.045V2360.4a16.742,16.742,0,0,0-7.892,2.835c-5.74,3.75-8.735,9.768-6.688,13.44s8.359,3.608,14.1-.142h0c5.74-3.75,8.735-9.768,6.688-13.44a5.61,5.61,0,0,0-4.531-2.659v-19.824l26.436-15.243V2347a16.745,16.745,0,0,0-7.892,2.835c-5.74,3.75-8.734,9.768-6.688,13.44s8.359,3.609,14.1-.142h0c5.74-3.75,8.734-9.768,6.687-13.439a5.607,5.607,0,0,0-4.531-2.659v-24.572Z" transform="translate(-2050.324 -2322.464)" fill="#c8effd"/><path d="M2098.161,2322.464l-1.625.937h-.052v.03l-28.068,16.184h-.045v8.227l1.677-.967v-6.267l26.436-15.243v6.267l1.677-.967v-8.2Zm0,13.521-1.677.967v5.978l1.677-.968Zm5.169,16.177-20.794,11.99c1.582,1.728,4.457,2.275,7.8,1.483l8.928-5.148c2.632-2.652,4.133-5.721,4.07-8.324Zm-33.282.033-1.677.968v5.977l1.677-.966Zm-4.939,8.826a18.806,18.806,0,0,0-4.63,2.213,20.339,20.339,0,0,0-2.411,1.848Zm9.514,7.694-17.851,10.293c3.014.979,7.287.027,11.119-2.477A17.258,17.258,0,0,0,2074.623,2368.714Z" transform="translate(-2053.148 -2322.464)" fill="#fff"/></g></g></svg>