<svg xmlns="http://www.w3.org/2000/svg" xmlns:xlink="http://www.w3.org/1999/xlink" width="201.432" height="169.606" viewBox="0 0 201.432 169.606"><defs><filter id="a" x="63.116" y="77.481" width="33.817" height="33.91" filterUnits="userSpaceOnUse"><feOffset dy="3" input="SourceAlpha"/><feGaussianBlur stdDeviation="3" result="b"/><feFlood flood-opacity="0.141"/><feComposite operator="in" in2="b"/><feComposite in="SourceGraphic"/></filter><filter id="c" x="84.015" y="55.458" width="35.852" height="35.998" filterUnits="userSpaceOnUse"><feOffset dy="3" input="SourceAlpha"/><feGaussianBlur stdDeviation="3" result="d"/><feFlood flood-opacity="0.141"/><feComposite operator="in" in2="d"/><feComposite in="SourceGraphic"/></filter><filter id="e" x="87.772" y="60.295" width="27.206" height="26.992" filterUnits="userSpaceOnUse"><feOffset dy="3" input="SourceAlpha"/><feGaussianBlur stdDeviation="3" result="f"/><feFlood flood-opacity="0.141"/><feComposite operator="in" in2="f"/><feComposite in="SourceGraphic"/></filter><filter id="g" x="56.08" y="87.149" width="30.678" height="31.058" filterUnits="userSpaceOnUse"><feOffset dy="3" input="SourceAlpha"/><feGaussianBlur stdDeviation="3" result="h"/><feFlood flood-opacity="0.141"/><feComposite operator="in" in2="h"/><feComposite in="SourceGraphic"/></filter><filter id="i" x="72.997" y="70.973" width="30.677" height="31.058" filterUnits="userSpaceOnUse"><feOffset dy="3" input="SourceAlpha"/><feGaussianBlur stdDeviation="3" result="j"/><feFlood flood-opacity="0.141"/><feComposite operator="in" in2="j"/><feComposite in="SourceGraphic"/></filter><filter id="k" x="78.075" y="65.814" width="22.485" height="32.675" filterUnits="userSpaceOnUse"><feOffset dy="3" input="SourceAlpha"/><feGaussianBlur stdDeviation="3" result="l"/><feFlood flood-opacity="0.141"/><feComposite operator="in" in2="l"/><feComposite in="SourceGraphic"/></filter><filter id="m" x="78.157" y="73.244" width="31.08" height="23.463" filterUnits="userSpaceOnUse"><feOffset dy="3" input="SourceAlpha"/><feGaussianBlur stdDeviation="3" result="n"/><feFlood flood-opacity="0.141"/><feComposite operator="in" in2="n"/><feComposite in="SourceGraphic"/></filter><filter id="o" x="48.07" y="94.91" width="30.631" height="31.007" filterUnits="userSpaceOnUse"><feOffset dy="3" input="SourceAlpha"/><feGaussianBlur stdDeviation="3" result="p"/><feFlood flood-opacity="0.141"/><feComposite operator="in" in2="p"/><feComposite in="SourceGraphic"/></filter><filter id="q" x="44.876" y="91.85" width="28.503" height="28.232" filterUnits="userSpaceOnUse"><feOffset dy="3" input="SourceAlpha"/><feGaussianBlur stdDeviation="3" result="r"/><feFlood flood-opacity="0.141"/><feComposite operator="in" in2="r"/><feComposite in="SourceGraphic"/></filter><filter id="s" x="97.102" y="47.982" width="30.631" height="31.007" filterUnits="userSpaceOnUse"><feOffset dy="3" input="SourceAlpha"/><feGaussianBlur stdDeviation="3" result="t"/><feFlood flood-opacity="0.141"/><feComposite operator="in" in2="t"/><feComposite in="SourceGraphic"/></filter><filter id="u" x="93.907" y="44.92" width="28.502" height="28.233" filterUnits="userSpaceOnUse"><feOffset dy="3" input="SourceAlpha"/><feGaussianBlur stdDeviation="3" result="v"/><feFlood flood-opacity="0.141"/><feComposite operator="in" in2="v"/><feComposite in="SourceGraphic"/></filter><filter id="w" x="63.976" y="78.33" width="32.105" height="32.198" filterUnits="userSpaceOnUse"><feOffset dy="3" input="SourceAlpha"/><feGaussianBlur stdDeviation="3" result="x"/><feFlood flood-opacity="0.141"/><feComposite operator="in" in2="x"/><feComposite in="SourceGraphic"/></filter><filter id="y" x="84.857" y="56.3" width="34.169" height="34.313" filterUnits="userSpaceOnUse"><feOffset dy="3" input="SourceAlpha"/><feGaussianBlur stdDeviation="3" result="z"/><feFlood flood-opacity="0.141"/><feComposite operator="in" in2="z"/><feComposite in="SourceGraphic"/></filter><filter id="aa" x="56.922" y="87.99" width="28.994" height="29.375" filterUnits="userSpaceOnUse"><feOffset dy="3" input="SourceAlpha"/><feGaussianBlur stdDeviation="3" result="ab"/><feFlood flood-opacity="0.141"/><feComposite operator="in" in2="ab"/><feComposite in="SourceGraphic"/></filter><filter id="ac" x="73.838" y="66.658" width="34.559" height="34.532" filterUnits="userSpaceOnUse"><feOffset dy="3" input="SourceAlpha"/><feGaussianBlur stdDeviation="3" result="ad"/><feFlood flood-opacity="0.141"/><feComposite operator="in" in2="ad"/><feComposite in="SourceGraphic"/></filter><filter id="ae" x="45.718" y="92.69" width="32.141" height="32.385" filterUnits="userSpaceOnUse"><feOffset dy="3" input="SourceAlpha"/><feGaussianBlur stdDeviation="3" result="af"/><feFlood flood-opacity="0.141"/><feComposite operator="in" in2="af"/><feComposite in="SourceGraphic"/></filter><filter id="ag" x="94.749" y="45.761" width="32.142" height="32.386" filterUnits="userSpaceOnUse"><feOffset dy="3" input="SourceAlpha"/><feGaussianBlur stdDeviation="3" result="ah"/><feFlood flood-opacity="0.141"/><feComposite operator="in" in2="ah"/><feComposite in="SourceGraphic"/></filter><filter id="ai" x="64.807" y="79.162" width="30.425" height="30.537" filterUnits="userSpaceOnUse"><feOffset dy="3" input="SourceAlpha"/><feGaussianBlur stdDeviation="3" result="aj"/><feFlood flood-opacity="0.141"/><feComposite operator="in" in2="aj"/><feComposite in="SourceGraphic"/></filter><filter id="ak" x="85.698" y="57.143" width="32.487" height="32.632" filterUnits="userSpaceOnUse"><feOffset dy="3" input="SourceAlpha"/><feGaussianBlur stdDeviation="3" result="al"/><feFlood flood-opacity="0.141"/><feComposite operator="in" in2="al"/><feComposite in="SourceGraphic"/></filter><filter id="am" x="57.762" y="88.835" width="27.313" height="27.689" filterUnits="userSpaceOnUse"><feOffset dy="3" input="SourceAlpha"/><feGaussianBlur stdDeviation="3" result="an"/><feFlood flood-opacity="0.141"/><feComposite operator="in" in2="an"/><feComposite in="SourceGraphic"/></filter><filter id="ao" x="74.679" y="67.498" width="32.875" height="32.849" filterUnits="userSpaceOnUse"><feOffset dy="3" input="SourceAlpha"/><feGaussianBlur stdDeviation="3" result="ap"/><feFlood flood-opacity="0.141"/><feComposite operator="in" in2="ap"/><feComposite in="SourceGraphic"/></filter><filter id="aq" x="46.56" y="93.533" width="30.459" height="30.7" filterUnits="userSpaceOnUse"><feOffset dy="3" input="SourceAlpha"/><feGaussianBlur stdDeviation="3" result="ar"/><feFlood flood-opacity="0.141"/><feComposite operator="in" in2="ar"/><feComposite in="SourceGraphic"/></filter><filter id="as" x="95.589" y="46.605" width="30.459" height="30.702" filterUnits="userSpaceOnUse"><feOffset dy="3" input="SourceAlpha"/><feGaussianBlur stdDeviation="3" result="at"/><feFlood flood-opacity="0.141"/><feComposite operator="in" in2="at"/><feComposite in="SourceGraphic"/></filter><filter id="au" x="0" y="0" width="171.692" height="169.606" filterUnits="userSpaceOnUse"><feOffset dy="3" input="SourceAlpha"/><feGaussianBlur stdDeviation="3" result="av"/><feFlood flood-opacity="0.141"/><feComposite operator="in" in2="av"/><feComposite in="SourceGraphic"/></filter><filter id="aw" x="88.154" y="19.773" width="25.302" height="25.441" filterUnits="userSpaceOnUse"><feOffset dy="3" input="SourceAlpha"/><feGaussianBlur stdDeviation="3" result="ax"/><feFlood flood-opacity="0.141"/><feComposite operator="in" in2="ax"/><feComposite in="SourceGraphic"/></filter><filter id="ay" x="98.215" y="30.284" width="25.304" height="25.443" filterUnits="userSpaceOnUse"><feOffset dy="3" input="SourceAlpha"/><feGaussianBlur stdDeviation="3" result="az"/><feFlood flood-opacity="0.141"/><feComposite operator="in" in2="az"/><feComposite in="SourceGraphic"/></filter><filter id="ba" x="107.159" y="39.627" width="25.302" height="25.443" filterUnits="userSpaceOnUse"><feOffset dy="3" input="SourceAlpha"/><feGaussianBlur stdDeviation="3" result="bb"/><feFlood flood-opacity="0.141"/><feComposite operator="in" in2="bb"/><feComposite in="SourceGraphic"/></filter><filter id="bc" x="117.217" y="50.14" width="24.185" height="24.272" filterUnits="userSpaceOnUse"><feOffset dy="3" input="SourceAlpha"/><feGaussianBlur stdDeviation="3" result="bd"/><feFlood flood-opacity="0.141"/><feComposite operator="in" in2="bd"/><feComposite in="SourceGraphic"/></filter><filter id="be" x="126.16" y="59.483" width="25.305" height="25.442" filterUnits="userSpaceOnUse"><feOffset dy="3" input="SourceAlpha"/><feGaussianBlur stdDeviation="3" result="bf"/><feFlood flood-opacity="0.141"/><feComposite operator="in" in2="bf"/><feComposite in="SourceGraphic"/></filter><filter id="bg" x="20.262" y="84.752" width="25.303" height="25.442" filterUnits="userSpaceOnUse"><feOffset dy="3" input="SourceAlpha"/><feGaussianBlur stdDeviation="3" result="bh"/><feFlood flood-opacity="0.141"/><feComposite operator="in" in2="bh"/><feComposite in="SourceGraphic"/></filter><filter id="bi" x="30.324" y="95.264" width="25.303" height="25.443" filterUnits="userSpaceOnUse"><feOffset dy="3" input="SourceAlpha"/><feGaussianBlur stdDeviation="3" result="bj"/><feFlood flood-opacity="0.141"/><feComposite operator="in" in2="bj"/><feComposite in="SourceGraphic"/></filter><filter id="bk" x="39.266" y="104.607" width="25.303" height="25.441" filterUnits="userSpaceOnUse"><feOffset dy="3" input="SourceAlpha"/><feGaussianBlur stdDeviation="3" result="bl"/><feFlood flood-opacity="0.141"/><feComposite operator="in" in2="bl"/><feComposite in="SourceGraphic"/></filter><filter id="bm" x="49.328" y="115.12" width="24.182" height="24.271" filterUnits="userSpaceOnUse"><feOffset dy="3" input="SourceAlpha"/><feGaussianBlur stdDeviation="3" result="bn"/><feFlood flood-opacity="0.141"/><feComposite operator="in" in2="bn"/><feComposite in="SourceGraphic"/></filter><filter id="bo" x="58.269" y="124.461" width="25.303" height="25.443" filterUnits="userSpaceOnUse"><feOffset dy="3" input="SourceAlpha"/><feGaussianBlur stdDeviation="3" result="bp"/><feFlood flood-opacity="0.141"/><feComposite operator="in" in2="bp"/><feComposite in="SourceGraphic"/></filter><filter id="bq" x="34.029" y="68.307" width="38.422" height="38.31" filterUnits="userSpaceOnUse"><feOffset dy="3" input="SourceAlpha"/><feGaussianBlur stdDeviation="3" result="br"/><feFlood flood-opacity="0.141"/><feComposite operator="in" in2="br"/><feComposite in="SourceGraphic"/></filter><filter id="bs" x="52.326" y="50.798" width="38.422" height="38.306" filterUnits="userSpaceOnUse"><feOffset dy="3" input="SourceAlpha"/><feGaussianBlur stdDeviation="3" result="bt"/><feFlood flood-opacity="0.141"/><feComposite operator="in" in2="bt"/><feComposite in="SourceGraphic"/></filter><filter id="bu" x="70.623" y="33.285" width="38.42" height="38.307" filterUnits="userSpaceOnUse"><feOffset dy="3" input="SourceAlpha"/><feGaussianBlur stdDeviation="3" result="bv"/><feFlood flood-opacity="0.141"/><feComposite operator="in" in2="bv"/><feComposite in="SourceGraphic"/></filter><filter id="bw" x="59.772" y="61.855" width="75.81" height="73.51" filterUnits="userSpaceOnUse"><feOffset dy="3" input="SourceAlpha"/><feGaussianBlur stdDeviation="3" result="bx"/><feFlood flood-opacity="0.141"/><feComposite operator="in" in2="bx"/><feComposite in="SourceGraphic"/></filter><filter id="by" x="79.605" y="81.376" width="48.425" height="47.299" filterUnits="userSpaceOnUse"><feOffset dy="3" input="SourceAlpha"/><feGaussianBlur stdDeviation="3" result="bz"/><feFlood flood-opacity="0.141"/><feComposite operator="in" in2="bz"/><feComposite in="SourceGraphic"/></filter><filter id="ca" x="79.473" y="15.358" width="121.959" height="134.358" filterUnits="userSpaceOnUse"><feOffset dy="3" input="SourceAlpha"/><feGaussianBlur stdDeviation="3" result="cb"/><feFlood flood-opacity="0.141"/><feComposite operator="in" in2="cb"/><feComposite in="SourceGraphic"/></filter><filter id="cc" x="0.842" y="0.84" width="170.008" height="167.925" filterUnits="userSpaceOnUse"><feOffset dy="3" input="SourceAlpha"/><feGaussianBlur stdDeviation="3" result="cd"/><feFlood flood-opacity="0.141"/><feComposite operator="in" in2="cd"/><feComposite in="SourceGraphic"/></filter><filter id="ce" x="88.996" y="20.613" width="23.619" height="23.76" filterUnits="userSpaceOnUse"><feOffset dy="3" input="SourceAlpha"/><feGaussianBlur stdDeviation="3" result="cf"/><feFlood flood-opacity="0.141"/><feComposite operator="in" in2="cf"/><feComposite in="SourceGraphic"/></filter><filter id="cg" x="99.057" y="31.126" width="23.621" height="23.76" filterUnits="userSpaceOnUse"><feOffset dy="3" input="SourceAlpha"/><feGaussianBlur stdDeviation="3" result="ch"/><feFlood flood-opacity="0.141"/><feComposite operator="in" in2="ch"/><feComposite in="SourceGraphic"/></filter><filter id="ci" x="108" y="40.467" width="23.62" height="23.762" filterUnits="userSpaceOnUse"><feOffset dy="3" input="SourceAlpha"/><feGaussianBlur stdDeviation="3" result="cj"/><feFlood flood-opacity="0.141"/><feComposite operator="in" in2="cj"/><feComposite in="SourceGraphic"/></filter><filter id="ck" x="118.061" y="50.981" width="22.499" height="22.59" filterUnits="userSpaceOnUse"><feOffset dy="3" input="SourceAlpha"/><feGaussianBlur stdDeviation="3" result="cl"/><feFlood flood-opacity="0.141"/><feComposite operator="in" in2="cl"/><feComposite in="SourceGraphic"/></filter><filter id="cm" x="127.002" y="60.323" width="23.621" height="23.761" filterUnits="userSpaceOnUse"><feOffset dy="3" input="SourceAlpha"/><feGaussianBlur stdDeviation="3" result="cn"/><feFlood flood-opacity="0.141"/><feComposite operator="in" in2="cn"/><feComposite in="SourceGraphic"/></filter><filter id="co" x="21.104" y="85.592" width="23.62" height="23.76" filterUnits="userSpaceOnUse"><feOffset dy="3" input="SourceAlpha"/><feGaussianBlur stdDeviation="3" result="cp"/><feFlood flood-opacity="0.141"/><feComposite operator="in" in2="cp"/><feComposite in="SourceGraphic"/></filter><filter id="cq" x="31.167" y="96.104" width="23.619" height="23.762" filterUnits="userSpaceOnUse"><feOffset dy="3" input="SourceAlpha"/><feGaussianBlur stdDeviation="3" result="cr"/><feFlood flood-opacity="0.141"/><feComposite operator="in" in2="cr"/><feComposite in="SourceGraphic"/></filter><filter id="cs" x="40.108" y="105.445" width="23.619" height="23.762" filterUnits="userSpaceOnUse"><feOffset dy="3" input="SourceAlpha"/><feGaussianBlur stdDeviation="3" result="ct"/><feFlood flood-opacity="0.141"/><feComposite operator="in" in2="ct"/><feComposite in="SourceGraphic"/></filter><filter id="cu" x="50.17" y="115.961" width="22.498" height="22.59" filterUnits="userSpaceOnUse"><feOffset dy="3" input="SourceAlpha"/><feGaussianBlur stdDeviation="3" result="cv"/><feFlood flood-opacity="0.141"/><feComposite operator="in" in2="cv"/><feComposite in="SourceGraphic"/></filter><filter id="cw" x="59.111" y="125.302" width="23.62" height="23.76" filterUnits="userSpaceOnUse"><feOffset dy="3" input="SourceAlpha"/><feGaussianBlur stdDeviation="3" result="cx"/><feFlood flood-opacity="0.141"/><feComposite operator="in" in2="cx"/><feComposite in="SourceGraphic"/></filter><filter id="cy" x="34.87" y="69.148" width="36.739" height="36.627" filterUnits="userSpaceOnUse"><feOffset dy="3" input="SourceAlpha"/><feGaussianBlur stdDeviation="3" result="cz"/><feFlood flood-opacity="0.141"/><feComposite operator="in" in2="cz"/><feComposite in="SourceGraphic"/></filter><filter id="da" x="53.167" y="51.638" width="36.74" height="36.625" filterUnits="userSpaceOnUse"><feOffset dy="3" input="SourceAlpha"/><feGaussianBlur stdDeviation="3" result="db"/><feFlood flood-opacity="0.141"/><feComposite operator="in" in2="db"/><feComposite in="SourceGraphic"/></filter><filter id="dc" x="71.463" y="34.125" width="36.737" height="36.628" filterUnits="userSpaceOnUse"><feOffset dy="3" input="SourceAlpha"/><feGaussianBlur stdDeviation="3" result="dd"/><feFlood flood-opacity="0.141"/><feComposite operator="in" in2="dd"/><feComposite in="SourceGraphic"/></filter><filter id="de" x="60.615" y="62.696" width="74.124" height="71.827" filterUnits="userSpaceOnUse"><feOffset dy="3" input="SourceAlpha"/><feGaussianBlur stdDeviation="3" result="df"/><feFlood flood-opacity="0.141"/><feComposite operator="in" in2="df"/><feComposite in="SourceGraphic"/></filter><filter id="dg" x="80.448" y="82.216" width="46.74" height="45.617" filterUnits="userSpaceOnUse"><feOffset dy="3" input="SourceAlpha"/><feGaussianBlur stdDeviation="3" result="dh"/><feFlood flood-opacity="0.141"/><feComposite operator="in" in2="dh"/><feComposite in="SourceGraphic"/></filter><filter id="di" x="80.315" y="16.199" width="120.276" height="132.673" filterUnits="userSpaceOnUse"><feOffset dy="3" input="SourceAlpha"/><feGaussianBlur stdDeviation="3" result="dj"/><feFlood flood-opacity="0.141"/><feComposite operator="in" in2="dj"/><feComposite in="SourceGraphic"/></filter><filter id="dk" x="1.684" y="1.682" width="168.323" height="166.241" filterUnits="userSpaceOnUse"><feOffset dy="3" input="SourceAlpha"/><feGaussianBlur stdDeviation="3" result="dl"/><feFlood flood-opacity="0.141"/><feComposite operator="in" in2="dl"/><feComposite in="SourceGraphic"/></filter><filter id="dm" x="89.837" y="21.457" width="21.939" height="22.074" filterUnits="userSpaceOnUse"><feOffset dy="3" input="SourceAlpha"/><feGaussianBlur stdDeviation="3" result="dn"/><feFlood flood-opacity="0.141"/><feComposite operator="in" in2="dn"/><feComposite in="SourceGraphic"/></filter><filter id="do" x="99.899" y="31.97" width="21.938" height="22.074" filterUnits="userSpaceOnUse"><feOffset dy="3" input="SourceAlpha"/><feGaussianBlur stdDeviation="3" result="dp"/><feFlood flood-opacity="0.141"/><feComposite operator="in" in2="dp"/><feComposite in="SourceGraphic"/></filter><filter id="dq" x="108.839" y="41.311" width="21.94" height="22.076" filterUnits="userSpaceOnUse"><feOffset dy="3" input="SourceAlpha"/><feGaussianBlur stdDeviation="3" result="dr"/><feFlood flood-opacity="0.141"/><feComposite operator="in" in2="dr"/><feComposite in="SourceGraphic"/></filter><filter id="ds" x="118.902" y="51.825" width="20.818" height="20.904" filterUnits="userSpaceOnUse"><feOffset dy="3" input="SourceAlpha"/><feGaussianBlur stdDeviation="3" result="dt"/><feFlood flood-opacity="0.141"/><feComposite operator="in" in2="dt"/><feComposite in="SourceGraphic"/></filter><filter id="du" x="127.844" y="61.166" width="21.938" height="22.075" filterUnits="userSpaceOnUse"><feOffset dy="3" input="SourceAlpha"/><feGaussianBlur stdDeviation="3" result="dv"/><feFlood flood-opacity="0.141"/><feComposite operator="in" in2="dv"/><feComposite in="SourceGraphic"/></filter><filter id="dw" x="21.944" y="86.437" width="21.939" height="22.075" filterUnits="userSpaceOnUse"><feOffset dy="3" input="SourceAlpha"/><feGaussianBlur stdDeviation="3" result="dx"/><feFlood flood-opacity="0.141"/><feComposite operator="in" in2="dx"/><feComposite in="SourceGraphic"/></filter><filter id="dy" x="32.007" y="96.95" width="21.938" height="22.073" filterUnits="userSpaceOnUse"><feOffset dy="3" input="SourceAlpha"/><feGaussianBlur stdDeviation="3" result="dz"/><feFlood flood-opacity="0.141"/><feComposite operator="in" in2="dz"/><feComposite in="SourceGraphic"/></filter><filter id="ea" x="40.948" y="106.292" width="21.938" height="22.075" filterUnits="userSpaceOnUse"><feOffset dy="3" input="SourceAlpha"/><feGaussianBlur stdDeviation="3" result="eb"/><feFlood flood-opacity="0.141"/><feComposite operator="in" in2="eb"/><feComposite in="SourceGraphic"/></filter><filter id="ec" x="51.01" y="116.805" width="20.817" height="20.904" filterUnits="userSpaceOnUse"><feOffset dy="3" input="SourceAlpha"/><feGaussianBlur stdDeviation="3" result="ed"/><feFlood flood-opacity="0.141"/><feComposite operator="in" in2="ed"/><feComposite in="SourceGraphic"/></filter><filter id="ee" x="59.952" y="126.146" width="21.938" height="22.075" filterUnits="userSpaceOnUse"><feOffset dy="3" input="SourceAlpha"/><feGaussianBlur stdDeviation="3" result="ef"/><feFlood flood-opacity="0.141"/><feComposite operator="in" in2="ef"/><feComposite in="SourceGraphic"/></filter><filter id="eg" x="35.713" y="69.988" width="35.054" height="34.946" filterUnits="userSpaceOnUse"><feOffset dy="3" input="SourceAlpha"/><feGaussianBlur stdDeviation="3" result="eh"/><feFlood flood-opacity="0.141"/><feComposite operator="in" in2="eh"/><feComposite in="SourceGraphic"/></filter><filter id="ei" x="54.01" y="52.479" width="35.054" height="34.942" filterUnits="userSpaceOnUse"><feOffset dy="3" input="SourceAlpha"/><feGaussianBlur stdDeviation="3" result="ej"/><feFlood flood-opacity="0.141"/><feComposite operator="in" in2="ej"/><feComposite in="SourceGraphic"/></filter><filter id="ek" x="72.305" y="34.966" width="35.055" height="34.944" filterUnits="userSpaceOnUse"><feOffset dy="3" input="SourceAlpha"/><feGaussianBlur stdDeviation="3" result="el"/><feFlood flood-opacity="0.141"/><feComposite operator="in" in2="el"/><feComposite in="SourceGraphic"/></filter><filter id="em" x="61.457" y="63.54" width="72.441" height="70.142" filterUnits="userSpaceOnUse"><feOffset dy="3" input="SourceAlpha"/><feGaussianBlur stdDeviation="3" result="en"/><feFlood flood-opacity="0.141"/><feComposite operator="in" in2="en"/><feComposite in="SourceGraphic"/></filter><filter id="eo" x="81.29" y="83.06" width="45.057" height="43.932" filterUnits="userSpaceOnUse"><feOffset dy="3" input="SourceAlpha"/><feGaussianBlur stdDeviation="3" result="ep"/><feFlood flood-opacity="0.141"/><feComposite operator="in" in2="ep"/><feComposite in="SourceGraphic"/></filter><filter id="eq" x="81.157" y="17.042" width="118.594" height="130.99" filterUnits="userSpaceOnUse"><feOffset dy="3" input="SourceAlpha"/><feGaussianBlur stdDeviation="3" result="er"/><feFlood flood-opacity="0.141"/><feComposite operator="in" in2="er"/><feComposite in="SourceGraphic"/></filter></defs><g transform="translate(-4159.361 -1940.073)" opacity="0.9"><g transform="matrix(1, 0, 0, 1, 4159.36, 1940.07)" filter="url(#a)"><path d="M666.5,121.818a8.459,8.459,0,0,1-6.088-2.954c-3.935-4.114-3.073-8.47-.471-10.96a6.26,6.26,0,0,1,8.2-.83,2.1,2.1,0,0,1-2.436,3.433,2.118,2.118,0,0,0-2.857.435c-1.389,1.333-1.173,3.16.6,5.013s3.585,2.146,4.98.821a2.239,2.239,0,0,0,.5-3,2.1,2.1,0,1,1,3.51-2.317,6.347,6.347,0,0,1-1.1,8.359A7.027,7.027,0,0,1,666.5,121.818Z" transform="translate(-585.61 -22.43)" fill="#ff0703"/></g><g transform="matrix(1, 0, 0, 1, 4159.36, 1940.07)" filter="url(#c)"><path d="M682.663,108.419a3.01,3.01,0,0,1-2.18-.929l-7.229-7.553a3.024,3.024,0,0,1,.092-4.266l4.875-4.666a2.1,2.1,0,0,1,2.91,3.04l-4.013,3.842,5.58,5.832,4.015-3.841a2.1,2.1,0,1,1,2.91,3.04l-4.874,4.663A3,3,0,0,1,682.663,108.419Z" transform="translate(-579.4 -28.96)" fill="#ff0703"/></g><g transform="matrix(1, 0, 0, 1, 4159.36, 1940.07)" filter="url(#e)"><path d="M677.167,102.815a2.1,2.1,0,0,1-1.456-3.625l5-4.784a2.1,2.1,0,1,1,2.91,3.04l-5,4.785A2.1,2.1,0,0,1,677.167,102.815Z" transform="translate(-578.29 -27.53)" fill="#ff0703"/></g><g transform="matrix(1, 0, 0, 1, 4159.36, 1940.07)" filter="url(#g)"><path d="M663.349,125.765a2.1,2.1,0,0,1-1.519-.65l-8.471-8.85a2.1,2.1,0,0,1,3.04-2.91l8.471,8.85a2.1,2.1,0,0,1-1.522,3.559Z" transform="translate(-587.7 -19.56)" fill="#ff0703"/></g><g transform="matrix(1, 0, 0, 1, 4159.36, 1940.07)" filter="url(#i)"><path d="M675.244,114.39a2.088,2.088,0,0,1-1.519-.648l-8.471-8.85a2.1,2.1,0,0,1,3.04-2.91l8.471,8.85a2.1,2.1,0,0,1-1.522,3.558Z" transform="translate(-582.67 -24.36)" fill="#ff0703"/></g><g transform="matrix(1, 0, 0, 1, 4159.36, 1940.07)" filter="url(#k)"><path d="M670.348,112.379h-.057a2.1,2.1,0,0,1-2.048-2.16l.277-10.465a2.1,2.1,0,0,1,4.207.111l-.276,10.465A2.107,2.107,0,0,1,670.348,112.379Z" transform="translate(-581.17 -25.89)" fill="#ff0703"/></g><g transform="matrix(1, 0, 0, 1, 4159.36, 1940.07)" filter="url(#m)"><path d="M679.281,108.391a2.162,2.162,0,0,1-.3-.021l-8.872-1.256a2.1,2.1,0,1,1,.589-4.164l8.872,1.254a2.1,2.1,0,0,1-.289,4.187Z" transform="translate(-581.14 -23.68)" fill="#ff0703"/></g><g transform="matrix(1, 0, 0, 1, 4159.36, 1940.07)" filter="url(#o)"><path d="M657.669,131.171a2.094,2.094,0,0,1-1.519-.648l-8.423-8.8a2.1,2.1,0,0,1,3.042-2.91l8.422,8.8a2.1,2.1,0,0,1-1.522,3.558Z" transform="translate(-590.07 -17.25)" fill="#ff0703"/></g><g transform="matrix(1, 0, 0, 1, 4159.36, 1940.07)" filter="url(#q)"><path d="M647,126.244a2.1,2.1,0,0,1-1.453-3.624l6.294-6.025a2.1,2.1,0,1,1,2.909,3.04l-6.294,6.025A2.1,2.1,0,0,1,647,126.244Z" transform="translate(-591.02 -18.16)" fill="#ff0703"/></g><g transform="matrix(1, 0, 0, 1, 4159.36, 1940.07)" filter="url(#s)"><path d="M692.148,98.172a2.092,2.092,0,0,1-1.52-.648l-8.423-8.8a2.1,2.1,0,1,1,3.04-2.91l8.422,8.8a2.1,2.1,0,0,1-1.519,3.558Z" transform="translate(-575.52 -31.18)" fill="#ff0703"/></g><g transform="matrix(1, 0, 0, 1, 4159.36, 1940.07)" filter="url(#u)"><path d="M681.479,93.244a2.1,2.1,0,0,1-1.455-3.625l6.293-6.024a2.1,2.1,0,1,1,2.91,3.04l-6.294,6.025A2.1,2.1,0,0,1,681.479,93.244Z" transform="translate(-576.47 -32.09)" fill="#ff0703"/></g><g transform="matrix(1, 0, 0, 1, 4159.36, 1940.07)" filter="url(#w)"><path d="M666.255,120.7a7.632,7.632,0,0,1-5.489-2.672c-3.534-3.7-2.8-7.57-.5-9.771a5.444,5.444,0,0,1,7.133-.751,1.263,1.263,0,0,1-1.463,2.058,2.984,2.984,0,0,0-3.925.518c-1.752,1.675-1.536,3.993.576,6.2s4.421,2.523,6.17.846a3.109,3.109,0,0,0,.617-4.071,1.263,1.263,0,0,1,2.108-1.392,5.545,5.545,0,0,1-.98,7.288A6.148,6.148,0,0,1,666.255,120.7Z" transform="translate(-585.35 -22.17)" fill="#ff751f"/></g><g transform="matrix(1, 0, 0, 1, 4159.36, 1940.07)" filter="url(#y)"><path d="M682.414,107.327a2.173,2.173,0,0,1-1.571-.668l-3.7-3.862c-.01-.01-.017-.018-.027-.027l-.023-.027-3.481-3.636a2.183,2.183,0,0,1,.065-3.077l4.875-4.664a1.263,1.263,0,1,1,1.746,1.825l-4.622,4.423,2.392,2.5,4.087-3.912a1.263,1.263,0,0,1,1.746,1.826l-4.087,3.911,2.608,2.723,4.622-4.423a1.262,1.262,0,0,1,1.744,1.825l-4.872,4.663A2.168,2.168,0,0,1,682.414,107.327Z" transform="translate(-579.15 -28.71)" fill="#ff751f"/></g><g transform="matrix(1, 0, 0, 1, 4159.36, 1940.07)" filter="url(#aa)"><path d="M663.1,124.673a1.257,1.257,0,0,1-.911-.39l-8.471-8.85a1.263,1.263,0,0,1,1.825-1.746l8.471,8.851a1.262,1.262,0,0,1-.913,2.135Z" transform="translate(-587.45 -19.31)" fill="#ff751f"/></g><g transform="matrix(1, 0, 0, 1, 4159.36, 1940.07)" filter="url(#ac)"><path d="M674.994,114.829a1.258,1.258,0,0,1-.912-.388l-8.471-8.85a1.263,1.263,0,0,1,1.826-1.746l2.984,3.12a.074.074,0,0,1,0-.03l.193-7.409a1.323,1.323,0,0,1,1.3-1.229,1.26,1.26,0,0,1,1.229,1.294l-.166,6.3,7.758,1.1a1.261,1.261,0,1,1-.351,2.5l-7.473-1.054-.029,1.1,3.028,3.163a1.261,1.261,0,0,1-.914,2.135Z" transform="translate(-582.42 -25.64)" fill="#ff751f"/></g><g transform="matrix(1, 0, 0, 1, 4159.36, 1940.07)" filter="url(#ae)"><path d="M658.367,130.988a1.256,1.256,0,0,1-.911-.388l-7.6-7.937-2.237,2.14a1.262,1.262,0,1,1-1.745-1.825l6.3-6.024a1.262,1.262,0,1,1,1.745,1.823l-2.236,2.139,7.6,7.937a1.262,1.262,0,0,1-.914,2.135Z" transform="translate(-590.77 -17.91)" fill="#ff751f"/></g><g transform="matrix(1, 0, 0, 1, 4159.36, 1940.07)" filter="url(#ag)"><path d="M692.847,97.989a1.269,1.269,0,0,1-.914-.388l-7.6-7.938L682.1,91.8a1.263,1.263,0,0,1-1.746-1.825l6.3-6.025a1.262,1.262,0,1,1,1.743,1.825l-2.234,2.14,7.6,7.937a1.263,1.263,0,0,1-.912,2.135Z" transform="translate(-576.22 -31.84)" fill="#ff751f"/></g><g transform="matrix(1, 0, 0, 1, 4159.36, 1940.07)" filter="url(#ai)"><path d="M665.992,119.627a6.786,6.786,0,0,1-4.866-2.426c-3.346-3.5-2.373-6.809-.522-8.582a4.615,4.615,0,0,1,6.061-.67.42.42,0,1,1-.486.685,3.737,3.737,0,0,0-4.993.593c-1.647,1.576-2.366,4.347.549,7.392s5.714,2.447,7.361.875a3.9,3.9,0,0,0,.735-5.147.421.421,0,0,1,.7-.464,4.726,4.726,0,0,1-.858,6.216A5.358,5.358,0,0,1,665.992,119.627Z" transform="translate(-585.11 -21.93)" fill="#ffeb36"/></g><g transform="matrix(1, 0, 0, 1, 4159.36, 1940.07)" filter="url(#ak)"><path d="M682.164,106.238h-.03a1.334,1.334,0,0,1-.936-.414l-3.7-3.871-.017-.016-.013-.014-3.491-3.649a1.336,1.336,0,0,1,.043-1.889l4.872-4.663a.42.42,0,1,1,.582.607L674.6,96.993a.5.5,0,0,0-.017.7l3.215,3.36,4.694-4.494a.426.426,0,0,1,.595.013.419.419,0,0,1-.013.6l-4.694,4.494,3.43,3.582a.5.5,0,0,0,.7.016l4.872-4.663a.424.424,0,0,1,.594.013.419.419,0,0,1-.014.594l-4.871,4.664A1.334,1.334,0,0,1,682.164,106.238Z" transform="translate(-578.9 -28.46)" fill="#ffeb36"/></g><g transform="matrix(1, 0, 0, 1, 4159.36, 1940.07)" filter="url(#am)"><path d="M662.85,123.581a.417.417,0,0,1-.3-.129l-8.471-8.85a.421.421,0,0,1,.013-.6.425.425,0,0,1,.594.014l8.471,8.848a.422.422,0,0,1-.3.712Z" transform="translate(-587.2 -19.06)" fill="#ffeb36"/></g><g transform="matrix(1, 0, 0, 1, 4159.36, 1940.07)" filter="url(#ao)"><path d="M674.745,113.737a.411.411,0,0,1-.3-.129l-8.471-8.848a.421.421,0,1,1,.609-.582l4.381,4.576.053-2.018v-.018l.2-7.42a.421.421,0,0,1,.421-.41h.013a.422.422,0,0,1,.408.432l-.188,7.054,8.5,1.2a.417.417,0,0,1,.356.475.429.429,0,0,1-.473.357l-8.409-1.187-.063,2.391,3.271,3.414a.42.42,0,0,1-.306.711Z" transform="translate(-582.18 -25.39)" fill="#ffeb36"/></g><g transform="matrix(1, 0, 0, 1, 4159.36, 1940.07)" filter="url(#aq)"><path d="M658.117,129.9a.412.412,0,0,1-.3-.129l-8.178-8.544-2.844,2.723a.42.42,0,1,1-.58-.609l6.294-6.025a.421.421,0,1,1,.582.609l-2.844,2.719,8.18,8.545a.42.42,0,0,1-.306.711Z" transform="translate(-590.52 -17.66)" fill="#ffeb36"/></g><g transform="matrix(1, 0, 0, 1, 4159.36, 1940.07)" filter="url(#as)"><path d="M692.6,96.9a.419.419,0,0,1-.306-.131l-8.178-8.544-2.843,2.722a.421.421,0,0,1-.583-.609l6.3-6.025a.42.42,0,1,1,.58.607l-2.843,2.722,8.178,8.545a.422.422,0,0,1-.3.712Z" transform="translate(-575.97 -31.59)" fill="#ffeb36"/></g><g transform="matrix(1, 0, 0, 1, 4159.36, 1940.07)" filter="url(#au)"><path d="M664.806,203.03h-.045a2.1,2.1,0,0,1-1.473-.648l-4.273-4.464a2.106,2.106,0,0,1,.263-3.143,6.062,6.062,0,0,0,.552-.445,5.149,5.149,0,0,0,.155-7.264,5.268,5.268,0,0,0-7.265-.159,5.709,5.709,0,0,0-.464.522,2.1,2.1,0,0,1-1.547.779,2.144,2.144,0,0,1-1.608-.648l-5.243-5.478a2.109,2.109,0,0,1,.263-3.143,5.5,5.5,0,0,0,.546-.441,5.146,5.146,0,0,0,.161-7.27,5.268,5.268,0,0,0-7.264-.156,5.363,5.363,0,0,0-.466.523,2.1,2.1,0,0,1-3.153.127l-5.243-5.478a2.1,2.1,0,0,1,.269-3.146,5.334,5.334,0,0,0,.546-.444,5.148,5.148,0,0,0,.154-7.263,5.269,5.269,0,0,0-7.264-.159,6.085,6.085,0,0,0-.468.525,2.1,2.1,0,0,1-1.547.775,1.975,1.975,0,0,1-1.6-.647l-4.859-5.077a2.1,2.1,0,0,1,.065-2.975L714.112,52.007a2.552,2.552,0,0,1,1.5-.583,2.12,2.12,0,0,1,1.477.648l4.832,5.051a2.1,2.1,0,0,1-.4,3.235,5.158,5.158,0,0,0-.25,7.362,5.28,5.28,0,0,0,7.268.159,2.244,2.244,0,0,1,1.61-.944,2.2,2.2,0,0,1,1.741.6l5.189,5.424a2.1,2.1,0,0,1-.388,3.228,5.157,5.157,0,0,0-.262,7.369,5.276,5.276,0,0,0,7.268.161,2.238,2.238,0,0,1,1.613-.944,2.1,2.1,0,0,1,1.736.6l5.191,5.425a2.1,2.1,0,0,1-.4,3.237,5.184,5.184,0,0,0-.249,7.361,5.281,5.281,0,0,0,7.27.158,2.246,2.246,0,0,1,1.61-.943,2.218,2.218,0,0,1,1.739.6l4.248,4.435a2.11,2.11,0,0,1-.065,2.976L666.263,202.447A2.1,2.1,0,0,1,664.806,203.03Zm-1.291-6.5,1.357,1.419,97.08-92.916-1.4-1.465a9.608,9.608,0,0,1-12.007-1.266,9.368,9.368,0,0,1-.741-12.051l-2.41-2.52a9.555,9.555,0,0,1-12.007-1.267,9.364,9.364,0,0,1-.741-12.052L730.237,71.9a9.348,9.348,0,0,1-12.748-13.322L715.5,56.5l-97.079,92.915,1.95,2.035a9.582,9.582,0,0,1,12.341,1.031,9.363,9.363,0,0,1,.489,12.375l2.328,2.432a9.629,9.629,0,0,1,12.339,1.028,9.365,9.365,0,0,1,.491,12.376l2.327,2.43a9.571,9.571,0,0,1,12.341,1.031A9.367,9.367,0,0,1,663.515,196.532Z" transform="translate(-604.34 -45.42)" fill="#ffc400"/></g><g transform="matrix(1, 0, 0, 1, 4159.36, 1940.07)" filter="url(#aw)"><path d="M679.009,72.12l-3.1-3.234a2.1,2.1,0,0,1,3.04-2.91l3.1,3.235a2.1,2.1,0,1,1-3.04,2.908Z" transform="translate(-578.18 -39.56)" fill="#ffc400"/></g><g transform="matrix(1, 0, 0, 1, 4159.36, 1940.07)" filter="url(#ay)"><path d="M686.085,79.513l-3.1-3.235a2.1,2.1,0,1,1,3.042-2.908l3.1,3.234a2.1,2.1,0,1,1-3.04,2.91Z" transform="translate(-575.19 -36.44)" fill="#ffc400"/></g><g transform="matrix(1, 0, 0, 1, 4159.36, 1940.07)" filter="url(#ba)"><path d="M692.373,86.084l-3.1-3.235a2.1,2.1,0,1,1,3.04-2.91l3.1,3.235a2.1,2.1,0,0,1-3.04,2.91Z" transform="translate(-572.53 -33.66)" fill="#ffc400"/></g><g transform="matrix(1, 0, 0, 1, 4159.36, 1940.07)" filter="url(#bc)"><path d="M698.328,92.3l-1.977-2.065a2.1,2.1,0,0,1,3.042-2.91L701.37,89.4a2.1,2.1,0,0,1-3.042,2.91Z" transform="translate(-569.55 -30.54)" fill="#ffc400"/></g><g transform="matrix(1, 0, 0, 1, 4159.36, 1940.07)" filter="url(#be)"><path d="M705.736,100.046l-3.1-3.235a2.1,2.1,0,0,1,3.042-2.91l3.1,3.235a2.1,2.1,0,0,1-3.04,2.91Z" transform="translate(-566.9 -27.77)" fill="#ffc400"/></g><g transform="matrix(1, 0, 0, 1, 4159.36, 1940.07)" filter="url(#bg)"><path d="M631.268,117.813l-3.1-3.234a2.1,2.1,0,1,1,3.04-2.91l3.1,3.234a2.1,2.1,0,1,1-3.04,2.91Z" transform="translate(-598.33 -20.27)" fill="#ffc400"/></g><g transform="matrix(1, 0, 0, 1, 4159.36, 1940.07)" filter="url(#bi)"><path d="M638.344,125.206l-3.1-3.235a2.1,2.1,0,0,1,3.042-2.91l3.1,3.235a2.1,2.1,0,0,1-3.04,2.91Z" transform="translate(-595.34 -17.15)" fill="#ffc400"/></g><g transform="matrix(1, 0, 0, 1, 4159.36, 1940.07)" filter="url(#bk)"><path d="M644.631,131.776l-3.1-3.235a2.1,2.1,0,0,1,3.04-2.91l3.1,3.235a2.1,2.1,0,0,1-3.04,2.91Z" transform="translate(-592.69 -14.38)" fill="#ffc400"/></g><g transform="matrix(1, 0, 0, 1, 4159.36, 1940.07)" filter="url(#bm)"><path d="M650.586,138l-1.975-2.065a2.1,2.1,0,1,1,3.04-2.91l1.975,2.065a2.1,2.1,0,0,1-3.04,2.91Z" transform="translate(-589.7 -11.26)" fill="#ffc400"/></g><g transform="matrix(1, 0, 0, 1, 4159.36, 1940.07)" filter="url(#bo)"><path d="M657.994,145.739l-3.1-3.235a2.1,2.1,0,1,1,3.04-2.908l3.1,3.234a2.1,2.1,0,0,1-3.042,2.91Z" transform="translate(-587.05 -8.48)" fill="#ffc400"/></g><g transform="matrix(1, 0, 0, 1, 4159.36, 1940.07)" filter="url(#bq)"><path d="M648.283,119.767a2.109,2.109,0,0,1-1.522-.653l-3.2-3.353L639,114.945a2.1,2.1,0,0,1-1.479-3.07l2.2-4.077-.631-4.589a2.11,2.11,0,0,1,.627-1.806,2.132,2.132,0,0,1,1.834-.549l4.556.835,4.168-2.021a2.1,2.1,0,0,1,3,1.614l.614,4.59,3.208,3.34a2.1,2.1,0,0,1-.6,3.355l-4.175,2-2.186,4.084a2.1,2.1,0,0,1-1.571,1.092A1.926,1.926,0,0,1,648.283,119.767Zm-5.677-8.451,2.378.427a2.108,2.108,0,0,1,1.151.619l1.665,1.746,1.138-2.129a2.124,2.124,0,0,1,.943-.9l2.177-1.042-1.674-1.741a2.107,2.107,0,0,1-.569-1.177l-.319-2.392-2.173,1.052a2.167,2.167,0,0,1-1.3.175l-2.373-.434.329,2.392a2.072,2.072,0,0,1-.233,1.286Z" transform="translate(-594.24 -25.15)" fill="#ffc400"/></g><g transform="matrix(1, 0, 0, 1, 4159.36, 1940.07)" filter="url(#bs)"><path d="M661.146,107.451a2.1,2.1,0,0,1-1.522-.653l-3.2-3.35-4.556-.818a2.1,2.1,0,0,1-1.479-3.07l2.2-4.076-.634-4.588a2.1,2.1,0,0,1,.632-1.809,2.078,2.078,0,0,1,1.83-.548l4.556.833,4.168-2.021a2.106,2.106,0,0,1,3,1.614l.614,4.59,3.21,3.34a2.1,2.1,0,0,1-.606,3.355l-4.178,2L663,106.34a2.1,2.1,0,0,1-1.571,1.091A1.932,1.932,0,0,1,661.146,107.451ZM655.472,99l2.373.425a2.086,2.086,0,0,1,1.151.62l1.667,1.746,1.138-2.129a2.111,2.111,0,0,1,.947-.9l2.176-1.044-1.672-1.738a2.126,2.126,0,0,1-.569-1.179l-.319-2.392-2.173,1.052a2.14,2.14,0,0,1-1.3.176l-2.374-.434.329,2.389a2.086,2.086,0,0,1-.233,1.287Z" transform="translate(-588.81 -30.35)" fill="#ffc400"/></g><g transform="matrix(1, 0, 0, 1, 4159.36, 1940.07)" filter="url(#bu)"><path d="M674.012,95.137a2.1,2.1,0,0,1-1.522-.651l-3.2-3.352-4.559-.818a2.107,2.107,0,0,1-1.48-3.07l2.2-4.076-.631-4.588a2.1,2.1,0,0,1,2.462-2.356l4.556.833,4.17-2.021a2.107,2.107,0,0,1,3,1.614l.616,4.592,3.208,3.339a2.105,2.105,0,0,1-.609,3.355l-4.174,2-2.187,4.084a2.1,2.1,0,0,1-1.571,1.091A1.921,1.921,0,0,1,674.012,95.137Zm-5.677-8.45,2.376.427a2.08,2.08,0,0,1,1.152.62l1.665,1.745,1.138-2.129a2.12,2.12,0,0,1,.944-.9l2.176-1.044-1.67-1.738a2.1,2.1,0,0,1-.569-1.179l-.323-2.392-2.169,1.052a2.149,2.149,0,0,1-1.3.176l-2.373-.434.329,2.389a2.107,2.107,0,0,1-.233,1.287Z" transform="translate(-583.38 -35.54)" fill="#ffc400"/></g><g transform="matrix(1, 0, 0, 1, 4159.36, 1940.07)" filter="url(#bw)"><path d="M655.958,149.78a2.1,2.1,0,0,1,.065-2.974l53.6-51.3a2.1,2.1,0,1,1,2.91,3.04l-53.6,51.3A2.1,2.1,0,0,1,655.958,149.78Z" transform="translate(-586.6 -27.06)" fill="#ffc400"/></g><g transform="matrix(1, 0, 0, 1, 4159.36, 1940.07)" filter="url(#by)"><path d="M669.9,137.3a2.1,2.1,0,0,1,.065-2.975l26.216-25.091a2.1,2.1,0,0,1,2.908,3.042l-26.216,25.09A2.1,2.1,0,0,1,669.9,137.3Z" transform="translate(-580.71 -21.27)" fill="#ffc400"/></g><g transform="matrix(1, 0, 0, 1, 4159.36, 1940.07)" filter="url(#ca)"><path d="M669.432,177.386a2.105,2.105,0,0,1,.99-2.807l97.854-46.852-.879-1.83a9.344,9.344,0,0,1-7.958-16.624l-1.5-3.141A9.349,9.349,0,0,1,749.972,89.5l-1.506-3.144A9.348,9.348,0,0,1,740.5,69.727l-1.244-2.592-21.24,10.171a2.1,2.1,0,0,1-1.819-3.8l23.143-11.078a2.077,2.077,0,0,1,1.608-.087,2.113,2.113,0,0,1,1.2,1.075l3.018,6.306a2.106,2.106,0,0,1-1.384,2.949,5.142,5.142,0,1,0,4.319,9.333,2.3,2.3,0,0,1,1.827-.388,2.174,2.174,0,0,1,1.461,1.1l3.245,6.773a2.105,2.105,0,0,1-1.385,2.948,5.143,5.143,0,1,0,4.316,9.336,2.238,2.238,0,0,1,1.832-.39,2.187,2.187,0,0,1,1.463,1.1l3.241,6.772a2.1,2.1,0,0,1-1.388,2.951,5.143,5.143,0,1,0,4.32,9.333,2.21,2.21,0,0,1,1.827-.393,2.174,2.174,0,0,1,1.463,1.108l2.652,5.54a2.106,2.106,0,0,1-.99,2.806l-99.75,47.759A2.1,2.1,0,0,1,669.432,177.386Z" transform="translate(-580.75 -40.87)" fill="#ffc400"/></g><g transform="matrix(1, 0, 0, 1, 4159.36, 1940.07)" filter="url(#cc)"><path d="M664.557,201.94h-.027a1.268,1.268,0,0,1-.883-.39l-4.275-4.464a1.267,1.267,0,0,1,.159-1.887,6.53,6.53,0,0,0,.627-.509,5.986,5.986,0,0,0,.185-8.454,6.132,6.132,0,0,0-8.456-.186,6.232,6.232,0,0,0-.536.6,1.253,1.253,0,0,1-.927.466,1.188,1.188,0,0,1-.966-.39l-5.243-5.476a1.272,1.272,0,0,1-.346-.978,1.252,1.252,0,0,1,.5-.906,6.369,6.369,0,0,0,.624-.512,5.986,5.986,0,0,0,.188-8.457,6.13,6.13,0,0,0-8.454-.183,6.653,6.653,0,0,0-.54.6,1.251,1.251,0,0,1-.927.465,1.149,1.149,0,0,1-.963-.388l-5.243-5.476a1.263,1.263,0,0,1,.161-1.887,6.682,6.682,0,0,0,.628-.512,5.99,5.99,0,0,0,.181-8.456,6.135,6.135,0,0,0-8.454-.183,6.628,6.628,0,0,0-.54.6,1.244,1.244,0,0,1-.926.464,1.145,1.145,0,0,1-.964-.387l-4.858-5.077a1.261,1.261,0,0,1-.351-.9,1.275,1.275,0,0,1,.391-.885L714.443,52.365a1.483,1.483,0,0,1,.9-.35,1.278,1.278,0,0,1,.885.39l4.831,5.051a1.258,1.258,0,0,1-.239,1.941,5.986,5.986,0,0,0-.411,8.656,6.141,6.141,0,0,0,8.46.185,1.588,1.588,0,0,1,1.04-.647,1.434,1.434,0,0,1,1.118.277l5.191,5.424a1.244,1.244,0,0,1,.343,1.022,1.272,1.272,0,0,1-.573.914,5.983,5.983,0,0,0-.421,8.661,6.144,6.144,0,0,0,8.46.186,1.6,1.6,0,0,1,1.041-.648,1.447,1.447,0,0,1,1.118.277l5.191,5.425a1.259,1.259,0,0,1-.239,1.941,6.048,6.048,0,0,0-.411,8.658,6.14,6.14,0,0,0,8.459.183,1.593,1.593,0,0,1,1.041-.648,1.4,1.4,0,0,1,1.116.279l4.249,4.436a1.266,1.266,0,0,1-.041,1.786L665.431,201.59A1.268,1.268,0,0,1,664.557,201.94Zm-2.439-5.637,2.479,2.59,98.3-94.081-2.5-2.608a8.691,8.691,0,0,1-11.5-.73,8.518,8.518,0,0,1-.226-11.515l-3.434-3.592a8.707,8.707,0,0,1-11.5-.731,8.524,8.524,0,0,1-.226-11.516l-3.434-3.589A8.505,8.505,0,0,1,718.36,58.285l-3.083-3.222-98.3,94.08,3.067,3.205a8.718,8.718,0,0,1,11.8.468,8.512,8.512,0,0,1-.05,11.813l3.4,3.552a8.725,8.725,0,0,1,11.8.469,8.514,8.514,0,0,1-.05,11.815l3.4,3.555a8.717,8.717,0,0,1,11.8.468A8.514,8.514,0,0,1,662.118,196.3Z" transform="translate(-604.09 -45.17)" fill="#ffec4a"/></g><g transform="matrix(1, 0, 0, 1, 4159.36, 1940.07)" filter="url(#ce)"><path d="M679.368,71.29l-3.1-3.235a1.262,1.262,0,1,1,1.823-1.746l3.1,3.235a1.263,1.263,0,0,1-1.825,1.746Z" transform="translate(-577.93 -39.31)" fill="#ffec4a"/></g><g transform="matrix(1, 0, 0, 1, 4159.36, 1940.07)" filter="url(#cg)"><path d="M686.444,78.682l-3.1-3.235a1.262,1.262,0,1,1,1.823-1.745l3.1,3.234a1.263,1.263,0,0,1-1.824,1.746Z" transform="translate(-574.94 -36.19)" fill="#ffec4a"/></g><g transform="matrix(1, 0, 0, 1, 4159.36, 1940.07)" filter="url(#ci)"><path d="M692.731,85.251l-3.1-3.234a1.263,1.263,0,0,1,1.825-1.746l3.1,3.235a1.262,1.262,0,1,1-1.825,1.745Z" transform="translate(-572.29 -33.41)" fill="#ffec4a"/></g><g transform="matrix(1, 0, 0, 1, 4159.36, 1940.07)" filter="url(#ck)"><path d="M698.686,91.474l-1.977-2.065a1.262,1.262,0,1,1,1.825-1.745l1.975,2.063a1.262,1.262,0,1,1-1.823,1.746Z" transform="translate(-569.3 -30.29)" fill="#ffec4a"/></g><g transform="matrix(1, 0, 0, 1, 4159.36, 1940.07)" filter="url(#cm)"><path d="M706.1,99.213,703,95.978a1.262,1.262,0,0,1,1.825-1.745l3.1,3.235a1.262,1.262,0,1,1-1.823,1.745Z" transform="translate(-566.65 -27.52)" fill="#ffec4a"/></g><g transform="matrix(1, 0, 0, 1, 4159.36, 1940.07)" filter="url(#co)"><path d="M631.627,116.983l-3.1-3.235A1.263,1.263,0,0,1,630.354,112l3.1,3.234a1.263,1.263,0,0,1-1.825,1.748Z" transform="translate(-598.08 -20.02)" fill="#ffec4a"/></g><g transform="matrix(1, 0, 0, 1, 4159.36, 1940.07)" filter="url(#cq)"><path d="M638.7,124.375l-3.1-3.235a1.262,1.262,0,0,1,1.824-1.745l3.1,3.234a1.263,1.263,0,0,1-1.826,1.746Z" transform="translate(-595.09 -16.9)" fill="#ffec4a"/></g><g transform="matrix(1, 0, 0, 1, 4159.36, 1940.07)" filter="url(#cs)"><path d="M644.99,130.946l-3.1-3.235a1.262,1.262,0,0,1,1.823-1.746l3.1,3.234a1.263,1.263,0,0,1-1.825,1.748Z" transform="translate(-592.44 -14.13)" fill="#ffec4a"/></g><g transform="matrix(1, 0, 0, 1, 4159.36, 1940.07)" filter="url(#cu)"><path d="M650.945,137.165l-1.977-2.063a1.263,1.263,0,0,1,1.825-1.746l1.975,2.066a1.261,1.261,0,1,1-1.823,1.743Z" transform="translate(-589.45 -11.01)" fill="#ffec4a"/></g><g transform="matrix(1, 0, 0, 1, 4159.36, 1940.07)" filter="url(#cw)"><path d="M658.353,144.907l-3.1-3.235a1.263,1.263,0,1,1,1.824-1.746l3.1,3.235a1.263,1.263,0,1,1-1.824,1.746Z" transform="translate(-586.8 -8.23)" fill="#ffec4a"/></g><g transform="matrix(1, 0, 0, 1, 4159.36, 1940.07)" filter="url(#cy)"><path d="M648.033,118.676a1.258,1.258,0,0,1-.913-.393l-3.39-3.55-4.829-.867a1.262,1.262,0,0,1-.887-1.842l2.332-4.319-.671-4.859a1.262,1.262,0,0,1,1.479-1.414l4.825.88,4.416-2.137a1.261,1.261,0,0,1,1.8.968l.654,4.864,3.4,3.538a1.262,1.262,0,0,1-.366,2.012l-4.421,2.123-2.317,4.326a1.261,1.261,0,0,1-.941.656A1.181,1.181,0,0,1,648.033,118.676Zm-6.97-6.985,3.518.63a1.266,1.266,0,0,1,.694.371l2.464,2.587,1.691-3.153a1.256,1.256,0,0,1,.565-.543l3.221-1.546-2.474-2.578a1.261,1.261,0,0,1-.343-.707l-.472-3.544-3.218,1.559a1.272,1.272,0,0,1-.779.105l-3.518-.643.491,3.542a1.258,1.258,0,0,1-.142.772Z" transform="translate(-593.99 -24.9)" fill="#ffec4a"/></g><g transform="matrix(1, 0, 0, 1, 4159.36, 1940.07)" filter="url(#da)"><path d="M660.9,106.36a1.267,1.267,0,0,1-.914-.391l-3.385-3.55-4.829-.867a1.26,1.26,0,0,1-.887-1.842l2.331-4.317-.671-4.861a1.261,1.261,0,0,1,1.476-1.414l4.829.88,4.414-2.137a1.261,1.261,0,0,1,1.8.968l.654,4.864,3.4,3.538a1.261,1.261,0,0,1-.364,2.012l-4.426,2.123-2.314,4.326a1.266,1.266,0,0,1-.944.656A1.133,1.133,0,0,1,660.9,106.36Zm-6.965-6.985,3.517.631a1.275,1.275,0,0,1,.691.371l2.467,2.588,1.687-3.153a1.273,1.273,0,0,1,.569-.543l3.222-1.546-2.476-2.58a1.25,1.25,0,0,1-.341-.707l-.476-3.544-3.215,1.559a1.264,1.264,0,0,1-.779.105l-3.518-.643.491,3.542a1.257,1.257,0,0,1-.141.772Z" transform="translate(-588.56 -30.1)" fill="#ffec4a"/></g><g transform="matrix(1, 0, 0, 1, 4159.36, 1940.07)" filter="url(#dc)"><path d="M673.762,94.048a1.261,1.261,0,0,1-.913-.392l-3.386-3.55-4.829-.866a1.261,1.261,0,0,1-.89-1.843l2.331-4.317-.671-4.861a1.262,1.262,0,0,1,1.479-1.414l4.825.882,4.418-2.139a1.265,1.265,0,0,1,1.8.968l.651,4.864,3.4,3.538a1.26,1.26,0,0,1-.365,2.012l-4.421,2.123-2.317,4.326a1.253,1.253,0,0,1-.944.656A1.1,1.1,0,0,1,673.762,94.048Zm-6.968-6.985,3.52.63a1.271,1.271,0,0,1,.691.371l2.466,2.588L675.16,87.5a1.26,1.26,0,0,1,.566-.543l3.224-1.546-2.479-2.578a1.26,1.26,0,0,1-.338-.707l-.476-3.545-3.218,1.559a1.24,1.24,0,0,1-.776.105l-3.517-.643.486,3.542a1.285,1.285,0,0,1-.138.772Z" transform="translate(-583.13 -35.3)" fill="#ffec4a"/></g><g transform="matrix(1, 0, 0, 1, 4159.36, 1940.07)" filter="url(#de)"><path d="M656.316,148.949a1.261,1.261,0,0,1,.038-1.785l53.6-51.3a1.262,1.262,0,1,1,1.746,1.823l-53.6,51.3A1.259,1.259,0,0,1,656.316,148.949Z" transform="translate(-586.35 -26.82)" fill="#ffec4a"/></g><g transform="matrix(1, 0, 0, 1, 4159.36, 1940.07)" filter="url(#dg)"><path d="M670.261,136.465a1.262,1.262,0,0,1,.04-1.785l26.216-25.091a1.262,1.262,0,1,1,1.745,1.825l-26.216,25.091A1.262,1.262,0,0,1,670.261,136.465Z" transform="translate(-580.46 -21.02)" fill="#ffec4a"/></g><g transform="matrix(1, 0, 0, 1, 4159.36, 1940.07)" filter="url(#di)"><path d="M669.942,176.773a1.262,1.262,0,0,1,.592-1.684l98.616-47.213-1.562-3.258a8.5,8.5,0,0,1-7.321-15.289l-2.143-4.481A8.508,8.508,0,0,1,750.8,89.554l-2.143-4.48a8.506,8.506,0,0,1-7.324-15.29l-1.923-4.023-22,10.536a1.263,1.263,0,1,1-1.092-2.278l23.14-11.079a1.251,1.251,0,0,1,.966-.051,1.267,1.267,0,0,1,.721.644l3.016,6.307a1.247,1.247,0,0,1,0,1.081,1.265,1.265,0,0,1-.832.69,5.979,5.979,0,1,0,4.889,10.909,1.6,1.6,0,0,1,1.193-.289,1.437,1.437,0,0,1,.973.609l3.242,6.772a1.267,1.267,0,0,1-.829,1.77,5.977,5.977,0,1,0,4.884,10.907,1.6,1.6,0,0,1,1.194-.287,1.444,1.444,0,0,1,.977.609l3.241,6.773a1.265,1.265,0,0,1-.832,1.771,5.979,5.979,0,1,0,4.888,10.909,1.585,1.585,0,0,1,1.193-.292,1.436,1.436,0,0,1,.974.611l2.652,5.539a1.265,1.265,0,0,1,.053.966,1.278,1.278,0,0,1-.644.72l-99.752,47.758A1.265,1.265,0,0,1,669.942,176.773Z" transform="translate(-580.5 -40.62)" fill="#ffec4a"/></g><g transform="matrix(1, 0, 0, 1, 4159.36, 1940.07)" filter="url(#dk)"><path d="M664.307,200.848h-.01a.414.414,0,0,1-.292-.129l-4.275-4.465a.423.423,0,0,1,.053-.627,7.9,7.9,0,0,0,.707-.576,6.823,6.823,0,0,0-9.434-9.859,6.949,6.949,0,0,0-.609.68.424.424,0,0,1-.309.155.4.4,0,0,1-.323-.129l-5.243-5.478a.425.425,0,0,1,.054-.63,6.972,6.972,0,0,0,.707-.577,6.823,6.823,0,0,0-9.436-9.858,7.714,7.714,0,0,0-.607.681.426.426,0,0,1-.31.154.442.442,0,0,1-.321-.131l-5.243-5.475a.43.43,0,0,1-.115-.329.417.417,0,0,1,.171-.3,7.582,7.582,0,0,0,.7-.577,6.822,6.822,0,1,0-9.434-9.857,7.119,7.119,0,0,0-.609.678.419.419,0,0,1-.309.155.46.46,0,0,1-.323-.131l-4.858-5.077a.419.419,0,0,1,.013-.6L714.775,52.724a.53.53,0,0,1,.3-.117.432.432,0,0,1,.3.129l4.832,5.051a.42.42,0,0,1,.117.341.436.436,0,0,1-.195.306,2.423,2.423,0,0,0-.358.3A6.823,6.823,0,1,0,729.2,68.6a2.339,2.339,0,0,0,.317-.344.423.423,0,0,1,.313-.179.362.362,0,0,1,.339.128l5.191,5.424a.421.421,0,0,1,.115.34.429.429,0,0,1-.191.306,2.508,2.508,0,0,0-.353.294,6.824,6.824,0,1,0,9.426,9.871,2.6,2.6,0,0,0,.32-.347.415.415,0,0,1,.311-.179.389.389,0,0,1,.338.128l5.191,5.425a.411.411,0,0,1,.114.343.433.433,0,0,1-.193.306,2.4,2.4,0,0,0-.358.3,6.823,6.823,0,1,0,9.434,9.859,2.542,2.542,0,0,0,.32-.346.42.42,0,0,1,.311-.179.435.435,0,0,1,.34.128l4.246,4.437a.423.423,0,0,1,.115.3.432.432,0,0,1-.129.294L664.6,200.732A.42.42,0,0,1,664.307,200.848Zm-3.642-4.838,3.655,3.823,99.514-95.244-3.639-3.8c-.023.023-.05.046-.073.068A7.663,7.663,0,1,1,749.5,89.806c.03-.03.063-.061.1-.092l-4.562-4.765c-.024.028-.055.054-.081.082a7.664,7.664,0,1,1-10.61-11.062l.094-.092-4.559-4.763c-.033.031-.067.061-.1.092A7.663,7.663,0,1,1,719.185,58.13c.028-.028.063-.06.1-.091l-4.228-4.417-99.514,95.244,4.248,4.434c.115-.132.24-.266.371-.391a7.664,7.664,0,1,1,10.6,11.074c-.132.127-.269.245-.408.355l4.6,4.8c.115-.134.24-.265.371-.39a7.664,7.664,0,0,1,10.6,11.072c-.132.125-.27.243-.408.354l4.592,4.8c.12-.134.245-.267.376-.394a7.664,7.664,0,0,1,10.6,11.074C660.94,195.783,660.8,195.9,660.665,196.01Z" transform="translate(-603.84 -44.92)" fill="#fff"/></g><g transform="matrix(1, 0, 0, 1, 4159.36, 1940.07)" filter="url(#dm)"><path d="M679.727,70.457l-3.1-3.235a.42.42,0,0,1,.013-.594.427.427,0,0,1,.6.013l3.1,3.235a.421.421,0,0,1-.609.582Z" transform="translate(-577.68 -39.06)" fill="#fff"/></g><g transform="matrix(1, 0, 0, 1, 4159.36, 1940.07)" filter="url(#do)"><path d="M686.8,77.848l-3.1-3.234a.419.419,0,0,1,.013-.594.424.424,0,0,1,.594.013l3.1,3.234a.421.421,0,1,1-.609.582Z" transform="translate(-574.69 -35.93)" fill="#fff"/></g><g transform="matrix(1, 0, 0, 1, 4159.36, 1940.07)" filter="url(#dq)"><path d="M693.089,84.419l-3.1-3.235a.42.42,0,1,1,.607-.582l3.1,3.235a.421.421,0,0,1-.61.582Z" transform="translate(-572.04 -33.16)" fill="#fff"/></g><g transform="matrix(1, 0, 0, 1, 4159.36, 1940.07)" filter="url(#ds)"><path d="M699.044,90.642l-1.975-2.065a.421.421,0,0,1,.014-.6.425.425,0,0,1,.594.014l1.975,2.063a.421.421,0,0,1-.609.583Z" transform="translate(-569.05 -30.04)" fill="#fff"/></g><g transform="matrix(1, 0, 0, 1, 4159.36, 1940.07)" filter="url(#du)"><path d="M706.453,98.381l-3.1-3.235a.42.42,0,1,1,.607-.58l3.1,3.234a.421.421,0,0,1-.609.582Z" transform="translate(-566.4 -27.27)" fill="#fff"/></g><g transform="matrix(1, 0, 0, 1, 4159.36, 1940.07)" filter="url(#dw)"><path d="M631.985,116.151l-3.1-3.235a.42.42,0,1,1,.607-.582l3.1,3.235a.421.421,0,0,1-.609.582Z" transform="translate(-597.83 -19.77)" fill="#fff"/></g><g transform="matrix(1, 0, 0, 1, 4159.36, 1940.07)" filter="url(#dy)"><path d="M639.061,123.543l-3.1-3.235a.42.42,0,0,1,.013-.594.425.425,0,0,1,.594.013l3.1,3.235a.421.421,0,1,1-.609.582Z" transform="translate(-594.84 -16.65)" fill="#fff"/></g><g transform="matrix(1, 0, 0, 1, 4159.36, 1940.07)" filter="url(#ea)"><path d="M645.349,130.113l-3.1-3.235a.421.421,0,1,1,.609-.582l3.1,3.232a.421.421,0,0,1-.607.584Z" transform="translate(-592.19 -13.88)" fill="#fff"/></g><g transform="matrix(1, 0, 0, 1, 4159.36, 1940.07)" filter="url(#ec)"><path d="M651.3,136.334l-1.975-2.065a.42.42,0,1,1,.607-.58l1.977,2.063a.421.421,0,0,1-.609.582Z" transform="translate(-589.2 -10.76)" fill="#fff"/></g><g transform="matrix(1, 0, 0, 1, 4159.36, 1940.07)" filter="url(#ee)"><path d="M658.712,144.074l-3.1-3.234a.421.421,0,0,1,.609-.583l3.1,3.234a.421.421,0,0,1-.609.583Z" transform="translate(-586.55 -7.98)" fill="#fff"/></g><g transform="matrix(1, 0, 0, 1, 4159.36, 1940.07)" filter="url(#eg)"><path d="M647.783,117.585a.416.416,0,0,1-.306-.131L643.9,113.7l-5.1-.913a.419.419,0,0,1-.3-.232.436.436,0,0,1,.008-.383l2.463-4.559-.707-5.134a.423.423,0,0,1,.125-.361.429.429,0,0,1,.367-.111l5.1.933,4.666-2.258a.391.391,0,0,1,.381.009.416.416,0,0,1,.22.313l.687,5.137,3.589,3.737a.418.418,0,0,1-.122.671l-4.67,2.241-2.442,4.569a.429.429,0,0,1-.317.219C647.82,117.582,647.8,117.585,647.783,117.585Zm-8.264-5.522,4.664.836a.421.421,0,0,1,.23.124l3.271,3.429,2.236-4.177a.4.4,0,0,1,.19-.181l4.269-2.052-3.284-3.416a.44.44,0,0,1-.111-.236l-.631-4.694-4.263,2.063a.421.421,0,0,1-.26.037l-4.659-.853.646,4.693a.418.418,0,0,1-.047.259Z" transform="translate(-593.74 -24.65)" fill="#fff"/></g><g transform="matrix(1, 0, 0, 1, 4159.36, 1940.07)" filter="url(#ei)"><path d="M660.646,105.269a.413.413,0,0,1-.3-.129l-3.581-3.75-5.1-.914a.422.422,0,0,1-.306-.232.436.436,0,0,1,.01-.383l2.462-4.559-.71-5.134a.424.424,0,0,1,.494-.472l5.1.933,4.662-2.258a.42.42,0,0,1,.6.321l.69,5.137,3.591,3.737a.434.434,0,0,1,.111.367.428.428,0,0,1-.233.3l-4.672,2.241-2.446,4.571a.423.423,0,0,1-.311.219Zm-8.261-5.521,4.664.838a.42.42,0,0,1,.23.122l3.271,3.429,2.235-4.178a.434.434,0,0,1,.188-.181l4.273-2.049-3.284-3.417a.437.437,0,0,1-.112-.235l-.631-4.7-4.263,2.063a.4.4,0,0,1-.26.037l-4.66-.853.647,4.694a.407.407,0,0,1-.047.257Z" transform="translate(-588.31 -29.85)" fill="#fff"/></g><g transform="matrix(1, 0, 0, 1, 4159.36, 1940.07)" filter="url(#ek)"><path d="M673.513,92.956a.429.429,0,0,1-.306-.129l-3.577-3.751-5.1-.914a.42.42,0,0,1-.3-.614l2.459-4.559-.707-5.134a.424.424,0,0,1,.125-.361.415.415,0,0,1,.368-.11l5.1.931,4.662-2.258a.4.4,0,0,1,.384.009.414.414,0,0,1,.218.313l.69,5.137,3.591,3.739a.423.423,0,0,1-.122.67l-4.674,2.243-2.442,4.569a.427.427,0,0,1-.316.219Zm-8.261-5.521,4.665.836a.433.433,0,0,1,.232.122l3.267,3.43,2.235-4.178a.422.422,0,0,1,.191-.182l4.271-2.049L676.83,82a.422.422,0,0,1-.115-.235l-.629-4.7-4.263,2.063a.4.4,0,0,1-.259.037l-4.662-.853.647,4.694a.444.444,0,0,1-.048.259Z" transform="translate(-582.88 -35.05)" fill="#fff"/></g><g transform="matrix(1, 0, 0, 1, 4159.36, 1940.07)" filter="url(#em)"><path d="M656.673,148.117a.421.421,0,0,1,.014-.6l53.6-51.3a.421.421,0,0,1,.582.609l-53.6,51.3A.422.422,0,0,1,656.673,148.117Z" transform="translate(-586.1 -26.56)" fill="#fff"/></g><g transform="matrix(1, 0, 0, 1, 4159.36, 1940.07)" filter="url(#eo)"><path d="M670.62,135.633a.422.422,0,0,1,.013-.6l26.216-25.091a.421.421,0,0,1,.582.609l-26.215,25.093A.424.424,0,0,1,670.62,135.633Z" transform="translate(-580.21 -20.77)" fill="#fff"/></g><g transform="matrix(1, 0, 0, 1, 4159.36, 1940.07)" filter="url(#eq)"><path d="M670.451,176.16a.421.421,0,0,1,.2-.563l99.371-47.576-2.275-4.748c-.028.017-.058.031-.088.046a7.665,7.665,0,1,1-6.651-13.813c.04-.019.081-.037.122-.058l-2.846-5.946-.127.06a7.665,7.665,0,1,1-6.616-13.828l.121-.055-2.847-5.949c-.034.016-.065.033-.1.05a7.665,7.665,0,1,1-6.643-13.817c.043-.02.082-.038.121-.058l-2.639-5.513-22.761,10.9a.421.421,0,0,1-.365-.759l23.143-11.079a.415.415,0,0,1,.321-.017.422.422,0,0,1,.24.213l3.018,6.307a.422.422,0,0,1,0,.361.428.428,0,0,1-.279.229,2.258,2.258,0,0,0-.438.178,6.823,6.823,0,1,0,5.895,12.307,2.277,2.277,0,0,0,.411-.229.423.423,0,0,1,.356-.073.435.435,0,0,1,.279.226l3.241,6.772a.423.423,0,0,1,0,.361.428.428,0,0,1-.279.229,2.367,2.367,0,0,0-.427.172,6.823,6.823,0,1,0,5.88,12.314,2.277,2.277,0,0,0,.414-.23.438.438,0,0,1,.356-.073.428.428,0,0,1,.279.226l3.242,6.775a.417.417,0,0,1-.277.589,2.5,2.5,0,0,0-.432.176,6.823,6.823,0,1,0,5.89,12.31,2.29,2.29,0,0,0,.407-.229.422.422,0,0,1,.636.154l2.652,5.539a.4.4,0,0,1,.017.321.41.41,0,0,1-.215.239l-99.748,47.759A.422.422,0,0,1,670.451,176.16Z" transform="translate(-580.25 -40.37)" fill="#fff"/></g></g></svg>