<svg id="calendrier" xmlns="http://www.w3.org/2000/svg" width="15.93" height="15.93" viewBox="0 0 15.93 15.93">
  <path id="Path_1354" data-name="Path 1354" d="M23.155,10.87h-.4v2.025a.4.4,0,0,1-.81,0V9.655a.4.4,0,1,0-.81,0V10.87h-2.7v2.025a.4.4,0,0,1-.81,0V9.655a.4.4,0,1,0-.81,0V10.87h-2.7v2.025a.4.4,0,0,1-.81,0V9.655a.4.4,0,1,0-.81,0V10.87H11.275A2.027,2.027,0,0,0,9.25,12.895V14.65H25.18V12.895a2.028,2.028,0,0,0-2.025-2.025Z" transform="translate(-9.25 -9.25)" fill="#b8cef5"/>
  <path id="Path_1355" data-name="Path 1355" d="M9.25,28.445a2.027,2.027,0,0,0,2.025,2.025h11.88a2.028,2.028,0,0,0,2.025-2.025V20.75H9.25Z" transform="translate(-9.25 -14.54)" fill="#b8cef5"/>
</svg>
